{"glyphs":{"0":{"ha":907,"x_min":114,"x_max":792,"o":"m 453 1060 q 792 614 792 1060 l 792 426 q 703 93 792 204 q 453 -18 615 -18 q 114 426 114 -18 l 114 614 q 202 947 114 835 q 453 1060 290 1060 m 453 967 q 276 879 335 967 q 217 625 217 792 l 217 417 q 276 162 217 249 q 453 75 335 75 q 630 163 571 75 q 689 417 689 250 l 689 625 q 631 880 689 793 q 453 967 572 967 z "},"1":{"ha":547,"x_min":83,"x_max":386,"o":"m 386 1042 l 386 0 l 283 0 l 283 714 l 83 714 l 83 803 l 126 803 q 251 848 208 803 q 293 989 293 893 l 293 1042 l 386 1042 z "},"2":{"ha":840,"x_min":118,"x_max":726,"o":"m 726 0 l 122 0 l 122 86 l 468 417 q 577 566 542 488 q 613 740 613 644 q 563 909 613 851 q 417 967 514 967 q 273 907 325 967 q 221 749 221 847 l 221 704 l 118 704 l 118 749 q 138 875 118 818 q 197 973 158 932 q 292 1037 236 1014 q 421 1060 349 1060 q 638 975 561 1060 q 715 740 715 890 q 674 531 715 626 q 538 347 633 436 l 269 94 l 726 94 l 726 0 z "},"3":{"ha":829,"x_min":93,"x_max":725,"o":"m 703 1042 l 703 957 l 414 651 q 429 653 421 653 q 444 654 438 654 q 649 569 572 654 q 725 328 725 485 q 642 75 725 168 q 404 -18 560 -18 q 276 4 333 -18 q 178 67 218 26 q 115 163 138 107 q 93 286 93 219 l 93 324 l 197 324 l 197 288 q 253 131 197 188 q 406 75 310 75 q 566 140 510 75 q 622 328 622 206 q 568 508 622 450 q 418 565 514 565 q 285 539 346 565 l 249 610 l 565 947 l 144 947 l 144 1042 l 703 1042 z "},"4":{"ha":882,"x_min":86,"x_max":804,"o":"m 665 1042 l 665 306 l 804 306 l 804 211 l 665 211 l 665 0 l 563 0 l 563 211 l 86 211 l 86 294 l 569 1042 l 665 1042 m 563 306 l 563 868 l 207 306 l 563 306 z "},"5":{"ha":832,"x_min":104,"x_max":726,"o":"m 689 1042 l 689 947 l 289 947 l 260 632 q 432 689 329 689 q 651 600 575 689 q 726 343 726 511 q 645 79 726 176 q 407 -18 564 -18 q 285 2 340 -18 q 189 60 229 22 q 126 152 149 97 q 104 276 104 207 l 104 304 l 208 304 l 208 276 q 264 128 208 181 q 407 75 319 75 q 569 143 514 75 q 624 340 624 211 q 415 597 624 597 q 308 574 354 597 q 232 513 263 550 l 156 535 l 200 1042 l 689 1042 z "},"6":{"ha":840,"x_min":114,"x_max":726,"o":"m 614 779 q 569 916 614 865 q 429 967 524 967 q 268 880 321 967 q 215 631 215 793 l 215 575 q 305 656 251 628 q 432 683 358 683 q 651 592 576 683 q 726 333 726 501 q 707 188 726 253 q 649 76 688 122 q 553 6 610 31 q 425 -18 497 -18 q 190 91 265 -18 q 114 414 114 200 l 114 611 q 197 950 114 840 q 432 1060 281 1060 q 553 1038 500 1060 q 642 979 606 1017 q 697 890 678 942 q 715 779 715 839 l 614 779 m 425 592 q 273 524 326 592 q 219 333 219 456 q 271 143 219 211 q 424 75 322 75 q 572 140 519 75 q 624 333 624 206 q 574 526 624 460 q 425 592 525 592 z "},"7":{"ha":763,"x_min":93,"x_max":665,"o":"m 665 1042 l 665 965 l 326 0 l 215 0 l 556 947 l 93 947 l 93 1042 l 665 1042 z "},"8":{"ha":847,"x_min":108,"x_max":736,"o":"m 422 1060 q 538 1040 486 1060 q 625 985 589 1021 q 680 900 661 950 q 699 790 699 850 q 667 653 699 708 q 586 571 635 599 q 694 471 651 542 q 736 290 736 400 q 716 167 736 224 q 656 70 696 111 q 558 6 617 29 q 422 -18 499 -18 q 286 5 344 -18 q 188 69 228 28 q 128 167 149 111 q 108 290 108 224 q 150 469 108 399 q 258 569 192 540 q 178 653 210 597 q 146 790 146 708 q 165 900 146 850 q 221 985 185 950 q 308 1040 257 1021 q 422 1060 358 1060 m 422 522 q 263 463 314 522 q 211 299 211 403 q 265 136 211 197 q 422 75 319 75 q 581 137 528 75 q 633 299 633 199 q 581 463 633 403 q 422 522 529 522 m 422 967 q 292 918 336 967 q 249 786 249 869 q 292 657 249 706 q 422 608 335 608 q 553 657 510 608 q 596 786 596 706 q 553 918 596 869 q 422 967 510 967 z "},"9":{"ha":840,"x_min":114,"x_max":726,"o":"m 226 263 q 272 126 226 176 q 411 75 317 75 q 572 162 519 75 q 625 411 625 249 l 625 467 q 535 386 589 414 q 408 358 482 358 q 189 449 264 358 q 114 708 114 540 q 135 854 114 789 q 194 965 156 919 q 289 1035 233 1011 q 415 1060 344 1060 q 651 951 576 1060 q 726 628 726 842 l 726 431 q 643 92 726 201 q 408 -18 560 -18 q 288 3 340 -18 q 199 63 235 25 q 144 151 163 100 q 125 263 125 203 l 226 263 m 415 450 q 567 518 514 450 q 621 708 621 586 q 569 899 621 831 q 417 967 518 967 q 269 901 321 967 q 217 708 217 836 q 266 516 217 582 q 415 450 315 450 z "}," ":{"ha":319,"x_min":0,"x_max":0,"o":""},"!":{"ha":324,"x_min":79,"x_max":244,"o":"m 211 1075 l 211 269 l 111 269 l 111 1075 l 211 1075 m 161 157 q 221 134 197 157 q 244 75 244 111 q 221 15 244 39 q 161 -8 197 -8 q 102 15 125 -8 q 79 75 79 39 q 102 134 79 111 q 161 157 125 157 z "},"\"":{"ha":433,"x_min":72,"x_max":360,"o":"m 360 1042 l 360 954 l 338 732 l 260 732 l 260 1042 l 360 1042 m 172 1042 l 172 954 l 150 732 l 72 732 l 72 1042 l 172 1042 z "},"#":{"ha":847,"x_min":72,"x_max":774,"o":"m 389 868 l 361 681 l 540 681 l 568 868 l 660 868 l 632 681 l 774 681 l 774 592 l 619 592 l 590 390 l 746 390 l 746 303 l 578 303 l 550 114 l 457 114 l 485 303 l 306 303 l 278 114 l 186 114 l 214 303 l 72 303 l 72 390 l 226 390 l 256 592 l 101 592 l 101 681 l 268 681 l 296 868 l 389 868 m 318 390 l 497 390 l 528 592 l 349 592 l 318 390 z "},"$":{"ha":842,"x_min":97,"x_max":744,"o":"m 374 -211 l 374 -15 q 168 81 239 0 q 97 288 97 161 l 97 310 l 200 310 l 200 283 q 260 132 200 190 q 429 74 319 74 q 588 127 533 74 q 642 276 642 181 q 591 418 642 367 q 413 483 540 469 q 193 576 260 500 q 126 776 126 653 q 143 881 126 832 q 192 966 160 929 q 269 1026 224 1003 q 374 1057 315 1050 l 374 1231 l 474 1231 l 474 1056 q 658 965 593 1040 q 724 771 724 890 l 724 750 l 621 750 l 621 775 q 568 915 621 863 q 418 968 515 968 q 278 916 326 968 q 229 781 229 864 q 273 644 229 696 q 433 579 317 593 q 669 485 593 560 q 744 279 744 410 q 727 167 744 218 q 675 76 710 115 q 590 14 640 38 q 474 -15 540 -10 l 474 -211 l 374 -211 z "},"%":{"ha":1076,"x_min":65,"x_max":1010,"o":"m 956 997 l 208 0 l 92 0 l 839 997 l 956 997 m 283 1060 q 442 995 383 1060 q 501 814 501 931 q 485 715 501 760 q 441 637 469 669 q 372 587 413 604 q 283 569 332 569 q 124 634 183 569 q 65 814 65 699 q 81 915 65 869 q 126 992 97 960 q 194 1042 154 1024 q 283 1060 235 1060 m 283 975 q 192 934 225 975 q 158 814 158 893 q 192 694 158 735 q 283 654 226 654 q 375 694 342 654 q 408 814 408 735 q 374 934 408 893 q 283 975 340 975 m 792 472 q 951 408 892 472 q 1010 226 1010 343 q 994 127 1010 172 q 949 49 978 82 q 881 -1 921 17 q 792 -18 840 -18 q 633 47 692 -18 q 574 226 574 111 q 590 327 574 282 q 634 404 606 372 q 703 454 663 436 q 792 472 743 472 m 792 388 q 700 347 733 388 q 667 226 667 306 q 701 107 667 147 q 792 67 735 67 q 883 107 850 67 q 917 226 917 147 q 883 347 917 306 q 792 388 849 388 z "},"&":{"ha":903,"x_min":93,"x_max":821,"o":"m 793 565 l 793 446 q 721 138 793 254 l 821 19 l 744 -42 l 657 61 q 428 -18 565 -18 q 291 6 353 -18 q 185 73 229 29 q 117 181 142 117 q 93 325 93 244 q 126 492 93 418 q 214 613 160 565 q 178 781 178 689 q 197 895 178 843 q 251 983 215 947 q 337 1040 286 1019 q 450 1060 388 1060 q 568 1039 517 1060 q 654 982 619 1018 q 707 896 689 946 q 725 786 725 846 l 725 761 l 622 761 l 622 786 q 578 918 622 869 q 450 967 533 967 q 324 917 369 967 q 279 783 279 867 q 354 575 279 663 l 656 217 q 693 443 693 301 l 693 565 l 793 565 m 278 514 q 272 521 275 517 q 265 528 268 525 q 215 442 233 493 q 196 326 196 392 q 260 142 196 208 q 429 75 325 75 q 597 132 536 75 l 278 514 z "},"'":{"ha":244,"x_min":72,"x_max":172,"o":"m 172 1042 l 172 954 l 150 732 l 72 732 l 72 1042 l 172 1042 z "},"(":{"ha":374,"x_min":86,"x_max":367,"o":"m 367 1042 q 235 713 279 883 q 190 347 190 543 q 235 -15 190 157 q 367 -347 279 -186 l 267 -347 q 133 -31 179 -204 q 86 347 86 142 q 133 725 86 551 q 267 1042 179 899 l 367 1042 z "},")":{"ha":374,"x_min":7,"x_max":288,"o":"m 7 -347 q 139 -19 94 -189 q 183 347 183 151 q 139 710 183 539 q 7 1042 94 882 l 107 1042 q 241 725 194 899 q 288 347 288 551 q 241 -31 288 142 q 107 -347 194 -204 l 7 -347 z "},"*":{"ha":578,"x_min":35,"x_max":543,"o":"m 335 1072 l 326 856 l 514 935 l 543 849 l 347 788 l 478 608 l 403 556 l 289 742 l 174 556 l 99 608 l 229 788 l 35 849 l 64 935 l 251 856 l 243 1072 l 335 1072 z "},"+":{"ha":708,"x_min":79,"x_max":628,"o":"m 401 825 l 401 571 l 628 571 l 628 479 l 401 479 l 401 225 l 306 225 l 306 479 l 79 479 l 79 571 l 306 571 l 306 825 l 401 825 z "},",":{"ha":303,"x_min":67,"x_max":233,"o":"m 68 -93 q 122 -65 103 -89 q 143 -7 142 -42 q 87 17 107 -4 q 67 74 67 39 q 89 133 67 110 q 149 157 111 157 q 210 130 188 157 q 233 54 233 103 q 191 -97 233 -37 q 68 -167 149 -156 l 68 -93 z "},"-":{"ha":593,"x_min":90,"x_max":503,"o":"m 503 410 l 503 319 l 90 319 l 90 410 l 503 410 z "},".":{"ha":303,"x_min":68,"x_max":233,"o":"m 151 157 q 210 134 188 157 q 233 75 233 111 q 210 15 233 39 q 151 -8 188 -8 q 92 15 115 -8 q 68 75 68 39 q 92 134 68 111 q 151 157 115 157 z "},"/":{"ha":415,"x_min":-79,"x_max":449,"o":"m 449 1085 l 22 -376 l -79 -376 l 347 1085 l 449 1085 z "},":":{"ha":303,"x_min":68,"x_max":233,"o":"m 151 157 q 210 134 188 157 q 233 75 233 111 q 210 15 233 39 q 151 -8 188 -8 q 92 15 115 -8 q 68 75 68 39 q 92 134 68 111 q 151 157 115 157 m 151 697 q 210 674 188 697 q 233 615 233 651 q 210 556 233 579 q 151 532 188 532 q 92 556 115 532 q 68 615 68 579 q 92 674 68 651 q 151 697 115 697 z "},";":{"ha":303,"x_min":67,"x_max":233,"o":"m 68 -93 q 122 -65 103 -89 q 143 -7 142 -42 q 87 17 107 -4 q 67 74 67 39 q 89 133 67 110 q 149 157 111 157 q 210 130 188 157 q 233 54 233 103 q 191 -97 233 -37 q 68 -167 149 -156 l 68 -93 m 151 697 q 210 674 188 697 q 233 615 233 651 q 210 556 233 579 q 151 532 188 532 q 92 556 115 532 q 68 615 68 579 q 92 674 68 651 q 151 697 115 697 z "},"<":{"ha":490,"x_min":58,"x_max":411,"o":"m 296 836 l 411 836 l 169 525 l 411 214 l 296 214 l 58 504 l 58 546 l 296 836 z "},"=":{"ha":640,"x_min":86,"x_max":553,"o":"m 553 717 l 553 626 l 86 626 l 86 717 l 553 717 m 553 424 l 553 333 l 86 333 l 86 424 l 553 424 z "},">":{"ha":490,"x_min":78,"x_max":431,"o":"m 193 214 l 78 214 l 321 525 l 78 836 l 193 836 l 431 546 l 431 504 l 193 214 z "},"?":{"ha":725,"x_min":58,"x_max":650,"o":"m 297 269 l 297 332 q 330 471 297 411 q 435 575 363 531 q 518 663 489 611 q 547 790 547 714 q 498 943 547 890 q 354 996 449 996 q 209 940 258 996 q 160 792 160 883 l 160 760 l 58 760 l 58 799 q 78 915 58 861 q 135 1006 97 968 q 227 1067 172 1044 q 354 1089 282 1089 q 574 1010 497 1089 q 650 794 650 931 q 611 619 650 690 q 493 500 572 549 q 419 423 440 468 q 397 325 397 378 l 397 269 l 297 269 m 349 157 q 408 134 385 157 q 432 75 432 111 q 408 15 432 39 q 349 -8 385 -8 q 290 15 313 -8 q 267 75 267 39 q 290 134 267 111 q 349 157 313 157 z "},"@":{"ha":1149,"x_min":72,"x_max":1076,"o":"m 786 285 q 808 198 786 224 q 865 172 829 172 q 910 185 889 172 q 947 225 931 197 q 972 297 963 253 q 981 407 981 342 q 956 574 981 497 q 882 707 931 651 q 762 794 833 763 q 599 825 690 825 q 416 790 496 825 q 282 693 336 756 q 199 542 228 631 q 171 347 171 454 q 203 135 171 225 q 292 -15 235 44 q 428 -103 350 -74 q 601 -132 507 -132 q 950 -43 794 -132 l 950 -140 q 792 -201 879 -181 q 601 -222 706 -222 q 383 -185 481 -222 q 217 -76 286 -149 q 110 102 147 -4 q 72 347 72 208 q 109 577 72 472 q 214 757 146 682 q 380 874 282 832 q 599 915 478 915 q 797 878 708 915 q 947 772 885 840 q 1043 611 1010 704 q 1076 408 1076 518 q 1060 263 1076 325 q 1015 160 1043 201 q 947 99 986 119 q 865 79 908 79 q 777 105 813 79 q 726 176 742 131 q 658 99 703 128 q 553 71 614 71 q 399 135 454 71 q 343 319 343 200 l 343 374 q 399 555 343 488 q 551 622 456 622 q 646 599 608 622 q 701 536 683 576 l 701 608 l 786 608 l 786 285 m 689 364 q 657 489 689 444 q 565 533 625 533 q 474 491 507 533 q 442 368 442 449 l 442 325 q 474 201 442 243 q 565 160 507 160 q 656 202 624 160 q 689 328 689 244 l 689 364 z "},"A":{"ha":879,"x_min":58,"x_max":819,"o":"m 496 1044 l 819 0 l 708 0 l 626 275 l 249 275 l 168 0 l 58 0 l 385 1044 l 496 1044 m 275 367 l 601 367 l 439 922 l 275 367 z "},"B":{"ha":853,"x_min":146,"x_max":760,"o":"m 431 1042 q 655 969 579 1042 q 731 769 731 896 q 697 625 731 683 q 606 539 664 567 q 720 447 681 510 q 760 289 760 385 q 680 78 760 157 q 440 0 600 0 l 146 0 l 146 1042 l 431 1042 m 249 92 l 440 92 q 601 144 544 92 q 657 290 657 196 q 605 437 657 386 q 447 488 553 488 l 249 488 l 249 92 m 249 578 l 444 578 q 583 627 536 578 q 629 764 629 676 q 578 903 629 856 q 429 950 526 950 l 249 950 l 249 578 z "},"C":{"ha":844,"x_min":93,"x_max":751,"o":"m 647 683 l 647 714 q 593 899 647 831 q 431 967 539 967 q 256 877 317 967 q 196 622 196 788 l 196 418 q 426 75 196 75 q 592 143 533 75 q 650 333 650 211 l 650 364 l 751 364 l 751 333 q 730 190 751 254 q 667 79 708 125 q 567 8 626 33 q 431 -18 507 -18 q 178 90 263 -18 q 93 431 93 197 l 93 607 q 178 942 93 825 q 431 1060 264 1060 q 569 1035 510 1060 q 668 964 628 1010 q 728 855 708 918 q 749 715 749 792 l 749 683 l 647 683 z "},"D":{"ha":875,"x_min":146,"x_max":781,"o":"m 399 1042 q 679 940 578 1042 q 781 619 781 839 l 781 422 q 680 103 781 206 q 399 0 579 0 l 146 0 l 146 1042 l 399 1042 m 393 93 q 601 169 525 93 q 678 414 678 246 l 678 628 q 601 872 678 796 q 393 949 525 949 l 249 949 l 249 93 l 393 93 z "},"E":{"ha":814,"x_min":146,"x_max":717,"o":"m 688 1042 l 688 949 l 249 949 l 249 578 l 649 578 l 649 486 l 249 486 l 249 93 l 717 93 l 717 0 l 146 0 l 146 1042 l 688 1042 z "},"F":{"ha":779,"x_min":146,"x_max":688,"o":"m 688 1042 l 688 949 l 249 949 l 249 565 l 631 565 l 631 474 l 249 474 l 249 0 l 146 0 l 146 1042 l 688 1042 z "},"G":{"ha":867,"x_min":93,"x_max":749,"o":"m 749 522 l 749 0 l 661 0 l 661 118 q 567 17 628 53 q 422 -18 507 -18 q 176 91 258 -18 q 93 429 93 200 l 93 606 q 180 943 93 826 q 435 1060 267 1060 q 566 1037 508 1060 q 663 972 624 1014 q 724 872 703 931 q 744 743 744 814 l 744 713 l 643 713 l 643 736 q 589 904 643 842 q 431 967 535 967 q 256 878 315 967 q 196 621 196 790 l 196 419 q 429 75 196 75 q 590 142 533 75 q 647 332 647 210 l 647 431 l 451 431 l 451 522 l 749 522 z "},"H":{"ha":938,"x_min":146,"x_max":792,"o":"m 249 1042 l 249 571 l 689 571 l 689 1042 l 792 1042 l 792 0 l 689 0 l 689 478 l 249 478 l 249 0 l 146 0 l 146 1042 l 249 1042 z "},"I":{"ha":394,"x_min":146,"x_max":249,"o":"m 249 1042 l 249 0 l 146 0 l 146 1042 l 249 1042 z "},"J":{"ha":557,"x_min":72,"x_max":419,"o":"m 419 1042 l 419 299 q 350 58 419 135 q 154 -18 281 -18 q 112 -17 132 -18 q 72 -12 92 -15 l 72 81 q 144 76 111 76 q 270 128 222 76 q 318 304 318 181 l 318 1042 l 419 1042 z "},"K":{"ha":886,"x_min":146,"x_max":824,"o":"m 699 0 l 403 515 l 249 301 l 249 0 l 146 0 l 146 1042 l 249 1042 l 249 451 l 660 1042 l 781 1042 l 471 599 l 824 0 l 699 0 z "},"L":{"ha":776,"x_min":146,"x_max":700,"o":"m 249 1042 l 249 93 l 700 93 l 700 0 l 146 0 l 146 1042 l 249 1042 z "},"M":{"ha":1113,"x_min":146,"x_max":967,"o":"m 283 1042 l 557 161 l 828 1042 l 967 1042 l 967 0 l 867 0 l 867 853 l 604 0 l 511 0 l 246 853 l 246 0 l 146 0 l 146 1042 l 283 1042 z "},"N":{"ha":935,"x_min":146,"x_max":789,"o":"m 789 1042 l 789 0 l 681 0 l 244 849 l 244 0 l 146 0 l 146 1042 l 251 1042 l 690 188 l 690 1042 l 789 1042 z "},"O":{"ha":881,"x_min":94,"x_max":786,"o":"m 440 1060 q 699 947 611 1060 q 786 615 786 835 l 786 426 q 695 93 786 204 q 440 -18 604 -18 q 182 92 269 -18 q 94 426 94 203 l 94 615 q 186 949 94 838 q 440 1060 278 1060 m 440 967 q 260 878 322 967 q 197 625 197 790 l 197 415 q 259 161 197 247 q 440 75 321 75 q 622 163 560 75 q 683 415 683 250 l 683 625 q 622 880 683 793 q 440 967 561 967 z "},"P":{"ha":840,"x_min":146,"x_max":764,"o":"m 400 1042 q 669 953 574 1042 q 764 701 764 865 q 738 556 764 619 q 663 449 711 492 q 549 383 615 406 q 400 361 482 361 l 249 361 l 249 0 l 146 0 l 146 1042 l 400 1042 m 249 454 l 396 454 q 591 517 519 454 q 663 701 663 579 q 592 886 663 824 q 396 949 521 949 l 249 949 l 249 454 z "},"Q":{"ha":881,"x_min":94,"x_max":797,"o":"m 440 1060 q 699 947 611 1060 q 786 615 786 835 l 786 426 q 686 83 786 199 l 797 -42 l 729 -104 l 615 25 q 440 -18 540 -18 q 182 92 269 -18 q 94 426 94 203 l 94 615 q 186 949 94 838 q 440 1060 278 1060 m 490 308 l 619 161 q 683 415 683 249 l 683 625 q 622 880 683 793 q 440 967 561 967 q 260 878 322 967 q 197 625 197 790 l 197 415 q 259 161 197 247 q 440 75 321 75 q 550 100 501 75 l 422 244 l 490 308 z "},"R":{"ha":856,"x_min":146,"x_max":786,"o":"m 668 0 l 468 396 q 401 392 436 392 l 249 392 l 249 0 l 146 0 l 146 1042 l 401 1042 q 664 957 572 1042 q 756 718 756 872 q 706 533 756 610 q 565 421 656 457 l 786 0 l 668 0 m 249 485 l 397 485 q 584 545 515 485 q 653 718 653 606 q 586 889 653 829 q 397 949 519 949 l 249 949 l 249 485 z "},"S":{"ha":842,"x_min":97,"x_max":744,"o":"m 621 750 l 621 775 q 568 915 621 863 q 418 968 515 968 q 278 916 326 968 q 229 781 229 864 q 273 644 229 696 q 433 579 317 593 q 669 485 593 560 q 744 279 744 410 q 724 159 744 214 q 664 65 704 104 q 565 3 624 25 q 429 -18 506 -18 q 183 65 269 -18 q 97 288 97 149 l 97 310 l 200 310 l 200 283 q 260 132 200 190 q 429 74 319 74 q 588 127 533 74 q 642 276 642 181 q 591 418 642 367 q 413 483 540 469 q 193 576 260 500 q 126 776 126 653 q 147 890 126 838 q 204 979 167 942 q 296 1038 242 1017 q 419 1060 350 1060 q 644 982 564 1060 q 724 771 724 904 l 724 750 l 621 750 z "},"T":{"ha":769,"x_min":65,"x_max":703,"o":"m 703 1042 l 703 949 l 436 949 l 436 0 l 333 0 l 333 949 l 65 949 l 65 1042 l 703 1042 z "},"U":{"ha":921,"x_min":135,"x_max":786,"o":"m 238 1042 l 238 379 q 293 151 238 228 q 460 75 349 75 q 683 379 683 75 l 683 1042 l 786 1042 l 786 376 q 706 87 786 192 q 460 -18 626 -18 q 214 85 293 -18 q 135 376 135 189 l 135 1042 l 238 1042 z "},"V":{"ha":836,"x_min":56,"x_max":781,"o":"m 168 1042 l 418 149 l 668 1042 l 781 1042 l 469 -3 l 363 -3 l 56 1042 l 168 1042 z "},"W":{"ha":1169,"x_min":56,"x_max":1113,"o":"m 168 1042 l 349 167 l 539 1042 l 633 1042 l 824 167 l 1003 1042 l 1113 1042 l 876 -3 l 763 -3 l 583 829 l 404 -3 l 290 -3 l 56 1042 l 168 1042 z "},"X":{"ha":840,"x_min":60,"x_max":781,"o":"m 206 1042 l 422 601 l 638 1042 l 756 1042 l 496 529 l 781 0 l 658 0 l 418 465 l 179 0 l 60 0 l 349 536 l 88 1042 l 206 1042 z "},"Y":{"ha":826,"x_min":56,"x_max":771,"o":"m 175 1042 l 414 471 l 654 1042 l 771 1042 l 464 356 l 464 0 l 361 0 l 361 356 l 56 1042 l 175 1042 z "},"Z":{"ha":810,"x_min":93,"x_max":717,"o":"m 699 1042 l 699 964 l 214 93 l 717 93 l 717 0 l 93 0 l 93 76 l 579 949 l 111 949 l 111 1042 l 699 1042 z "},"[":{"ha":372,"x_min":90,"x_max":372,"o":"m 372 1042 l 372 950 l 190 950 l 190 -256 l 372 -256 l 372 -347 l 90 -347 l 90 1042 l 372 1042 z "},"\\":{"ha":413,"x_min":-37,"x_max":490,"o":"m 64 1085 l 490 -376 l 389 -376 l -37 1085 l 64 1085 z "},"]":{"ha":372,"x_min":0,"x_max":282,"o":"m 0 -347 l 0 -256 l 182 -256 l 182 950 l 0 950 l 0 1042 l 282 1042 l 282 -347 l 0 -347 z "},"^":{"ha":621,"x_min":56,"x_max":565,"o":"m 325 1050 l 565 761 l 565 738 l 465 738 l 310 931 l 154 738 l 56 738 l 56 761 l 294 1050 l 325 1050 z "},"_":{"ha":528,"x_min":28,"x_max":500,"o":"m 500 -44 l 500 -135 l 28 -135 l 28 -44 l 500 -44 z "},"`":{"ha":314,"x_min":32,"x_max":251,"o":"m 136 1042 l 251 806 l 150 806 l 32 1042 l 136 1042 z "},"a":{"ha":718,"x_min":81,"x_max":674,"o":"m 106 479 q 123 572 106 529 q 172 644 140 614 q 249 691 204 674 q 351 708 294 708 q 524 649 465 708 q 583 483 583 589 l 583 163 q 600 97 583 114 q 649 79 617 79 l 674 79 l 674 -1 q 644 -8 660 -6 q 611 -11 628 -11 q 540 18 567 -11 q 510 106 514 47 q 426 17 482 49 q 294 -14 369 -14 q 138 38 194 -14 q 81 182 81 90 q 142 333 81 278 q 325 397 203 388 q 447 428 404 403 q 489 503 489 453 q 456 588 489 556 q 351 619 422 619 q 242 581 281 619 q 203 479 203 543 l 106 479 m 490 376 q 430 335 469 351 q 329 314 390 318 q 213 274 247 307 q 178 186 178 240 q 212 103 178 133 q 308 74 246 74 q 440 124 389 74 q 490 265 490 174 l 490 376 z "},"b":{"ha":722,"x_min":104,"x_max":639,"o":"m 203 1042 l 203 603 q 278 680 232 651 q 389 708 324 708 q 639 392 639 708 l 639 301 q 574 67 639 149 q 383 -14 510 -14 q 265 14 311 -14 q 192 94 218 42 l 192 0 l 104 0 l 104 1042 l 203 1042 m 201 304 q 247 133 201 190 q 371 75 292 75 q 540 303 540 75 l 540 394 q 499 566 540 513 q 374 619 458 619 q 247 558 293 619 q 201 386 201 496 l 201 304 z "},"c":{"ha":679,"x_min":83,"x_max":596,"o":"m 496 440 l 496 463 q 458 576 496 533 q 347 619 419 619 q 225 560 268 619 q 182 389 182 501 l 182 304 q 226 130 182 185 q 344 75 269 75 q 460 118 421 75 q 499 232 499 161 l 499 253 l 596 253 l 596 232 q 530 53 596 119 q 342 -14 464 -14 q 151 64 219 -14 q 83 304 83 142 l 83 388 q 151 622 83 535 q 351 708 219 708 q 455 690 410 708 q 531 640 500 672 q 578 564 563 608 q 594 467 594 519 l 594 440 l 496 440 z "},"d":{"ha":726,"x_min":83,"x_max":622,"o":"m 535 0 l 535 99 q 455 15 504 44 q 335 -14 406 -14 q 148 64 213 -14 q 83 301 83 142 l 83 392 q 151 628 83 547 q 346 708 219 708 q 456 683 411 708 q 524 617 501 657 l 524 1042 l 622 1042 l 622 0 l 535 0 m 525 386 q 356 619 525 619 q 227 564 272 619 q 182 390 182 508 l 182 303 q 225 128 182 182 q 350 75 268 75 q 476 134 428 75 q 525 307 525 193 l 525 386 z "},"e":{"ha":694,"x_min":83,"x_max":611,"o":"m 182 315 l 182 301 q 226 132 182 189 q 350 75 271 75 q 466 110 425 75 q 518 211 507 146 l 611 211 q 531 46 597 106 q 349 -14 465 -14 q 156 68 228 -14 q 83 310 83 150 l 83 381 q 101 513 83 453 q 153 617 119 574 q 238 685 188 661 q 351 708 288 708 q 544 625 478 708 q 611 396 611 542 l 611 315 l 182 315 m 353 619 q 224 561 267 619 q 182 400 182 503 l 513 400 l 513 411 q 472 565 513 511 q 353 619 432 619 z "},"f":{"ha":461,"x_min":56,"x_max":408,"o":"m 160 694 l 160 810 q 217 989 160 922 q 382 1056 274 1056 l 408 1056 l 408 964 l 389 964 q 292 925 326 964 q 258 810 258 886 l 258 694 l 406 694 l 406 604 l 258 604 l 258 0 l 160 0 l 160 604 l 56 604 l 56 694 l 160 694 z "},"g":{"ha":715,"x_min":58,"x_max":650,"o":"m 650 622 l 514 622 q 563 553 546 594 q 579 461 579 511 l 579 449 q 562 349 579 394 q 513 272 544 304 q 438 222 482 239 q 339 204 393 204 q 303 206 319 204 q 269 211 286 208 q 244 181 253 200 q 236 138 236 161 q 257 79 236 101 q 315 57 278 57 l 390 57 q 569 1 508 57 q 629 -150 629 -54 q 608 -250 629 -204 q 547 -329 586 -296 q 450 -381 507 -362 q 322 -400 393 -400 q 125 -339 192 -400 q 58 -178 58 -278 q 97 -49 58 -103 q 197 22 135 4 q 143 135 143 51 q 156 197 143 168 q 192 246 168 226 q 97 449 97 310 l 97 461 q 114 559 97 514 q 162 638 131 604 q 238 690 193 671 q 339 708 283 708 l 650 708 l 650 622 m 311 -33 q 192 -72 229 -33 q 154 -172 154 -110 q 198 -274 154 -237 q 325 -311 242 -311 q 479 -267 425 -311 q 533 -150 533 -224 q 496 -65 533 -96 q 388 -33 458 -33 l 311 -33 m 339 621 q 233 578 272 621 q 193 461 193 535 l 193 449 q 231 330 193 369 q 339 290 269 290 q 442 332 401 290 q 483 449 483 374 l 483 461 q 447 578 483 536 q 339 621 410 621 z "},"h":{"ha":743,"x_min":104,"x_max":646,"o":"m 203 1042 l 203 594 q 283 678 233 649 q 400 708 333 708 q 583 635 521 708 q 646 418 646 561 l 646 0 l 547 0 l 547 415 q 507 569 547 519 q 386 619 467 619 q 252 558 301 619 q 203 397 203 496 l 203 0 l 104 0 l 104 1042 l 203 1042 z "},"i":{"ha":307,"x_min":71,"x_max":235,"o":"m 203 694 l 203 0 l 104 0 l 104 694 l 203 694 m 153 1053 q 212 1030 189 1053 q 235 971 235 1007 q 212 912 235 935 q 153 889 189 889 q 94 912 118 889 q 71 971 71 935 q 94 1030 71 1007 q 153 1053 118 1053 z "},"j":{"ha":307,"x_min":-46,"x_max":235,"o":"m 203 694 l 203 -112 q 149 -288 203 -222 q -10 -354 94 -354 l -46 -354 l -46 -262 l -14 -262 q 73 -224 42 -262 q 104 -114 104 -186 l 104 694 l 203 694 m 153 1053 q 212 1030 189 1053 q 235 971 235 1007 q 212 912 235 935 q 153 889 189 889 q 94 912 118 889 q 71 971 71 935 q 94 1030 71 1007 q 153 1053 118 1053 z "},"k":{"ha":686,"x_min":104,"x_max":644,"o":"m 526 0 l 317 326 l 203 179 l 203 0 l 104 0 l 104 1042 l 203 1042 l 203 310 l 494 694 l 614 694 l 381 396 l 644 0 l 526 0 z "},"l":{"ha":307,"x_min":104,"x_max":203,"o":"m 203 1042 l 203 0 l 104 0 l 104 1042 l 203 1042 z "},"m":{"ha":1074,"x_min":104,"x_max":976,"o":"m 192 694 l 192 588 q 263 677 215 646 q 376 708 310 708 q 492 674 447 708 q 557 579 538 639 q 630 672 579 636 q 751 708 681 708 q 920 640 864 708 q 976 440 976 571 l 976 0 l 878 0 l 878 438 q 842 576 878 532 q 739 619 807 619 q 634 572 676 619 q 592 429 592 525 l 592 0 l 493 0 l 493 438 q 356 619 493 619 q 242 562 281 619 q 203 408 203 504 l 203 0 l 104 0 l 104 694 l 192 694 z "},"n":{"ha":743,"x_min":104,"x_max":646,"o":"m 193 694 l 193 574 q 273 673 222 638 q 399 708 324 708 q 581 637 515 708 q 646 424 646 565 l 646 0 l 547 0 l 547 424 q 383 619 547 619 q 306 603 339 619 q 249 556 272 586 q 215 484 226 525 q 203 393 203 443 l 203 0 l 104 0 l 104 694 l 193 694 z "},"o":{"ha":719,"x_min":83,"x_max":636,"o":"m 360 708 q 564 623 492 708 q 636 381 636 538 l 636 313 q 564 73 636 160 q 360 -14 492 -14 q 156 69 228 -14 q 83 313 83 151 l 83 381 q 156 620 83 532 q 360 708 228 708 m 360 619 q 228 558 274 619 q 182 382 182 496 l 182 311 q 228 132 182 189 q 360 75 275 75 q 490 134 443 75 q 538 311 538 193 l 538 382 q 360 619 538 619 z "},"p":{"ha":726,"x_min":104,"x_max":643,"o":"m 192 694 l 192 593 q 271 678 221 647 q 392 708 321 708 q 578 630 514 708 q 643 392 643 551 l 643 301 q 575 65 643 144 q 381 -14 507 -14 q 272 10 315 -14 q 203 78 229 33 l 203 -347 l 104 -347 l 104 694 l 192 694 m 201 307 q 245 133 201 190 q 371 75 289 75 q 499 131 454 75 q 544 303 544 186 l 544 390 q 501 565 544 511 q 376 619 458 619 q 249 560 297 619 q 201 386 201 500 l 201 307 z "},"q":{"ha":722,"x_min":83,"x_max":618,"o":"m 618 694 l 618 -347 l 519 -347 l 519 85 q 444 12 490 38 q 333 -14 397 -14 q 146 62 208 -14 q 83 301 83 138 l 83 392 q 148 626 83 544 q 339 708 213 708 q 459 679 413 708 q 531 600 506 650 l 531 694 l 618 694 m 521 390 q 478 562 521 504 q 351 619 435 619 q 225 561 268 619 q 182 390 182 503 l 182 300 q 223 128 182 182 q 349 75 264 75 q 475 137 429 75 q 521 307 521 199 l 521 390 z "},"r":{"ha":482,"x_min":104,"x_max":419,"o":"m 193 694 l 193 578 q 271 671 221 638 q 390 704 321 704 l 419 704 l 419 611 l 389 611 q 252 549 301 611 q 203 386 203 486 l 203 0 l 104 0 l 104 694 l 193 694 z "},"s":{"ha":656,"x_min":69,"x_max":583,"o":"m 471 493 q 431 588 468 554 q 322 621 393 621 q 226 592 260 621 q 192 510 192 563 q 226 429 192 457 q 339 396 260 401 q 525 335 467 388 q 583 190 583 282 q 515 40 583 94 q 333 -14 447 -14 q 148 41 214 -14 q 69 203 82 96 l 174 203 q 222 107 181 140 q 333 74 263 74 q 446 103 406 74 q 486 188 486 132 q 451 272 486 242 q 321 308 415 301 q 94 510 94 324 q 155 653 94 597 q 322 708 215 708 q 503 649 440 708 q 569 493 565 590 l 471 493 z "},"t":{"ha":514,"x_min":63,"x_max":443,"o":"m 97 694 q 160 719 139 694 q 182 799 182 743 l 182 878 l 274 878 l 274 694 l 433 694 l 433 604 l 274 604 l 274 211 q 301 109 274 140 q 376 78 328 78 q 410 79 393 78 q 443 83 426 81 l 443 -1 q 360 -14 406 -14 q 221 38 267 -14 q 175 208 175 90 l 175 604 l 63 604 l 63 694 l 97 694 z "},"u":{"ha":732,"x_min":97,"x_max":628,"o":"m 196 694 l 196 286 q 236 127 196 179 q 353 75 276 75 q 481 135 432 75 q 529 299 529 194 l 529 694 l 628 694 l 628 0 l 539 0 l 539 117 q 460 20 513 54 q 336 -14 407 -14 q 158 59 219 -14 q 97 286 97 132 l 97 694 l 196 694 z "},"v":{"ha":688,"x_min":56,"x_max":632,"o":"m 164 694 l 344 110 l 525 694 l 632 694 l 394 -1 l 292 -1 l 56 694 l 164 694 z "},"w":{"ha":932,"x_min":56,"x_max":876,"o":"m 160 694 l 290 121 l 424 694 l 508 694 l 646 121 l 775 694 l 876 694 l 699 -1 l 590 -1 l 465 518 l 343 -1 l 235 -1 l 56 694 l 160 694 z "},"x":{"ha":701,"x_min":63,"x_max":639,"o":"m 197 694 l 351 407 l 508 694 l 622 694 l 422 354 l 639 0 l 522 0 l 349 301 l 178 0 l 63 0 l 278 354 l 83 694 l 197 694 z "},"y":{"ha":697,"x_min":56,"x_max":642,"o":"m 164 694 l 367 104 l 535 694 l 642 694 l 397 -85 q 306 -269 356 -217 q 183 -321 256 -321 q 124 -317 150 -321 l 124 -222 q 149 -224 136 -224 q 174 -224 163 -224 q 245 -192 215 -224 q 300 -74 275 -160 l 317 -19 l 56 694 l 164 694 z "},"z":{"ha":664,"x_min":86,"x_max":578,"o":"m 572 694 l 572 621 l 208 89 l 578 89 l 578 0 l 86 0 l 86 74 l 450 606 l 106 606 l 106 694 l 572 694 z "},"{":{"ha":375,"x_min":21,"x_max":375,"o":"m 375 950 l 333 950 q 261 919 288 950 q 235 831 235 889 l 235 488 q 217 399 235 435 q 167 347 199 363 q 235 207 235 313 l 235 -137 q 261 -226 235 -196 q 333 -256 288 -256 l 375 -256 l 375 -347 l 326 -347 q 182 -289 231 -347 q 133 -136 133 -231 l 133 203 q 113 276 133 251 q 60 301 93 301 l 21 301 l 21 393 l 60 393 q 113 418 93 393 q 133 492 133 443 l 133 829 q 182 983 133 924 q 326 1042 231 1042 l 375 1042 l 375 950 z "},"|":{"ha":343,"x_min":122,"x_max":221,"o":"m 221 1042 l 221 -347 l 122 -347 l 122 1042 l 221 1042 z "},"}":{"ha":375,"x_min":0,"x_max":354,"o":"m 0 -256 l 42 -256 q 114 -226 88 -256 q 140 -137 140 -196 l 140 207 q 208 347 140 313 q 140 488 140 379 l 140 831 q 113 919 140 889 q 42 950 86 950 l 0 950 l 0 1042 l 49 1042 q 192 983 143 1042 q 240 829 240 925 l 240 492 q 261 418 240 443 q 315 393 282 393 l 354 393 l 354 301 l 315 301 q 261 276 282 301 q 240 203 240 251 l 240 -136 q 192 -289 240 -231 q 49 -347 143 -347 l 0 -347 l 0 -256 z "},"~":{"ha":649,"x_min":83,"x_max":565,"o":"m 565 426 q 528 304 565 350 q 415 258 490 258 q 352 272 375 258 q 313 303 329 286 q 279 333 296 319 q 236 347 263 347 q 176 271 176 347 l 83 271 q 120 393 83 347 q 232 439 157 439 q 295 425 272 439 q 335 394 318 411 q 369 364 353 378 q 413 350 386 350 q 472 426 472 350 l 565 426 z "},"¡":{"ha":324,"x_min":79,"x_max":244,"o":"m 113 -33 l 113 772 l 213 772 l 213 -33 l 113 -33 m 163 885 q 103 908 126 885 q 79 967 79 931 q 103 1026 79 1003 q 163 1050 126 1050 q 222 1026 199 1050 q 244 967 244 1003 q 222 908 244 931 q 163 885 199 885 z "},"¤":{"ha":669,"x_min":65,"x_max":603,"o":"m 333 776 q 460 742 403 776 l 536 818 l 603 751 l 525 674 q 553 610 543 646 q 563 532 563 574 q 552 453 563 489 q 522 388 542 417 l 603 308 l 536 242 l 457 321 q 333 286 400 286 q 208 318 264 286 l 132 242 l 65 308 l 142 385 q 104 532 104 446 q 142 674 104 613 l 65 751 l 132 818 l 208 740 q 266 767 235 757 q 333 776 297 776 m 333 692 q 235 652 272 692 q 197 532 197 613 q 236 411 197 451 q 333 371 275 371 q 432 411 394 371 q 469 532 469 451 q 431 652 469 613 q 333 692 393 692 z "},"¥":{"ha":828,"x_min":57,"x_max":771,"o":"m 307 479 l 57 1042 l 172 1042 l 413 478 l 656 1042 l 771 1042 l 515 479 l 663 479 l 663 389 l 165 389 l 165 479 l 307 479 m 360 175 l 179 175 l 179 265 l 649 265 l 649 175 l 463 175 l 463 0 l 360 0 l 360 175 z "},"¦":{"ha":343,"x_min":122,"x_max":221,"o":"m 221 292 l 221 -347 l 122 -347 l 122 292 l 221 292 m 221 1042 l 221 403 l 122 403 l 122 1042 l 221 1042 z "},"§":{"ha":743,"x_min":83,"x_max":660,"o":"m 660 500 q 633 373 660 429 q 558 281 606 317 q 608 133 608 222 q 592 47 608 88 q 544 -24 575 7 q 467 -72 513 -54 q 361 -89 421 -89 q 255 -73 303 -89 q 173 -26 207 -57 q 120 48 139 4 q 101 147 101 92 l 199 147 q 242 40 199 79 q 361 1 286 1 q 473 38 435 1 q 511 135 511 75 q 475 231 511 194 q 343 283 439 268 q 149 368 215 301 q 83 544 83 435 q 111 670 83 615 q 185 761 139 725 q 139 903 139 817 q 154 992 139 951 q 199 1063 169 1033 q 272 1110 229 1093 q 372 1126 315 1126 q 553 1060 490 1126 q 617 888 617 993 l 521 888 q 483 997 521 958 q 374 1036 446 1036 q 269 1000 303 1036 q 236 906 236 964 q 272 809 236 844 q 397 758 308 774 q 597 667 533 735 q 660 500 660 600 m 376 667 q 254 704 304 676 q 201 638 219 678 q 182 550 182 599 q 226 431 182 472 q 363 374 271 389 q 488 336 435 361 q 541 403 522 364 q 560 494 560 443 q 519 608 560 564 q 376 667 478 651 z "},"¨":{"ha":535,"x_min":47,"x_max":488,"o":"m 125 1035 q 180 1013 158 1035 q 201 958 201 992 q 180 902 201 924 q 125 881 158 881 q 69 902 90 881 q 47 958 47 924 q 69 1013 47 992 q 125 1035 90 1035 m 410 1035 q 466 1013 444 1035 q 488 958 488 992 q 466 902 488 924 q 410 881 444 881 q 354 902 376 881 q 332 958 332 924 q 354 1013 332 992 q 410 1035 376 1035 z "},"©":{"ha":1164,"x_min":76,"x_max":1088,"o":"m 703 608 q 670 706 703 671 q 579 742 638 742 q 479 694 513 742 q 446 558 446 646 l 446 494 q 479 360 446 407 q 579 313 513 313 q 671 349 638 313 q 704 446 704 386 l 799 446 q 741 288 799 350 q 579 226 683 226 q 410 297 471 226 q 349 501 349 367 l 349 553 q 408 753 349 678 q 579 829 468 829 q 739 768 681 829 q 797 608 797 707 l 703 608 m 582 1096 q 796 1053 701 1096 q 955 933 890 1010 q 1053 753 1019 857 q 1088 528 1088 649 q 1053 301 1088 406 q 955 121 1019 197 q 796 1 890 44 q 582 -42 701 -42 q 370 1 464 -42 q 211 121 276 44 q 111 301 146 197 q 76 528 76 406 q 111 753 76 649 q 211 933 146 857 q 370 1053 276 1010 q 582 1096 464 1096 m 582 1004 q 410 969 485 1004 q 283 872 335 935 q 203 722 231 810 q 176 528 176 635 q 203 333 176 421 q 283 182 231 244 q 410 85 335 119 q 582 50 486 50 q 753 85 678 50 q 881 182 829 119 q 959 333 932 244 q 986 528 986 421 q 959 723 986 635 q 881 874 932 811 q 753 970 829 936 q 582 1004 678 1004 z "},"«":{"ha":613,"x_min":60,"x_max":538,"o":"m 60 364 l 213 564 l 308 564 l 165 347 l 308 131 l 213 131 l 60 329 l 60 364 m 299 364 l 442 578 l 538 578 l 403 347 l 538 117 l 442 117 l 299 329 l 299 364 z "},"¬":{"ha":651,"x_min":65,"x_max":571,"o":"m 571 694 l 571 319 l 474 319 l 474 601 l 65 601 l 65 694 l 571 694 z "},"­":{"ha":593,"x_min":90,"x_max":503,"o":"m 503 410 l 503 319 l 90 319 l 90 410 l 503 410 z "},"®":{"ha":765,"x_min":63,"x_max":703,"o":"m 63 729 q 85 866 63 803 q 149 975 107 929 q 249 1047 190 1021 q 382 1074 308 1074 q 515 1047 456 1074 q 615 975 574 1021 q 680 866 657 929 q 703 729 703 803 q 681 591 703 654 q 617 482 658 528 q 515 410 575 436 q 382 385 456 385 q 249 410 308 385 q 149 481 190 435 q 85 590 107 526 q 63 729 63 653 m 390 894 q 486 864 453 894 q 519 785 519 833 q 460 692 519 718 l 524 574 l 446 574 l 396 674 l 336 674 l 336 574 l 268 574 l 268 894 l 390 894 m 336 732 l 393 732 q 450 782 450 732 q 392 832 450 832 l 336 832 l 336 732 m 624 729 q 559 928 624 856 q 382 1000 494 1000 q 203 928 267 1000 q 140 729 140 856 q 204 530 140 601 q 382 458 268 458 q 560 531 497 458 q 624 729 624 603 z "},"¯":{"ha":518,"x_min":58,"x_max":458,"o":"m 458 976 l 458 886 l 58 886 l 58 976 l 458 976 z "},"°":{"ha":525,"x_min":51,"x_max":472,"o":"m 263 1060 q 415 998 357 1060 q 472 832 472 936 q 457 740 472 782 q 414 668 442 699 q 348 621 386 638 q 263 604 310 604 q 176 620 215 604 q 110 666 138 636 q 67 738 82 696 q 51 832 51 779 q 67 924 51 882 q 110 996 82 965 q 176 1043 138 1026 q 263 1060 215 1060 m 263 976 q 176 938 208 976 q 143 832 143 900 q 176 726 143 764 q 263 688 210 688 q 349 726 317 688 q 381 832 381 764 q 348 938 381 900 q 263 976 315 976 z "},"±":{"ha":708,"x_min":79,"x_max":628,"o":"m 604 222 l 604 131 l 104 131 l 104 222 l 604 222 m 401 963 l 401 708 l 628 708 l 628 617 l 401 617 l 401 363 l 306 363 l 306 617 l 79 617 l 79 708 l 306 708 l 306 963 l 401 963 z "},"´":{"ha":296,"x_min":54,"x_max":274,"o":"m 274 1042 l 156 806 l 54 806 l 169 1042 l 274 1042 z "},"¶":{"ha":525,"x_min":53,"x_max":479,"o":"m 136 -240 q 253 -146 214 -207 q 292 24 292 -85 l 292 364 q 213 335 264 335 q 99 381 144 335 q 53 514 53 426 q 67 587 53 553 q 106 647 81 621 q 166 687 131 672 q 246 701 201 701 l 479 701 l 479 618 l 382 613 l 389 135 l 389 1 q 340 -203 389 -117 q 182 -331 290 -289 l 136 -240 m 243 611 q 174 585 199 611 q 149 514 149 558 q 169 443 149 467 q 224 419 190 419 q 273 438 254 419 q 292 493 292 457 l 292 611 l 243 611 z "},"·":{"ha":303,"x_min":68,"x_max":233,"o":"m 151 444 q 210 422 188 444 q 233 363 233 399 q 210 303 233 326 q 151 279 188 279 q 92 303 115 279 q 68 363 68 326 q 92 422 68 399 q 151 444 115 444 z "},"¸":{"ha":339,"x_min":54,"x_max":279,"o":"m 124 -79 q 238 -117 197 -79 q 279 -225 279 -156 q 231 -351 279 -293 q 75 -437 183 -410 l 54 -354 q 157 -301 126 -335 q 188 -226 188 -268 q 119 -161 188 -161 l 79 -161 l 79 -79 l 124 -79 z "},"»":{"ha":613,"x_min":74,"x_max":551,"o":"m 551 329 l 400 131 l 304 131 l 447 347 l 304 564 l 400 564 l 551 364 l 551 329 m 314 329 l 169 117 l 74 117 l 208 347 l 74 578 l 169 578 l 314 364 l 314 329 z "},"¿":{"ha":725,"x_min":75,"x_max":667,"o":"m 428 772 l 428 710 q 395 571 428 631 q 290 467 363 511 q 207 379 236 431 q 178 251 178 328 q 227 99 178 151 q 371 46 276 46 q 516 102 467 46 q 565 250 565 158 l 565 282 l 667 282 l 667 243 q 647 127 667 181 q 590 35 628 74 q 498 -25 553 -3 q 371 -47 443 -47 q 151 32 228 -47 q 75 247 75 111 q 114 422 75 351 q 232 542 153 493 q 306 619 285 574 q 328 717 328 664 l 328 772 l 428 772 m 376 885 q 317 908 340 885 q 293 967 293 931 q 317 1026 293 1003 q 376 1050 340 1050 q 435 1026 413 1050 q 458 967 458 1003 q 435 908 458 931 q 376 885 413 885 z "},"×":{"ha":701,"x_min":100,"x_max":601,"o":"m 165 792 l 350 593 l 536 792 l 601 726 l 414 528 l 601 332 l 536 267 l 350 465 l 165 267 l 100 332 l 286 529 l 100 726 l 165 792 z "},"Ø":{"ha":881,"x_min":94,"x_max":786,"o":"m 440 1060 q 621 1014 546 1060 l 676 1129 l 786 1129 l 699 946 q 786 615 786 833 l 786 426 q 695 93 786 204 q 440 -18 604 -18 q 260 25 335 -18 l 206 -87 l 94 -87 l 181 94 q 94 426 94 206 l 94 615 q 186 949 94 838 q 440 1060 278 1060 m 440 967 q 260 878 322 967 q 197 625 197 790 l 197 415 q 235 206 197 286 l 578 924 q 440 967 522 967 m 683 625 q 646 835 683 753 l 303 117 q 440 75 358 75 q 622 163 560 75 q 683 415 683 250 l 683 625 z "},"Þ":{"ha":826,"x_min":146,"x_max":746,"o":"m 249 1042 l 249 865 l 393 865 q 653 774 561 865 q 746 522 746 683 q 653 273 746 361 q 393 185 560 185 l 249 185 l 249 0 l 146 0 l 146 1042 l 249 1042 m 249 278 l 389 278 q 574 339 504 278 q 643 522 643 400 q 574 710 643 647 q 389 772 506 772 l 249 772 l 249 278 z "},"ß":{"ha":788,"x_min":104,"x_max":718,"o":"m 104 806 q 165 988 104 919 q 335 1056 226 1056 q 499 997 439 1056 q 558 840 558 938 q 538 738 558 776 q 493 671 518 700 q 448 613 468 642 q 428 539 428 585 q 533 419 428 446 q 718 199 718 371 q 658 46 718 106 q 483 -14 599 -14 q 283 85 356 -14 l 354 146 q 489 75 404 75 q 584 107 549 75 q 619 196 619 139 q 591 282 619 249 q 494 332 563 315 q 371 403 411 351 q 331 531 331 454 q 351 625 331 589 q 395 691 371 661 q 440 753 419 721 q 460 839 460 786 q 428 931 460 897 q 333 965 396 965 q 237 924 271 965 q 203 806 203 882 l 203 0 l 104 0 l 104 806 z "},"á":{"ha":718,"x_min":81,"x_max":674,"o":"m 106 479 q 123 572 106 529 q 172 644 140 614 q 249 691 204 674 q 351 708 294 708 q 524 649 465 708 q 583 483 583 589 l 583 163 q 600 97 583 114 q 649 79 617 79 l 674 79 l 674 -1 q 644 -8 660 -6 q 611 -11 628 -11 q 540 18 567 -11 q 510 106 514 47 q 426 17 482 49 q 294 -14 369 -14 q 138 38 194 -14 q 81 182 81 90 q 142 333 81 278 q 325 397 203 388 q 447 428 404 403 q 489 503 489 453 q 456 588 489 556 q 351 619 422 619 q 242 581 281 619 q 203 479 203 543 l 106 479 m 490 376 q 430 335 469 351 q 329 314 390 318 q 213 274 247 307 q 178 186 178 240 q 212 103 178 133 q 308 74 246 74 q 440 124 389 74 q 490 265 490 174 l 490 376 m 521 1042 l 403 806 l 301 806 l 417 1042 l 521 1042 z "},"æ":{"ha":1074,"x_min":81,"x_max":990,"o":"m 579 315 l 579 301 q 620 132 579 189 q 740 75 661 75 q 849 110 811 75 q 899 211 886 146 l 990 211 q 915 47 979 107 q 738 -14 850 -14 q 608 19 663 -14 q 528 113 554 51 q 437 19 494 53 q 292 -14 379 -14 q 136 39 192 -14 q 81 182 81 92 q 140 333 81 278 q 322 397 200 388 q 443 428 401 403 q 485 506 485 453 q 451 588 485 556 q 347 619 418 619 q 240 581 276 619 q 203 479 203 542 l 106 479 q 122 571 106 529 q 168 643 138 613 q 243 691 199 674 q 344 708 288 708 q 469 681 419 708 q 544 604 518 653 q 624 681 574 653 q 740 708 674 708 q 926 626 863 708 q 990 400 990 543 l 990 315 l 579 315 m 486 376 q 426 335 464 350 q 326 314 389 319 q 211 274 243 307 q 179 186 179 240 q 211 103 179 133 q 306 74 243 74 q 438 125 389 74 q 486 265 486 176 l 486 376 m 739 619 q 618 562 657 619 q 579 400 579 504 l 892 400 l 892 413 q 853 565 892 511 q 739 619 815 619 z "},"ð":{"ha":747,"x_min":90,"x_max":646,"o":"m 451 1074 l 385 946 q 505 857 456 904 q 585 752 554 810 q 631 624 617 694 q 646 469 646 554 l 646 326 q 572 70 646 154 q 365 -14 497 -14 q 163 67 235 -14 q 90 303 90 149 l 90 343 q 163 572 90 488 q 358 656 235 656 q 468 633 421 656 q 544 578 515 611 q 492 728 538 658 q 340 863 446 799 l 275 738 l 196 778 l 263 904 l 125 978 l 168 1061 l 306 989 l 372 1114 l 451 1074 m 547 350 q 500 510 547 454 q 365 567 453 567 q 233 508 278 567 q 189 343 189 449 l 189 303 q 235 133 189 192 q 365 75 281 75 q 502 135 457 75 q 547 299 547 194 l 547 350 z "},"÷":{"ha":639,"x_min":79,"x_max":560,"o":"m 319 881 q 380 856 356 881 q 404 794 404 832 q 380 733 404 757 q 319 710 356 710 q 258 733 283 710 q 233 794 233 757 q 258 856 233 832 q 319 881 283 881 m 560 571 l 560 479 l 79 479 l 79 571 l 560 571 m 319 342 q 380 317 356 342 q 404 256 404 293 q 380 194 404 218 q 319 171 356 171 q 258 194 283 171 q 233 256 233 218 q 258 317 233 293 q 319 342 283 342 z "},"ø":{"ha":719,"x_min":83,"x_max":636,"o":"m 165 58 q 83 313 83 143 l 83 381 q 102 516 83 456 q 156 619 121 576 q 243 685 192 663 q 360 708 294 708 q 425 701 394 708 q 482 683 456 694 l 526 769 l 622 769 l 553 633 q 636 381 636 547 l 636 313 q 564 73 636 160 q 360 -14 492 -14 q 294 -8 324 -14 q 236 8 264 -3 l 194 -75 l 97 -75 l 165 58 m 360 619 q 228 558 274 619 q 182 382 182 496 l 182 311 q 214 154 182 214 l 442 601 q 360 619 403 619 m 538 382 q 506 539 538 479 l 279 92 q 360 75 313 75 q 490 134 443 75 q 538 311 538 193 l 538 382 z "},"þ":{"ha":726,"x_min":104,"x_max":643,"o":"m 203 1042 l 203 610 q 280 681 232 654 q 392 708 328 708 q 578 630 514 708 q 643 392 643 551 l 643 301 q 574 66 643 146 q 383 -14 506 -14 q 274 10 318 -14 q 203 78 231 33 l 203 -347 l 104 -347 l 104 1042 l 203 1042 m 201 307 q 244 133 201 190 q 371 75 288 75 q 499 131 454 75 q 544 303 544 186 l 544 390 q 501 565 544 511 q 376 619 458 619 q 249 560 297 619 q 201 386 201 500 l 201 307 z "},"œ":{"ha":1128,"x_min":83,"x_max":1044,"o":"m 621 315 l 621 301 q 665 131 621 188 q 788 75 708 75 q 901 110 861 75 q 951 211 940 146 l 1044 211 q 966 47 1031 107 q 785 -14 901 -14 q 651 21 706 -14 q 568 118 596 56 q 483 20 540 54 q 350 -14 426 -14 q 151 69 219 -14 q 83 307 83 151 l 83 381 q 153 620 83 532 q 353 708 222 708 q 488 673 432 708 q 571 571 543 638 q 654 671 599 633 q 790 708 710 708 q 978 626 913 708 q 1044 400 1044 544 l 1044 315 l 621 315 m 353 619 q 225 558 268 619 q 182 382 182 496 l 182 311 q 226 132 182 189 q 353 75 269 75 q 480 134 435 75 q 525 311 525 193 l 525 382 q 353 619 525 619 m 789 619 q 663 563 706 619 q 621 400 621 506 l 946 400 l 946 413 q 906 565 946 511 q 789 619 867 619 z "},"ˆ":{"ha":442,"x_min":17,"x_max":439,"o":"m 243 1068 l 439 842 l 439 825 l 338 825 l 228 953 l 115 825 l 17 825 l 17 842 l 211 1068 l 243 1068 z "},"ˇ":{"ha":456,"x_min":17,"x_max":439,"o":"m 117 1038 l 228 910 l 339 1038 l 439 1038 l 439 1021 l 244 794 l 213 794 l 17 1021 l 17 1038 l 117 1038 z "},"˘":{"ha":492,"x_min":49,"x_max":443,"o":"m 142 1038 l 142 1013 q 168 926 142 957 q 246 894 194 894 q 322 926 296 894 q 349 1013 349 957 l 349 1038 l 443 1038 l 443 1008 q 390 863 443 918 q 246 808 336 808 q 103 863 157 808 q 49 1008 49 917 l 49 1038 l 142 1038 z "},"˙":{"ha":321,"x_min":78,"x_max":242,"o":"m 160 1053 q 219 1030 196 1053 q 242 971 242 1007 q 219 912 242 935 q 160 889 196 889 q 101 912 124 889 q 78 971 78 935 q 101 1030 78 1007 q 160 1053 124 1053 z "},"˚":{"ha":432,"x_min":50,"x_max":379,"o":"m 214 1133 q 334 1087 289 1133 q 379 972 379 1040 q 367 909 379 939 q 333 858 356 879 q 281 823 311 836 q 214 810 251 810 q 94 856 139 810 q 50 972 50 903 q 62 1035 50 1006 q 95 1085 74 1064 q 147 1120 117 1107 q 214 1133 176 1133 m 214 1056 q 155 1032 176 1056 q 133 972 133 1008 q 155 912 133 936 q 214 888 176 888 q 274 912 253 888 q 296 972 296 936 q 274 1032 296 1008 q 214 1056 253 1056 z "},"˛":{"ha":306,"x_min":61,"x_max":250,"o":"m 238 0 q 174 -33 196 -7 q 151 -100 151 -60 q 176 -173 151 -146 q 250 -203 201 -200 l 250 -289 q 110 -235 158 -283 q 61 -108 61 -187 q 92 -15 61 -53 q 172 39 124 24 l 238 0 z "},"˜":{"ha":528,"x_min":44,"x_max":482,"o":"m 482 1001 l 482 983 q 449 876 482 917 q 351 835 417 835 q 289 849 311 835 q 251 880 267 863 q 221 911 235 897 q 183 925 207 925 q 146 908 160 925 q 132 864 132 892 l 132 850 l 44 850 l 44 867 q 78 974 44 933 q 175 1015 111 1015 q 239 1001 217 1015 q 277 971 261 988 q 307 940 293 954 q 344 926 321 926 q 381 942 368 926 q 394 988 394 958 l 394 1001 l 482 1001 z "},"˝":{"ha":458,"x_min":56,"x_max":442,"o":"m 246 1042 l 149 806 l 56 806 l 144 1042 l 246 1042 m 442 1042 l 326 806 l 233 806 l 340 1042 l 442 1042 z "},"Ё":{"ha":814,"x_min":146,"x_max":717,"o":"m 688 1042 l 688 949 l 249 949 l 249 578 l 649 578 l 649 486 l 249 486 l 249 93 l 717 93 l 717 0 l 146 0 l 146 1042 l 688 1042 m 264 1404 q 325 1380 301 1404 q 349 1319 349 1356 q 325 1260 349 1283 q 264 1236 301 1236 q 204 1260 228 1236 q 181 1319 181 1283 q 204 1380 181 1356 q 264 1404 228 1404 m 589 1404 q 649 1380 626 1404 q 672 1319 672 1356 q 649 1260 672 1283 q 589 1236 625 1236 q 528 1260 551 1236 q 504 1319 504 1283 q 528 1380 504 1356 q 589 1404 553 1404 z "},"Ђ":{"ha":1050,"x_min":65,"x_max":942,"o":"m 715 1042 l 715 949 l 419 949 l 419 588 q 517 676 457 644 q 653 708 576 708 q 865 627 788 708 q 942 396 942 546 l 942 110 q 923 -25 942 32 q 871 -119 904 -82 q 792 -176 838 -157 q 690 -194 746 -194 q 645 -193 667 -194 q 604 -189 624 -192 l 606 -96 q 644 -99 624 -99 q 683 -100 664 -100 q 795 -51 751 -100 q 839 110 839 -1 l 839 396 q 788 558 839 500 q 636 615 736 615 q 478 551 536 615 q 419 379 419 486 l 419 0 l 317 0 l 317 949 l 65 949 l 65 1042 l 715 1042 z "},"Ѓ":{"ha":788,"x_min":146,"x_max":704,"o":"m 704 1042 l 704 949 l 249 949 l 249 0 l 146 0 l 146 1042 l 704 1042 m 603 1317 l 261 1193 l 261 1290 l 603 1414 l 603 1317 z "},"Є":{"ha":843,"x_min":93,"x_max":749,"o":"m 646 688 l 646 714 q 592 899 646 831 q 429 967 539 967 q 256 877 315 967 q 196 622 196 788 l 196 575 l 529 575 l 529 483 l 196 483 l 196 418 q 426 75 196 75 q 590 142 532 75 q 647 332 647 210 l 647 358 l 749 358 l 749 331 q 727 188 749 251 q 665 78 706 124 q 565 7 624 32 q 429 -18 506 -18 q 178 90 264 -18 q 93 431 93 199 l 93 607 q 178 940 93 821 q 429 1060 264 1060 q 567 1035 508 1060 q 667 964 626 1010 q 727 855 707 918 q 747 715 747 792 l 747 688 l 646 688 z "},"Ѕ":{"ha":842,"x_min":97,"x_max":744,"o":"m 621 750 l 621 775 q 568 915 621 863 q 418 968 515 968 q 278 916 326 968 q 229 781 229 864 q 273 644 229 696 q 433 579 317 593 q 669 485 593 560 q 744 279 744 410 q 724 159 744 214 q 664 65 704 104 q 565 3 624 25 q 429 -18 506 -18 q 183 65 269 -18 q 97 288 97 149 l 97 310 l 200 310 l 200 283 q 260 132 200 190 q 429 74 319 74 q 588 127 533 74 q 642 276 642 181 q 591 418 642 367 q 413 483 540 469 q 193 576 260 500 q 126 776 126 653 q 147 890 126 838 q 204 979 167 942 q 296 1038 242 1017 q 419 1060 350 1060 q 644 982 564 1060 q 724 771 724 904 l 724 750 l 621 750 z "},"І":{"ha":394,"x_min":146,"x_max":249,"o":"m 249 1042 l 249 0 l 146 0 l 146 1042 l 249 1042 z "},"Ї":{"ha":394,"x_min":-22,"x_max":421,"o":"m 249 1042 l 249 0 l 146 0 l 146 1042 l 249 1042 m 63 1404 q 123 1380 100 1404 q 146 1319 146 1356 q 122 1260 146 1283 q 63 1236 99 1236 q 1 1260 25 1236 q -22 1319 -22 1283 q 2 1380 -22 1356 q 63 1404 26 1404 m 336 1404 q 397 1380 374 1404 q 421 1319 421 1356 q 397 1260 421 1283 q 336 1236 374 1236 q 276 1260 300 1236 q 253 1319 253 1283 q 276 1380 253 1356 q 336 1404 300 1404 z "},"Ј":{"ha":557,"x_min":72,"x_max":419,"o":"m 419 1042 l 419 299 q 350 58 419 135 q 154 -18 281 -18 q 112 -17 132 -18 q 72 -12 92 -15 l 72 81 q 144 76 111 76 q 270 128 222 76 q 318 304 318 181 l 318 1042 l 419 1042 z "},"Љ":{"ha":1358,"x_min":44,"x_max":1271,"o":"m 790 1042 l 790 676 l 913 676 q 1175 590 1079 676 q 1271 338 1271 504 q 1178 89 1271 178 q 913 0 1086 0 l 688 0 l 688 949 l 335 949 l 335 328 q 320 168 335 233 q 278 63 306 103 q 210 6 250 24 q 119 -11 171 -11 q 81 -8 100 -11 q 44 -1 63 -6 l 44 90 q 101 86 74 86 q 155 98 131 86 q 197 138 179 110 q 225 213 215 167 q 235 328 235 258 l 235 1042 l 790 1042 m 790 93 l 913 93 q 1102 156 1035 93 q 1169 338 1169 219 q 1101 522 1169 461 q 913 583 1033 583 l 790 583 l 790 93 z "},"Њ":{"ha":1344,"x_min":146,"x_max":1258,"o":"m 249 1042 l 249 571 l 667 571 l 667 1042 l 769 1042 l 769 676 l 900 676 q 1049 655 983 676 q 1162 590 1115 633 q 1233 484 1208 547 q 1258 338 1258 421 q 1166 89 1258 178 q 900 0 1074 0 l 667 0 l 667 478 l 249 478 l 249 0 l 146 0 l 146 1042 l 249 1042 m 769 93 l 900 93 q 1089 156 1022 93 q 1156 338 1156 219 q 1088 522 1156 461 q 900 583 1019 583 l 769 583 l 769 93 z "},"Ћ":{"ha":1050,"x_min":65,"x_max":942,"o":"m 715 1042 l 715 949 l 419 949 l 419 588 q 517 676 457 644 q 653 708 578 708 q 865 626 788 708 q 942 394 942 544 l 942 0 l 839 0 l 839 394 q 788 558 839 500 q 636 615 738 615 q 478 551 538 615 q 419 379 419 486 l 419 0 l 317 0 l 317 949 l 65 949 l 65 1042 l 715 1042 z "},"Ќ":{"ha":888,"x_min":146,"x_max":817,"o":"m 790 950 q 767 952 779 951 q 742 953 754 953 q 667 911 693 953 q 638 767 640 869 q 610 613 635 667 q 542 533 586 560 q 624 456 593 511 q 661 292 654 400 q 673 192 664 231 q 697 130 682 153 q 730 98 711 107 q 772 89 749 89 q 794 89 783 89 q 817 90 806 89 l 817 -1 q 750 -8 786 -8 q 674 5 707 -8 q 617 49 640 18 q 579 132 593 81 q 563 260 565 183 q 519 432 557 383 q 401 481 482 481 l 249 481 l 249 0 l 146 0 l 146 1042 l 249 1042 l 249 574 l 401 574 q 504 622 469 574 q 542 793 539 671 q 590 990 544 931 q 726 1049 636 1049 q 760 1047 744 1049 q 790 1042 776 1044 l 790 950 m 622 1317 l 281 1193 l 281 1290 l 622 1414 l 622 1317 z "},"Џ":{"ha":936,"x_min":146,"x_max":790,"o":"m 249 1042 l 249 93 l 688 93 l 688 1042 l 790 1042 l 790 0 l 518 0 l 518 -235 l 417 -235 l 417 0 l 146 0 l 146 1042 l 249 1042 z "},"А":{"ha":879,"x_min":58,"x_max":819,"o":"m 496 1044 l 819 0 l 708 0 l 626 275 l 249 275 l 168 0 l 58 0 l 385 1044 l 496 1044 m 275 367 l 601 367 l 439 922 l 275 367 z "},"Б":{"ha":843,"x_min":146,"x_max":758,"o":"m 700 1042 l 700 949 l 249 949 l 249 638 l 417 638 q 667 556 576 638 q 758 318 758 474 q 734 183 758 242 q 665 83 710 124 q 558 21 621 42 q 417 0 494 0 l 146 0 l 146 1042 l 700 1042 m 249 93 l 417 93 q 591 150 525 93 q 657 318 657 207 q 593 488 657 431 q 417 544 529 544 l 249 544 l 249 93 z "},"В":{"ha":853,"x_min":146,"x_max":760,"o":"m 431 1042 q 655 969 579 1042 q 731 769 731 896 q 697 625 731 683 q 606 539 664 567 q 720 447 681 510 q 760 289 760 385 q 680 78 760 157 q 440 0 600 0 l 146 0 l 146 1042 l 431 1042 m 249 92 l 440 92 q 601 144 544 92 q 657 290 657 196 q 605 437 657 386 q 447 488 553 488 l 249 488 l 249 92 m 249 578 l 444 578 q 583 627 536 578 q 629 764 629 676 q 578 903 629 856 q 429 950 526 950 l 249 950 l 249 578 z "},"Г":{"ha":788,"x_min":146,"x_max":704,"o":"m 704 1042 l 704 949 l 249 949 l 249 0 l 146 0 l 146 1042 l 704 1042 z "},"Д":{"ha":982,"x_min":63,"x_max":919,"o":"m 799 1042 l 799 93 l 919 93 l 919 -235 l 821 -235 l 814 0 l 168 0 l 161 -235 l 63 -235 l 63 93 l 122 93 q 206 230 179 149 q 233 425 233 311 l 233 1042 l 799 1042 m 333 949 l 333 418 q 247 93 333 203 l 696 93 l 696 949 l 333 949 z "},"Е":{"ha":814,"x_min":146,"x_max":717,"o":"m 688 1042 l 688 949 l 249 949 l 249 578 l 649 578 l 649 486 l 249 486 l 249 93 l 717 93 l 717 0 l 146 0 l 146 1042 l 688 1042 z "},"Ж":{"ha":1317,"x_min":83,"x_max":1233,"o":"m 710 1042 l 710 574 l 825 574 q 928 623 894 574 q 965 793 963 672 q 1014 990 968 931 q 1150 1049 1060 1049 q 1214 1042 1183 1049 l 1214 950 q 1190 952 1203 951 q 1165 953 1178 953 q 1090 911 1115 953 q 1061 767 1064 869 q 1034 613 1058 667 q 965 533 1010 558 q 1048 456 1018 511 q 1083 292 1078 400 q 1094 192 1086 231 q 1116 130 1103 153 q 1147 98 1129 107 q 1189 89 1165 89 q 1210 89 1200 89 q 1233 90 1221 89 l 1233 -1 q 1167 -8 1201 -8 q 1091 5 1124 -8 q 1036 49 1058 18 q 1001 132 1014 81 q 985 260 988 183 q 972 364 982 322 q 942 432 961 406 q 894 469 924 458 q 825 481 865 481 l 710 481 l 710 0 l 607 0 l 607 481 l 493 481 q 424 469 453 481 q 375 432 394 458 q 345 364 356 406 q 332 260 335 322 q 316 132 329 183 q 281 49 303 81 q 226 5 258 18 q 150 -8 193 -8 q 83 -1 114 -8 l 83 90 q 106 89 94 89 q 128 89 117 89 q 170 98 151 89 q 202 130 189 107 q 223 192 215 153 q 233 292 231 231 q 269 454 239 400 q 351 531 299 508 q 283 611 307 556 q 256 767 258 667 q 228 913 253 872 q 151 953 203 953 q 128 952 140 953 q 104 950 115 951 l 104 1042 q 133 1047 118 1044 q 168 1049 149 1049 q 303 990 257 1049 q 353 793 350 931 q 388 624 354 674 q 493 574 422 574 l 607 574 l 607 1042 l 710 1042 z "},"З":{"ha":813,"x_min":86,"x_max":733,"o":"m 432 582 q 556 631 513 582 q 600 774 600 679 q 550 918 600 868 q 408 968 500 968 q 265 915 318 968 q 213 779 213 863 l 213 758 l 110 758 l 110 779 q 130 890 110 839 q 189 979 150 942 q 283 1038 228 1017 q 408 1060 339 1060 q 535 1039 481 1060 q 628 980 590 1018 q 684 890 665 942 q 703 775 703 838 q 671 629 703 688 q 588 544 639 571 q 694 456 654 518 q 733 293 733 393 q 711 167 733 224 q 647 69 689 110 q 545 5 606 28 q 408 -18 485 -18 q 271 4 331 -18 q 170 67 211 26 q 108 163 129 107 q 86 289 86 219 l 86 313 l 192 313 l 192 289 q 250 130 192 186 q 407 74 308 74 q 572 131 513 74 q 631 292 631 189 q 432 490 631 490 l 300 490 l 300 582 l 432 582 z "},"И":{"ha":946,"x_min":146,"x_max":800,"o":"m 247 1042 l 247 192 l 694 1042 l 800 1042 l 800 0 l 699 0 l 699 850 l 250 0 l 146 0 l 146 1042 l 247 1042 z "},"Й":{"ha":946,"x_min":146,"x_max":800,"o":"m 247 1042 l 247 192 l 694 1042 l 800 1042 l 800 0 l 699 0 l 699 850 l 250 0 l 146 0 l 146 1042 l 247 1042 m 356 1428 l 356 1401 q 387 1309 356 1343 q 471 1275 418 1275 q 556 1309 524 1275 q 588 1401 588 1343 l 588 1428 l 678 1428 l 678 1401 q 622 1249 678 1306 q 471 1193 567 1193 q 319 1250 375 1193 q 264 1401 264 1307 l 264 1428 l 356 1428 z "},"К":{"ha":888,"x_min":146,"x_max":817,"o":"m 790 950 q 767 952 779 951 q 742 953 754 953 q 667 911 693 953 q 638 767 640 869 q 610 613 635 667 q 542 533 586 560 q 624 456 593 511 q 661 292 654 400 q 673 192 664 231 q 697 130 682 153 q 730 98 711 107 q 772 89 749 89 q 794 89 783 89 q 817 90 806 89 l 817 -1 q 750 -8 786 -8 q 674 5 707 -8 q 617 49 640 18 q 579 132 593 81 q 563 260 565 183 q 519 432 557 383 q 401 481 482 481 l 249 481 l 249 0 l 146 0 l 146 1042 l 249 1042 l 249 574 l 401 574 q 504 622 469 574 q 542 793 539 671 q 590 990 544 931 q 726 1049 636 1049 q 760 1047 744 1049 q 790 1042 776 1044 l 790 950 z "},"Л":{"ha":950,"x_min":44,"x_max":804,"o":"m 804 1042 l 804 0 l 701 0 l 701 949 l 335 949 l 335 328 q 320 168 335 233 q 278 63 306 103 q 210 6 250 24 q 119 -11 171 -11 q 81 -8 100 -11 q 44 -1 63 -6 l 44 90 q 101 86 74 86 q 155 98 131 86 q 197 138 179 110 q 225 213 215 167 q 235 328 235 258 l 235 1042 l 804 1042 z "},"М":{"ha":1113,"x_min":146,"x_max":967,"o":"m 283 1042 l 557 161 l 828 1042 l 967 1042 l 967 0 l 867 0 l 867 853 l 604 0 l 511 0 l 246 853 l 246 0 l 146 0 l 146 1042 l 283 1042 z "},"Н":{"ha":938,"x_min":146,"x_max":792,"o":"m 249 1042 l 249 571 l 689 571 l 689 1042 l 792 1042 l 792 0 l 689 0 l 689 478 l 249 478 l 249 0 l 146 0 l 146 1042 l 249 1042 z "},"О":{"ha":881,"x_min":94,"x_max":786,"o":"m 440 1060 q 699 947 611 1060 q 786 615 786 835 l 786 426 q 695 93 786 204 q 440 -18 604 -18 q 182 92 269 -18 q 94 426 94 203 l 94 615 q 186 949 94 838 q 440 1060 278 1060 m 440 967 q 260 878 322 967 q 197 625 197 790 l 197 415 q 259 161 197 247 q 440 75 321 75 q 622 163 560 75 q 683 415 683 250 l 683 625 q 622 880 683 793 q 440 967 561 967 z "},"П":{"ha":924,"x_min":146,"x_max":778,"o":"m 778 1042 l 778 0 l 675 0 l 675 949 l 249 949 l 249 0 l 146 0 l 146 1042 l 778 1042 z "},"Р":{"ha":840,"x_min":146,"x_max":764,"o":"m 400 1042 q 669 953 574 1042 q 764 701 764 865 q 738 556 764 619 q 663 449 711 492 q 549 383 615 406 q 400 361 482 361 l 249 361 l 249 0 l 146 0 l 146 1042 l 400 1042 m 249 454 l 396 454 q 591 517 519 454 q 663 701 663 579 q 592 886 663 824 q 396 949 521 949 l 249 949 l 249 454 z "},"С":{"ha":844,"x_min":93,"x_max":751,"o":"m 647 683 l 647 714 q 593 899 647 831 q 431 967 539 967 q 256 877 317 967 q 196 622 196 788 l 196 418 q 426 75 196 75 q 592 143 533 75 q 650 333 650 211 l 650 364 l 751 364 l 751 333 q 730 190 751 254 q 667 79 708 125 q 567 8 626 33 q 431 -18 507 -18 q 178 90 263 -18 q 93 431 93 197 l 93 607 q 178 942 93 825 q 431 1060 264 1060 q 569 1035 510 1060 q 668 964 628 1010 q 728 855 708 918 q 749 715 749 792 l 749 683 l 647 683 z "},"Т":{"ha":769,"x_min":65,"x_max":703,"o":"m 703 1042 l 703 949 l 436 949 l 436 0 l 333 0 l 333 949 l 65 949 l 65 1042 l 703 1042 z "},"У":{"ha":828,"x_min":56,"x_max":771,"o":"m 172 1042 l 433 367 l 657 1042 l 771 1042 l 460 160 q 381 27 428 68 q 258 -14 333 -14 q 176 -3 218 -14 l 176 90 q 244 83 211 83 q 316 108 285 83 q 364 185 347 132 l 382 246 l 56 1042 l 172 1042 z "},"Ф":{"ha":1065,"x_min":78,"x_max":986,"o":"m 583 1060 l 583 915 l 638 915 q 783 891 718 915 q 892 820 847 867 q 962 707 938 774 q 986 556 986 640 l 986 507 q 961 357 986 424 q 890 244 936 290 q 780 172 844 197 q 638 147 715 147 l 583 147 l 583 0 l 481 0 l 481 147 l 426 147 q 283 172 347 147 q 172 242 218 196 q 102 356 126 289 q 78 508 78 422 l 78 554 q 103 704 78 638 q 174 818 128 771 q 284 890 219 865 q 426 915 349 915 l 481 915 l 481 1060 l 583 1060 m 481 822 l 426 822 q 247 751 313 822 q 181 554 181 681 l 181 508 q 247 310 181 379 q 426 240 314 240 l 481 240 l 481 822 m 583 240 l 638 240 q 817 310 750 240 q 883 507 883 381 l 883 556 q 817 752 883 682 q 638 822 751 822 l 583 822 l 583 240 z "},"Х":{"ha":840,"x_min":60,"x_max":781,"o":"m 206 1042 l 422 601 l 638 1042 l 756 1042 l 496 529 l 781 0 l 658 0 l 418 465 l 179 0 l 60 0 l 349 536 l 88 1042 l 206 1042 z "},"Ц":{"ha":939,"x_min":146,"x_max":876,"o":"m 249 1042 l 249 93 l 663 93 l 663 1042 l 765 1042 l 765 93 l 876 93 l 876 -235 l 778 -235 l 771 0 l 146 0 l 146 1042 l 249 1042 z "},"Ч":{"ha":889,"x_min":107,"x_max":743,"o":"m 210 1042 l 210 681 q 265 478 210 542 q 418 415 319 415 q 581 481 521 415 q 640 665 640 547 l 640 1042 l 743 1042 l 743 0 l 640 0 l 640 440 q 544 355 604 388 q 404 322 483 322 q 186 410 265 322 q 107 679 107 497 l 107 1042 l 210 1042 z "},"Ш":{"ha":1233,"x_min":146,"x_max":1088,"o":"m 249 1042 l 249 93 l 565 93 l 565 1042 l 668 1042 l 668 93 l 985 93 l 985 1042 l 1088 1042 l 1088 0 l 146 0 l 146 1042 l 249 1042 z "},"Щ":{"ha":1261,"x_min":146,"x_max":1199,"o":"m 249 1042 l 249 93 l 565 93 l 565 1042 l 668 1042 l 668 93 l 985 93 l 985 1042 l 1088 1042 l 1088 93 l 1199 93 l 1199 -235 l 1100 -235 l 1093 0 l 146 0 l 146 1042 l 249 1042 z "},"Ъ":{"ha":914,"x_min":42,"x_max":826,"o":"m 340 1042 l 340 676 l 465 676 q 615 655 549 676 q 728 590 682 633 q 801 484 775 547 q 826 338 826 421 q 733 90 826 179 q 465 0 639 0 l 238 0 l 238 949 l 42 949 l 42 1042 l 340 1042 m 340 93 l 465 93 q 656 156 588 93 q 725 338 725 219 q 656 522 725 460 q 465 583 586 583 l 340 583 l 340 93 z "},"Ы":{"ha":1119,"x_min":146,"x_max":974,"o":"m 974 1042 l 974 0 l 871 0 l 871 1042 l 974 1042 m 249 1042 l 249 676 l 369 676 q 634 591 536 676 q 732 338 732 506 q 638 90 732 179 q 369 0 543 0 l 146 0 l 146 1042 l 249 1042 m 249 93 l 369 93 q 560 156 492 93 q 629 338 629 219 q 560 522 629 460 q 369 583 490 583 l 249 583 l 249 93 z "},"Ь":{"ha":835,"x_min":146,"x_max":749,"o":"m 249 1042 l 249 676 l 390 676 q 653 591 557 676 q 749 338 749 506 q 656 90 749 179 q 390 0 564 0 l 146 0 l 146 1042 l 249 1042 m 249 93 l 390 93 q 579 156 513 93 q 646 338 646 219 q 578 522 646 461 q 390 583 510 583 l 249 583 l 249 93 z "},"Э":{"ha":840,"x_min":93,"x_max":747,"o":"m 96 699 l 96 729 q 118 863 96 801 q 182 967 140 924 q 283 1035 224 1011 q 415 1060 342 1060 q 665 946 582 1060 q 747 614 747 832 l 747 426 q 660 92 747 203 q 413 -18 574 -18 q 177 69 261 -18 q 93 315 93 157 l 93 344 l 194 344 l 194 317 q 250 137 194 199 q 414 75 306 75 q 585 160 526 75 q 644 415 644 246 l 644 488 l 333 488 l 333 579 l 644 579 l 644 625 q 590 878 644 790 q 417 967 535 967 q 256 901 314 967 q 197 728 197 836 l 197 699 l 96 699 z "},"Ю":{"ha":1203,"x_min":146,"x_max":1108,"o":"m 776 1060 q 1025 949 942 1060 q 1108 606 1108 838 l 1108 433 q 1022 93 1108 204 q 776 -18 936 -18 q 529 91 614 -18 q 444 436 444 200 l 444 479 l 249 479 l 249 0 l 146 0 l 146 1042 l 249 1042 l 249 571 l 444 571 l 444 608 q 532 947 444 835 q 776 1060 619 1060 m 776 967 q 606 879 664 967 q 547 617 547 792 l 547 424 q 605 160 547 244 q 776 75 663 75 q 947 161 889 75 q 1006 424 1006 247 l 1006 617 q 949 881 1006 794 q 776 967 892 967 z "},"Я":{"ha":876,"x_min":63,"x_max":731,"o":"m 731 0 l 628 0 l 628 392 l 472 392 q 349 347 390 392 q 300 215 308 303 q 244 46 289 97 q 128 -6 199 -6 q 63 0 89 -6 l 63 92 q 83 90 74 90 q 101 90 92 90 q 167 124 140 90 q 204 247 194 157 q 303 432 219 388 q 178 534 224 463 q 132 717 132 606 q 222 955 132 868 q 475 1042 311 1042 l 731 1042 l 731 0 m 475 949 q 297 887 360 949 q 235 717 235 825 q 299 544 235 603 q 475 485 363 485 l 628 485 l 628 949 l 475 949 z "},"а":{"ha":718,"x_min":81,"x_max":674,"o":"m 106 479 q 123 572 106 529 q 172 644 140 614 q 249 691 204 674 q 351 708 294 708 q 524 649 465 708 q 583 483 583 589 l 583 163 q 600 97 583 114 q 649 79 617 79 l 674 79 l 674 -1 q 644 -8 660 -6 q 611 -11 628 -11 q 540 18 567 -11 q 510 106 514 47 q 426 17 482 49 q 294 -14 369 -14 q 138 38 194 -14 q 81 182 81 90 q 142 333 81 278 q 325 397 203 388 q 447 428 404 403 q 489 503 489 453 q 456 588 489 556 q 351 619 422 619 q 242 581 281 619 q 203 479 203 543 l 106 479 m 490 376 q 430 335 469 351 q 329 314 390 318 q 213 274 247 307 q 178 186 178 240 q 212 103 178 133 q 308 74 246 74 q 440 124 389 74 q 490 265 490 174 l 490 376 z "},"б":{"ha":728,"x_min":93,"x_max":643,"o":"m 640 1060 l 640 1031 q 604 910 640 953 q 486 851 568 868 l 376 829 q 234 735 276 808 q 189 550 192 663 q 267 621 218 594 q 385 647 317 647 q 578 567 513 647 q 643 349 643 488 l 643 289 q 572 66 643 146 q 367 -14 501 -14 q 162 74 231 -14 q 93 317 93 161 l 93 483 q 153 781 93 676 q 353 917 214 885 l 454 939 q 546 1036 546 957 l 546 1060 l 640 1060 m 372 558 q 240 500 286 558 q 193 344 193 442 l 193 296 q 238 131 193 188 q 368 75 283 75 q 499 131 453 75 q 544 289 544 186 l 544 346 q 372 558 544 558 z "},"в":{"ha":665,"x_min":104,"x_max":593,"o":"m 360 694 q 516 643 463 694 q 569 508 569 592 q 548 416 569 456 q 490 357 526 376 q 566 296 539 338 q 593 194 593 254 q 533 52 593 104 q 360 0 472 0 l 104 0 l 104 694 l 360 694 m 201 86 l 361 86 q 460 115 426 86 q 494 199 494 143 q 463 280 494 251 q 365 308 432 308 l 201 308 l 201 86 m 201 394 l 358 394 q 443 423 414 394 q 472 501 472 451 q 443 580 472 551 q 356 608 414 608 l 201 608 l 201 394 z "},"г":{"ha":608,"x_min":104,"x_max":536,"o":"m 536 694 l 536 604 l 203 604 l 203 0 l 104 0 l 104 694 l 536 694 z "},"д":{"ha":767,"x_min":47,"x_max":719,"o":"m 624 694 l 624 89 l 719 89 l 719 -185 l 631 -185 l 624 0 l 143 0 l 135 -185 l 47 -185 l 47 89 l 100 89 q 178 290 178 154 l 178 694 l 624 694 m 274 606 l 274 285 q 219 89 274 150 l 525 89 l 525 606 l 274 606 z "},"е":{"ha":694,"x_min":83,"x_max":611,"o":"m 182 315 l 182 301 q 226 132 182 189 q 350 75 271 75 q 466 110 425 75 q 518 211 507 146 l 611 211 q 531 46 597 106 q 349 -14 465 -14 q 156 68 228 -14 q 83 310 83 150 l 83 381 q 101 513 83 453 q 153 617 119 574 q 238 685 188 661 q 351 708 288 708 q 544 625 478 708 q 611 396 611 542 l 611 315 l 182 315 m 353 619 q 224 561 267 619 q 182 400 182 503 l 513 400 l 513 411 q 472 565 513 511 q 353 619 432 619 z "},"ж":{"ha":1038,"x_min":69,"x_max":968,"o":"m 568 694 l 568 394 l 657 394 q 726 425 701 394 q 753 526 750 456 q 792 659 756 617 q 892 701 828 701 q 949 694 921 701 l 949 611 l 915 611 q 863 586 881 611 q 842 500 844 561 q 774 357 839 389 q 854 200 850 321 q 879 108 857 135 q 938 82 901 82 l 968 82 l 968 0 q 911 -7 940 -7 q 806 35 844 -7 q 765 172 768 76 q 735 274 763 243 q 658 306 708 306 l 568 306 l 568 0 l 469 0 l 469 306 l 379 306 q 302 274 329 306 q 272 172 275 243 q 231 35 269 76 q 126 -7 193 -7 q 69 0 97 -7 l 69 82 l 100 82 q 158 108 136 82 q 183 200 181 135 q 264 357 188 321 q 196 500 199 389 q 175 586 193 561 q 122 611 157 611 l 89 611 l 89 694 q 146 701 117 701 q 246 659 210 701 q 285 526 282 617 q 312 425 288 456 q 381 394 336 394 l 469 394 l 469 694 l 568 694 z "},"з":{"ha":651,"x_min":68,"x_max":571,"o":"m 347 397 q 426 425 400 397 q 453 504 453 453 q 421 588 453 557 q 322 619 389 619 q 219 584 254 619 q 179 489 185 549 l 82 489 q 153 649 90 589 q 325 708 217 708 q 422 692 381 708 q 492 649 464 676 q 535 585 521 622 q 550 507 550 549 q 529 417 550 454 q 472 360 508 379 q 545 300 519 340 q 571 197 571 260 q 507 46 571 106 q 325 -14 443 -14 q 139 48 201 -14 q 68 213 76 110 l 167 213 q 212 110 172 146 q 322 74 251 74 q 433 106 393 74 q 474 197 474 139 q 351 311 474 311 l 238 311 l 238 397 l 347 397 z "},"и":{"ha":722,"x_min":104,"x_max":618,"o":"m 521 0 l 521 524 l 199 0 l 104 0 l 104 694 l 201 694 l 201 169 l 524 694 l 618 694 l 618 0 l 521 0 z "},"й":{"ha":722,"x_min":104,"x_max":618,"o":"m 521 0 l 521 524 l 199 0 l 104 0 l 104 694 l 201 694 l 201 169 l 524 694 l 618 694 l 618 0 l 521 0 m 257 1038 l 257 1013 q 283 926 257 957 q 361 894 310 894 q 438 926 411 894 q 464 1013 464 957 l 464 1038 l 558 1038 l 558 1008 q 505 863 558 918 q 361 808 451 808 q 218 863 272 808 q 164 1008 164 917 l 164 1038 l 257 1038 z "},"к":{"ha":694,"x_min":104,"x_max":635,"o":"m 203 694 l 203 394 l 315 394 q 385 426 358 394 q 414 526 411 457 q 456 658 417 614 q 563 701 496 701 q 619 694 594 701 l 619 611 l 588 611 q 528 585 550 611 q 504 500 506 558 q 483 410 503 446 q 432 358 464 375 q 494 301 471 340 q 521 199 518 261 q 545 107 524 132 q 603 82 567 82 l 635 82 l 635 0 q 606 -5 621 -3 q 575 -7 592 -7 q 474 36 511 -7 q 432 169 436 79 q 399 274 428 242 q 318 306 371 306 l 203 306 l 203 0 l 104 0 l 104 694 l 203 694 z "},"л":{"ha":738,"x_min":35,"x_max":632,"o":"m 632 694 l 632 0 l 533 0 l 533 606 l 271 606 l 271 249 q 226 51 271 111 q 92 -8 181 -8 q 35 0 61 -8 l 35 83 q 57 81 46 82 q 79 81 68 81 q 149 118 122 81 q 175 250 175 156 l 175 694 l 632 694 z "},"м":{"ha":861,"x_min":104,"x_max":757,"o":"m 232 694 l 432 132 l 628 694 l 757 694 l 757 0 l 661 0 l 661 535 l 472 0 l 388 0 l 197 535 l 197 0 l 104 0 l 104 694 l 232 694 z "},"н":{"ha":725,"x_min":104,"x_max":621,"o":"m 203 694 l 203 393 l 522 393 l 522 694 l 621 694 l 621 0 l 522 0 l 522 304 l 203 304 l 203 0 l 104 0 l 104 694 l 203 694 z "},"о":{"ha":719,"x_min":83,"x_max":636,"o":"m 360 708 q 564 623 492 708 q 636 381 636 538 l 636 313 q 564 73 636 160 q 360 -14 492 -14 q 156 69 228 -14 q 83 313 83 151 l 83 381 q 156 620 83 532 q 360 708 228 708 m 360 619 q 228 558 274 619 q 182 382 182 496 l 182 311 q 228 132 182 189 q 360 75 275 75 q 490 134 443 75 q 538 311 538 193 l 538 382 q 360 619 538 619 z "},"п":{"ha":715,"x_min":104,"x_max":611,"o":"m 611 694 l 611 0 l 513 0 l 513 606 l 203 606 l 203 0 l 104 0 l 104 694 l 611 694 z "},"р":{"ha":726,"x_min":104,"x_max":643,"o":"m 192 694 l 192 593 q 271 678 221 647 q 392 708 321 708 q 578 630 514 708 q 643 392 643 551 l 643 301 q 575 65 643 144 q 381 -14 507 -14 q 272 10 315 -14 q 203 78 229 33 l 203 -347 l 104 -347 l 104 694 l 192 694 m 201 307 q 245 133 201 190 q 371 75 289 75 q 499 131 454 75 q 544 303 544 186 l 544 390 q 501 565 544 511 q 376 619 458 619 q 249 560 297 619 q 201 386 201 500 l 201 307 z "},"с":{"ha":679,"x_min":83,"x_max":596,"o":"m 496 440 l 496 463 q 458 576 496 533 q 347 619 419 619 q 225 560 268 619 q 182 389 182 501 l 182 304 q 226 130 182 185 q 344 75 269 75 q 460 118 421 75 q 499 232 499 161 l 499 253 l 596 253 l 596 232 q 530 53 596 119 q 342 -14 464 -14 q 151 64 219 -14 q 83 304 83 142 l 83 388 q 151 622 83 535 q 351 708 219 708 q 455 690 410 708 q 531 640 500 672 q 578 564 563 608 q 594 467 594 519 l 594 440 l 496 440 z "},"т":{"ha":639,"x_min":63,"x_max":576,"o":"m 576 694 l 576 604 l 369 604 l 369 0 l 269 0 l 269 604 l 63 604 l 63 694 l 576 694 z "},"у":{"ha":697,"x_min":56,"x_max":642,"o":"m 164 694 l 367 104 l 535 694 l 642 694 l 397 -85 q 306 -269 356 -217 q 183 -321 256 -321 q 124 -317 150 -321 l 124 -222 q 149 -224 136 -224 q 174 -224 163 -224 q 245 -192 215 -224 q 300 -74 275 -160 l 317 -19 l 56 694 l 164 694 z "},"ф":{"ha":1060,"x_min":83,"x_max":976,"o":"m 579 1042 l 579 619 q 646 684 603 660 q 746 708 689 708 q 916 632 856 708 q 976 404 976 556 l 976 290 q 915 64 976 142 q 742 -14 854 -14 q 641 9 681 -14 q 579 75 601 32 l 579 -347 l 481 -347 l 481 75 q 414 10 457 35 q 314 -14 371 -14 q 144 63 204 -14 q 83 290 83 139 l 83 404 q 144 630 83 551 q 318 708 206 708 q 419 685 379 708 q 481 619 458 663 l 481 1042 l 579 1042 m 482 389 q 444 563 482 507 q 331 619 407 619 q 219 563 256 619 q 182 400 182 506 l 182 293 q 219 128 182 181 q 331 75 256 75 q 482 306 482 75 l 482 389 m 578 306 q 615 131 578 186 q 729 75 653 75 q 841 132 804 75 q 878 293 878 189 l 878 400 q 841 566 878 513 q 729 619 804 619 q 578 389 578 619 l 578 306 z "},"х":{"ha":701,"x_min":63,"x_max":639,"o":"m 197 694 l 351 407 l 508 694 l 622 694 l 422 354 l 639 0 l 522 0 l 349 301 l 178 0 l 63 0 l 278 354 l 83 694 l 197 694 z "},"ц":{"ha":725,"x_min":104,"x_max":689,"o":"m 203 694 l 203 89 l 500 89 l 500 694 l 599 694 l 599 89 l 689 89 l 689 -185 l 601 -185 l 593 0 l 104 0 l 104 694 l 203 694 z "},"ч":{"ha":692,"x_min":83,"x_max":588,"o":"m 182 694 l 182 453 q 221 323 182 365 q 331 281 260 281 q 447 328 404 281 q 489 460 489 376 l 489 694 l 588 694 l 588 0 l 489 0 l 489 271 q 415 213 460 233 q 311 192 369 192 q 145 256 207 192 q 83 450 83 319 l 83 694 l 182 694 z "},"ш":{"ha":989,"x_min":104,"x_max":885,"o":"m 201 694 l 201 89 l 446 89 l 446 694 l 543 694 l 543 89 l 788 89 l 788 694 l 885 694 l 885 0 l 104 0 l 104 694 l 201 694 z "},"щ":{"ha":1013,"x_min":104,"x_max":976,"o":"m 201 694 l 201 89 l 446 89 l 446 694 l 543 694 l 543 89 l 788 89 l 788 694 l 885 694 l 885 89 l 976 89 l 976 -185 l 889 -185 l 881 0 l 104 0 l 104 694 l 201 694 z "},"ъ":{"ha":707,"x_min":35,"x_max":646,"o":"m 279 694 l 279 467 l 393 467 q 579 404 513 467 q 646 233 646 342 q 581 62 646 124 q 393 0 515 0 l 181 0 l 181 604 l 35 604 l 35 694 l 279 694 m 279 89 l 389 89 q 507 126 467 89 q 547 233 547 163 q 508 340 547 303 q 389 378 468 378 l 279 378 l 279 89 z "},"ы":{"ha":865,"x_min":104,"x_max":761,"o":"m 761 694 l 761 0 l 663 0 l 663 694 l 761 694 m 203 694 l 203 467 l 307 467 q 494 403 428 467 q 560 233 560 340 q 494 62 560 124 q 307 0 429 0 l 104 0 l 104 694 l 203 694 m 203 89 l 303 89 q 422 126 382 89 q 461 233 461 163 q 422 340 461 303 q 303 378 383 378 l 203 378 l 203 89 z "},"ь":{"ha":639,"x_min":104,"x_max":578,"o":"m 203 694 l 203 467 l 324 467 q 510 404 442 467 q 578 233 578 342 q 512 61 578 122 q 324 0 446 0 l 104 0 l 104 694 l 203 694 m 203 89 l 319 89 q 438 126 397 89 q 479 233 479 163 q 439 341 479 304 q 319 378 399 378 l 203 378 l 203 89 z "},"э":{"ha":675,"x_min":79,"x_max":592,"o":"m 82 465 q 152 642 88 575 q 335 708 217 708 q 524 627 457 708 q 592 386 592 546 l 592 307 q 527 71 592 156 q 332 -14 463 -14 q 149 51 213 -14 q 79 233 86 115 l 178 233 q 219 115 181 156 q 329 75 258 75 q 451 131 408 75 q 493 296 493 188 l 493 308 l 263 308 l 263 396 l 493 396 l 493 399 q 451 566 493 513 q 331 619 408 619 q 221 577 260 619 q 179 465 182 535 l 82 465 z "},"ю":{"ha":943,"x_min":104,"x_max":860,"o":"m 597 708 q 792 623 725 708 q 860 378 860 538 l 860 308 q 792 72 860 157 q 597 -14 725 -14 q 404 67 471 -14 q 336 303 338 147 l 203 303 l 203 0 l 104 0 l 104 694 l 203 694 l 203 392 l 336 392 q 405 623 338 538 q 597 708 472 708 m 597 619 q 476 560 518 619 q 433 388 433 500 l 433 306 q 476 134 433 193 q 597 75 518 75 q 719 134 676 75 q 761 306 761 193 l 761 381 q 597 619 761 619 z "},"я":{"ha":686,"x_min":51,"x_max":582,"o":"m 582 0 l 485 0 l 485 249 l 350 249 q 247 138 264 249 q 108 -7 222 -7 q 51 0 79 -7 l 51 82 l 82 82 q 129 102 110 82 q 157 172 149 122 q 181 239 164 211 q 226 282 197 267 q 129 351 164 303 q 94 471 94 400 q 111 559 94 518 q 159 631 128 600 q 237 678 190 661 q 342 694 283 694 l 582 694 l 582 0 m 193 472 q 230 374 193 410 q 342 338 267 338 l 485 338 l 485 606 l 342 606 q 232 570 271 606 q 193 472 193 535 z "},"ё":{"ha":694,"x_min":83,"x_max":611,"o":"m 182 315 l 182 301 q 226 132 182 189 q 350 75 271 75 q 466 110 425 75 q 518 211 507 146 l 611 211 q 531 46 597 106 q 349 -14 465 -14 q 156 68 228 -14 q 83 310 83 150 l 83 381 q 101 513 83 453 q 153 617 119 574 q 238 685 188 661 q 351 708 288 708 q 544 625 478 708 q 611 396 611 542 l 611 315 l 182 315 m 353 619 q 224 561 267 619 q 182 400 182 503 l 513 400 l 513 411 q 472 565 513 511 q 353 619 432 619 m 215 1035 q 270 1013 249 1035 q 292 958 292 992 q 270 902 292 924 q 215 881 249 881 q 159 902 181 881 q 138 958 138 924 q 159 1013 138 992 q 215 1035 181 1035 m 500 1035 q 556 1013 535 1035 q 578 958 578 992 q 556 902 578 924 q 500 881 535 881 q 444 902 467 881 q 422 958 422 924 q 444 1013 422 992 q 500 1035 467 1035 z "},"ђ":{"ha":754,"x_min":14,"x_max":657,"o":"m 114 911 l 114 1060 l 213 1060 l 213 911 l 410 911 l 410 824 l 213 824 l 213 594 q 292 678 242 647 q 411 708 342 708 q 594 635 532 708 q 657 418 657 561 l 657 -14 q 598 -204 657 -137 q 422 -271 539 -271 l 393 -271 l 393 -179 l 422 -179 q 522 -137 486 -179 q 558 -14 558 -94 l 558 415 q 518 569 558 519 q 396 619 478 619 q 320 603 354 619 q 263 557 286 586 q 226 487 239 528 q 213 397 213 446 l 213 0 l 114 0 l 114 824 l 14 824 l 14 911 l 114 911 z "},"ѓ":{"ha":608,"x_min":104,"x_max":536,"o":"m 536 694 l 536 604 l 203 604 l 203 0 l 104 0 l 104 694 l 536 694 m 490 1042 l 372 806 l 271 806 l 386 1042 l 490 1042 z "},"є":{"ha":676,"x_min":83,"x_max":596,"o":"m 499 463 l 499 476 q 460 579 499 539 q 349 619 421 619 q 226 563 269 619 q 182 394 182 506 l 419 394 l 419 307 l 182 307 l 182 301 q 227 129 182 183 q 347 75 272 75 q 461 116 422 75 q 500 219 500 157 l 500 232 l 596 232 l 596 221 q 579 126 596 169 q 531 52 563 83 q 452 3 499 21 q 346 -14 406 -14 q 155 64 226 -14 q 83 304 83 142 l 83 388 q 152 622 83 535 q 351 708 221 708 q 453 691 408 708 q 530 643 499 674 q 578 571 561 613 q 594 481 594 529 l 594 463 l 499 463 z "},"ѕ":{"ha":656,"x_min":69,"x_max":583,"o":"m 471 493 q 431 588 468 554 q 322 621 393 621 q 226 592 260 621 q 192 510 192 563 q 226 429 192 457 q 339 396 260 401 q 525 335 467 388 q 583 190 583 282 q 515 40 583 94 q 333 -14 447 -14 q 148 41 214 -14 q 69 203 82 96 l 174 203 q 222 107 181 140 q 333 74 263 74 q 446 103 406 74 q 486 188 486 132 q 451 272 486 242 q 321 308 415 301 q 94 510 94 324 q 155 653 94 597 q 322 708 215 708 q 503 649 440 708 q 569 493 565 590 l 471 493 z "},"і":{"ha":307,"x_min":71,"x_max":235,"o":"m 203 694 l 203 0 l 104 0 l 104 694 l 203 694 m 153 1053 q 212 1030 189 1053 q 235 971 235 1007 q 212 912 235 935 q 153 889 189 889 q 94 912 118 889 q 71 971 71 935 q 94 1030 71 1007 q 153 1053 118 1053 z "},"ї":{"ha":307,"x_min":-39,"x_max":350,"o":"m 203 694 l 203 0 l 104 0 l 104 694 l 203 694 m 39 1035 q 94 1013 72 1035 q 115 958 115 992 q 94 902 115 924 q 39 881 72 881 q -17 902 4 881 q -39 958 -39 924 q -17 1013 -39 992 q 39 1035 4 1035 m 272 1035 q 328 1013 307 1035 q 350 958 350 992 q 328 902 350 924 q 272 881 307 881 q 217 902 239 881 q 196 958 196 924 q 217 1013 196 992 q 272 1035 239 1035 z "},"ј":{"ha":307,"x_min":-46,"x_max":235,"o":"m 203 694 l 203 -112 q 149 -288 203 -222 q -10 -354 94 -354 l -46 -354 l -46 -262 l -14 -262 q 73 -224 42 -262 q 104 -114 104 -186 l 104 694 l 203 694 m 153 1053 q 212 1030 189 1053 q 235 971 235 1007 q 212 912 235 935 q 153 889 189 889 q 94 912 118 889 q 71 971 71 935 q 94 1030 71 1007 q 153 1053 118 1053 z "},"љ":{"ha":1039,"x_min":35,"x_max":981,"o":"m 615 694 l 615 467 l 726 467 q 913 404 846 467 q 981 233 981 342 q 915 61 981 122 q 726 0 850 0 l 517 0 l 517 606 l 267 606 l 267 249 q 224 51 267 111 q 92 -8 181 -8 q 35 0 61 -8 l 35 83 q 57 81 46 82 q 79 81 68 81 q 146 118 121 81 q 171 250 171 156 l 171 694 l 615 694 m 615 89 l 722 89 q 882 233 882 89 q 842 341 882 304 q 722 378 801 378 l 615 378 l 615 89 z "},"њ":{"ha":1029,"x_min":104,"x_max":969,"o":"m 203 694 l 203 393 l 506 393 l 506 694 l 604 694 l 604 467 l 715 467 q 901 404 833 467 q 969 233 969 342 q 903 61 969 122 q 715 0 838 0 l 506 0 l 506 304 l 203 304 l 203 0 l 104 0 l 104 694 l 203 694 m 604 89 l 711 89 q 830 126 789 89 q 871 233 871 163 q 831 341 871 304 q 711 378 790 378 l 604 378 l 604 89 z "},"ћ":{"ha":754,"x_min":14,"x_max":657,"o":"m 213 1060 l 213 911 l 410 911 l 410 824 l 213 824 l 213 594 q 292 678 242 647 q 411 708 342 708 q 594 635 532 708 q 657 418 657 561 l 657 0 l 558 0 l 558 415 q 518 569 558 519 q 396 619 478 619 q 320 603 354 619 q 263 557 286 586 q 226 487 239 528 q 213 397 213 446 l 213 0 l 114 0 l 114 824 l 14 824 l 14 911 l 114 911 l 114 1060 l 213 1060 z "},"ќ":{"ha":694,"x_min":104,"x_max":635,"o":"m 203 694 l 203 394 l 315 394 q 385 426 358 394 q 414 526 411 457 q 456 658 417 614 q 563 701 496 701 q 619 694 594 701 l 619 611 l 588 611 q 528 585 550 611 q 504 500 506 558 q 483 410 503 446 q 432 358 464 375 q 494 301 471 340 q 521 199 518 261 q 545 107 524 132 q 603 82 567 82 l 635 82 l 635 0 q 606 -5 621 -3 q 575 -7 592 -7 q 474 36 511 -7 q 432 169 436 79 q 399 274 428 242 q 318 306 371 306 l 203 306 l 203 0 l 104 0 l 104 694 l 203 694 m 508 1042 l 390 806 l 289 806 l 404 1042 l 508 1042 z "},"џ":{"ha":718,"x_min":104,"x_max":614,"o":"m 203 694 l 203 89 l 514 89 l 514 694 l 614 694 l 614 0 l 407 0 l 407 -185 l 310 -185 l 310 0 l 104 0 l 104 694 l 203 694 z "},"Ґ":{"ha":786,"x_min":146,"x_max":703,"o":"m 600 1042 l 606 1278 l 703 1278 l 703 949 l 249 949 l 249 0 l 146 0 l 146 1042 l 600 1042 z "},"ґ":{"ha":613,"x_min":104,"x_max":540,"o":"m 447 694 l 451 861 l 540 861 l 540 604 l 203 604 l 203 0 l 104 0 l 104 694 l 447 694 z "},"–":{"ha":868,"x_min":118,"x_max":750,"o":"m 750 410 l 750 319 l 118 319 l 118 410 l 750 410 z "},"—":{"ha":1183,"x_min":146,"x_max":1038,"o":"m 1038 410 l 1038 319 l 146 319 l 146 410 l 1038 410 z "},"‘":{"ha":300,"x_min":71,"x_max":231,"o":"m 231 1004 q 181 977 199 999 q 161 922 164 956 q 212 901 193 921 q 231 846 231 881 q 210 790 231 811 q 154 768 190 768 q 94 794 117 768 q 71 867 71 821 q 115 1013 71 961 q 231 1075 160 1065 l 231 1004 z "},"’":{"ha":300,"x_min":69,"x_max":229,"o":"m 69 824 q 119 851 101 829 q 139 906 136 872 q 88 927 107 907 q 69 982 69 947 q 90 1038 69 1017 q 146 1060 110 1060 q 206 1033 183 1060 q 229 961 229 1007 q 185 815 229 867 q 69 753 140 763 l 69 824 z "},"‚":{"ha":300,"x_min":69,"x_max":229,"o":"m 69 -87 q 119 -60 101 -82 q 139 -6 136 -39 q 88 16 107 -4 q 69 71 69 36 q 90 127 69 106 q 146 149 110 149 q 206 122 183 149 q 229 50 229 96 q 185 -97 229 -44 q 69 -158 140 -149 l 69 -87 z "},"“":{"ha":515,"x_min":72,"x_max":446,"o":"m 446 1000 q 396 974 414 994 q 376 922 378 954 q 427 901 408 921 q 446 846 446 881 q 426 790 446 811 q 369 768 406 768 q 309 794 332 768 q 286 867 286 821 q 330 1010 286 960 q 446 1071 374 1061 l 446 1000 m 232 1007 q 182 978 200 1001 q 161 922 164 956 q 213 901 193 921 q 232 846 232 881 q 211 790 232 811 q 156 768 190 768 q 95 794 118 768 q 72 867 72 821 q 115 1014 72 960 q 232 1078 158 1068 l 232 1007 z "},"”":{"ha":515,"x_min":69,"x_max":443,"o":"m 69 828 q 119 853 101 833 q 139 906 138 874 q 88 927 107 907 q 69 982 69 947 q 90 1038 69 1017 q 146 1060 110 1060 q 206 1033 183 1060 q 229 961 229 1007 q 185 817 229 868 q 69 757 142 767 l 69 828 m 283 821 q 333 849 315 826 q 354 906 351 872 q 303 927 322 907 q 283 982 283 947 q 304 1038 283 1017 q 360 1060 325 1060 q 420 1033 397 1060 q 443 961 443 1007 q 400 814 443 868 q 283 750 357 760 l 283 821 z "},"„":{"ha":515,"x_min":69,"x_max":443,"o":"m 69 -83 q 119 -58 101 -78 q 139 -6 138 -37 q 88 16 107 -4 q 69 71 69 36 q 90 127 69 106 q 146 149 110 149 q 206 122 183 149 q 229 50 229 96 q 185 -94 229 -43 q 69 -154 142 -144 l 69 -83 m 283 -90 q 333 -62 315 -85 q 354 -6 351 -39 q 303 16 322 -4 q 283 71 283 36 q 304 127 283 106 q 360 149 325 149 q 420 122 397 149 q 443 50 443 96 q 400 -97 443 -43 q 283 -161 357 -151 l 283 -90 z "},"†":{"ha":569,"x_min":63,"x_max":507,"o":"m 333 878 l 333 694 l 507 694 l 507 603 l 333 603 l 333 0 l 236 0 l 236 603 l 63 603 l 63 694 l 236 694 l 236 878 l 333 878 z "},"‡":{"ha":569,"x_min":63,"x_max":507,"o":"m 333 878 l 333 694 l 507 694 l 507 603 l 333 603 l 333 275 l 507 275 l 507 183 l 333 183 l 333 0 l 236 0 l 236 183 l 63 183 l 63 275 l 236 275 l 236 603 l 63 603 l 63 694 l 236 694 l 236 878 l 333 878 z "},"•":{"ha":417,"x_min":118,"x_max":297,"o":"m 208 454 q 273 429 249 454 q 297 364 297 404 q 273 301 297 326 q 208 275 249 275 q 142 301 167 275 q 118 364 118 326 q 142 429 118 404 q 208 454 167 454 z "},"…":{"ha":831,"x_min":68,"x_max":761,"o":"m 151 157 q 210 134 188 157 q 233 75 233 111 q 210 15 233 39 q 151 -8 188 -8 q 92 15 115 -8 q 68 75 68 39 q 92 134 68 111 q 151 157 115 157 m 679 157 q 738 134 715 157 q 761 75 761 111 q 738 15 761 39 q 679 -8 715 -8 q 619 15 643 -8 q 596 75 596 39 q 619 134 596 111 q 679 157 643 157 m 415 157 q 474 134 451 157 q 497 75 497 111 q 474 15 497 39 q 415 -8 451 -8 q 356 15 379 -8 q 332 75 332 39 q 356 134 332 111 q 415 157 379 157 z "},"‹":{"ha":419,"x_min":60,"x_max":342,"o":"m 60 364 l 243 594 l 342 594 l 169 347 l 342 99 l 243 99 l 60 329 l 60 364 z "},"›":{"ha":419,"x_min":78,"x_max":358,"o":"m 358 329 l 176 99 l 78 99 l 249 347 l 78 594 l 176 594 l 358 364 l 358 329 z "},"€":{"ha":921,"x_min":65,"x_max":817,"o":"m 714 693 l 714 717 q 659 899 714 832 q 493 967 604 967 q 331 892 389 967 q 263 676 272 817 l 521 676 l 513 586 l 65 586 l 65 676 l 160 676 q 257 961 172 863 q 493 1060 342 1060 q 632 1035 572 1060 q 733 965 692 1010 q 794 857 774 919 q 815 718 815 794 l 815 693 l 714 693 m 817 357 l 817 329 q 794 188 817 251 q 731 78 772 124 q 629 7 689 32 q 493 -18 569 -18 q 256 73 340 -18 q 160 354 172 164 l 65 354 l 65 444 l 499 444 l 492 354 l 263 354 q 490 74 283 74 q 656 142 596 74 q 715 331 715 210 l 715 357 l 817 357 z "},"№":{"ha":1432,"x_min":146,"x_max":1351,"o":"m 1142 847 q 1223 833 1185 847 q 1290 789 1261 818 q 1335 716 1318 760 q 1351 615 1351 672 q 1294 447 1351 511 q 1142 383 1238 383 q 1059 398 1097 383 q 993 442 1021 413 q 949 515 965 471 q 932 615 932 558 q 988 784 932 721 q 1142 847 1044 847 m 1142 760 q 1056 723 1089 760 q 1024 615 1024 686 q 1056 507 1024 543 q 1142 471 1089 471 q 1227 508 1194 471 q 1260 615 1260 544 q 1227 724 1260 688 q 1142 760 1194 760 m 1329 249 l 1329 161 l 953 161 l 953 249 l 1329 249 m 789 1042 l 789 0 l 681 0 l 244 849 l 244 0 l 146 0 l 146 1042 l 251 1042 l 690 188 l 690 1042 l 789 1042 z "},"™":{"ha":868,"x_min":24,"x_max":794,"o":"m 461 1042 l 579 738 l 697 1042 l 794 1042 l 794 582 l 714 582 l 714 893 l 604 610 l 554 610 l 443 893 l 443 582 l 364 582 l 364 967 l 239 967 l 239 582 l 157 582 l 157 967 l 24 967 l 24 1042 l 461 1042 z "},"−":{"ha":632,"x_min":79,"x_max":551,"o":"m 551 571 l 551 479 l 79 479 l 79 571 l 551 571 z "},"≈":{"ha":640,"x_min":82,"x_max":558,"o":"m 558 753 q 522 626 558 674 q 410 579 485 579 q 349 593 371 579 q 310 624 326 607 q 277 656 293 642 q 235 669 261 669 q 188 648 203 669 q 174 590 174 626 l 82 590 q 119 717 82 669 q 231 764 156 764 q 292 750 269 764 q 331 719 314 736 q 363 688 347 701 q 404 674 379 674 q 451 695 436 674 q 465 753 465 717 l 558 753 m 558 460 q 522 333 558 381 q 410 286 485 286 q 349 300 371 286 q 310 331 326 314 q 277 363 293 349 q 235 376 261 376 q 188 355 203 376 q 174 297 174 333 l 82 297 q 119 424 82 376 q 231 471 156 471 q 292 457 269 471 q 331 426 314 443 q 363 394 347 408 q 404 381 379 381 q 451 402 436 381 q 465 460 465 424 l 558 460 z "},"≠":{"ha":640,"x_min":86,"x_max":553,"o":"m 457 878 l 417 717 l 553 717 l 553 626 l 393 626 l 343 424 l 553 424 l 553 333 l 319 333 l 279 169 l 183 169 l 224 333 l 86 333 l 86 424 l 246 424 l 297 626 l 86 626 l 86 717 l 319 717 l 360 878 l 457 878 z "},"≤":{"ha":489,"x_min":56,"x_max":415,"o":"m 290 860 l 415 860 l 172 608 l 415 353 l 290 353 l 56 589 l 56 628 l 290 860 m 58 231 l 415 231 l 415 142 l 58 142 l 58 231 z "},"≥":{"ha":489,"x_min":69,"x_max":429,"o":"m 193 353 l 69 353 l 311 608 l 69 860 l 193 860 l 429 628 l 429 589 l 193 353 m 425 142 l 69 142 l 69 231 l 425 231 l 425 142 z "},"ў":{"ha":697,"x_min":56,"x_max":642,"o":"m 164 694 l 367 104 l 535 694 l 642 694 l 397 -85 q 306 -269 356 -217 q 183 -321 256 -321 q 124 -317 150 -321 l 124 -222 q 149 -224 136 -224 q 174 -224 163 -224 q 245 -192 215 -224 q 300 -74 275 -160 l 317 -19 l 56 694 l 164 694 m 250 1038 l 250 1013 q 276 926 250 957 q 354 894 303 894 q 431 926 404 894 q 457 1013 457 957 l 457 1038 l 551 1038 l 551 1008 q 498 863 551 918 q 354 808 444 808 q 211 863 265 808 q 157 1008 157 917 l 157 1038 l 250 1038 z "},"Ў":{"ha":828,"x_min":56,"x_max":771,"o":"m 172 1042 l 433 367 l 657 1042 l 771 1042 l 460 160 q 381 27 428 68 q 258 -14 333 -14 q 176 -3 218 -14 l 176 90 q 244 83 211 83 q 316 108 285 83 q 364 185 347 132 l 382 246 l 56 1042 l 172 1042 m 300 1425 l 300 1399 q 331 1306 300 1340 q 415 1272 363 1272 q 500 1306 468 1272 q 532 1399 532 1340 l 532 1425 l 622 1425 l 622 1399 q 567 1247 622 1303 q 415 1190 511 1190 q 264 1247 319 1190 q 208 1399 208 1304 l 208 1425 l 300 1425 z "},"£":{"ha":828,"x_min":94,"x_max":728,"o":"m 369 403 q 376 336 376 368 q 347 194 376 256 q 264 93 318 133 l 728 93 l 728 0 l 94 0 l 94 86 q 230 183 186 119 q 274 335 274 247 q 273 356 274 346 q 271 378 272 367 l 131 344 l 131 439 l 246 468 q 215 540 232 504 q 184 615 199 576 q 159 694 169 653 q 149 786 149 736 q 167 898 149 847 q 219 985 185 949 q 303 1040 254 1021 q 413 1060 351 1060 q 607 987 539 1060 q 675 790 675 914 l 675 742 l 575 742 l 575 786 q 534 921 575 874 q 414 968 493 968 q 293 920 336 968 q 250 786 250 872 q 259 703 250 742 q 282 630 268 665 q 313 560 296 594 q 343 492 329 526 l 539 540 l 539 444 l 369 403 z "},"Æ":{"ha":1271,"x_min":44,"x_max":1185,"o":"m 1156 1042 l 1156 949 l 728 949 l 728 578 l 1117 578 l 1117 486 l 728 486 l 728 93 l 1185 93 l 1185 0 l 625 0 l 625 268 l 297 268 l 165 0 l 44 0 l 576 1042 l 1156 1042 m 342 360 l 625 360 l 625 936 l 342 360 z "},"Đ":{"ha":885,"x_min":56,"x_max":792,"o":"m 56 572 l 156 572 l 156 1042 l 410 1042 q 690 940 589 1042 q 792 619 792 839 l 792 422 q 691 103 792 206 q 410 0 590 0 l 156 0 l 156 481 l 56 481 l 56 572 m 404 93 q 522 112 469 93 q 612 169 575 131 q 669 269 649 208 q 689 414 689 331 l 689 628 q 613 872 689 796 q 404 949 536 949 l 258 949 l 258 572 l 481 572 l 481 481 l 258 481 l 258 93 l 404 93 z "},"Ħ":{"ha":961,"x_min":51,"x_max":908,"o":"m 156 836 l 156 1042 l 258 1042 l 258 836 l 701 836 l 701 1042 l 804 1042 l 804 836 l 908 836 l 908 746 l 804 746 l 804 0 l 701 0 l 701 458 l 258 458 l 258 0 l 156 0 l 156 746 l 51 746 l 51 836 l 156 836 m 701 551 l 701 746 l 258 746 l 258 551 l 701 551 z "},"Ł":{"ha":792,"x_min":42,"x_max":715,"o":"m 160 482 l 160 1042 l 263 1042 l 263 529 l 451 614 l 451 513 l 263 428 l 263 93 l 715 93 l 715 0 l 160 0 l 160 382 l 42 329 l 42 429 l 160 482 z "},"Œ":{"ha":1304,"x_min":94,"x_max":1207,"o":"m 1178 1042 l 1178 949 l 756 949 l 756 578 l 1139 578 l 1139 486 l 756 486 l 756 93 l 1207 93 l 1207 0 l 653 0 l 653 100 q 558 12 617 42 q 419 -18 499 -18 q 174 92 254 -18 q 94 426 94 201 l 94 615 q 178 949 94 839 q 419 1060 263 1060 q 653 947 576 1060 l 653 1042 l 1178 1042 m 426 967 q 253 878 308 967 q 197 625 197 790 l 197 415 q 252 161 197 247 q 426 75 307 75 q 601 163 546 75 q 656 415 656 250 l 656 625 q 601 880 656 793 q 426 967 547 967 z "},"Ð":{"ha":885,"x_min":56,"x_max":792,"o":"m 56 572 l 156 572 l 156 1042 l 410 1042 q 690 940 589 1042 q 792 619 792 839 l 792 422 q 691 103 792 206 q 410 0 590 0 l 156 0 l 156 481 l 56 481 l 56 572 m 404 93 q 522 112 469 93 q 612 169 575 131 q 669 269 649 208 q 689 414 689 331 l 689 628 q 613 872 689 796 q 404 949 536 949 l 258 949 l 258 572 l 481 572 l 481 481 l 258 481 l 258 93 l 404 93 z "},"đ":{"ha":738,"x_min":83,"x_max":724,"o":"m 535 0 l 535 99 q 455 15 504 44 q 335 -14 406 -14 q 148 64 213 -14 q 83 301 83 142 l 83 392 q 151 628 83 547 q 346 708 219 708 q 456 683 411 708 q 524 617 501 657 l 524 824 l 336 824 l 336 911 l 524 911 l 524 1060 l 622 1060 l 622 911 l 724 911 l 724 824 l 622 824 l 622 0 l 535 0 m 525 386 q 356 619 525 619 q 227 564 272 619 q 182 390 182 508 l 182 303 q 225 128 182 182 q 350 75 268 75 q 476 134 428 75 q 525 307 525 193 l 525 386 z "},"ı":{"ha":307,"x_min":104,"x_max":203,"o":"m 203 694 l 203 0 l 104 0 l 104 694 l 203 694 z "},"ȷ":{"ha":307,"x_min":-46,"x_max":203,"o":"m 203 694 l 203 -112 q 149 -288 203 -222 q -10 -354 94 -354 l -46 -354 l -46 -262 l -14 -262 q 73 -224 42 -262 q 104 -114 104 -186 l 104 694 l 203 694 z "},"ĸ":{"ha":686,"x_min":104,"x_max":640,"o":"m 524 0 l 315 324 l 203 179 l 203 0 l 104 0 l 104 694 l 203 694 l 203 310 l 494 694 l 615 694 l 379 392 l 640 0 l 524 0 z "},"ł":{"ha":369,"x_min":25,"x_max":344,"o":"m 135 474 l 135 1042 l 235 1042 l 235 517 l 344 563 l 344 464 l 235 418 l 235 0 l 135 0 l 135 375 l 25 329 l 25 428 l 135 474 z "},"ħ":{"ha":754,"x_min":14,"x_max":657,"o":"m 213 1060 l 213 911 l 410 911 l 410 824 l 213 824 l 213 594 q 292 678 242 647 q 411 708 342 708 q 594 635 532 708 q 657 418 657 561 l 657 0 l 558 0 l 558 415 q 518 569 558 519 q 396 619 478 619 q 320 603 354 619 q 263 557 286 586 q 226 487 239 528 q 213 397 213 446 l 213 0 l 114 0 l 114 824 l 14 824 l 14 911 l 114 911 l 114 1060 l 213 1060 z "},"ſ":{"ha":332,"x_min":104,"x_max":356,"o":"m 104 810 q 161 987 104 918 q 328 1056 218 1056 l 356 1056 l 356 964 l 335 964 q 235 923 268 964 q 203 810 203 882 l 203 0 l 104 0 l 104 810 z "},"ŭ":{"ha":732,"x_min":97,"x_max":628,"o":"m 196 694 l 196 286 q 236 127 196 179 q 353 75 276 75 q 481 135 432 75 q 529 299 529 194 l 529 694 l 628 694 l 628 0 l 539 0 l 539 117 q 460 20 513 54 q 336 -14 407 -14 q 158 59 219 -14 q 97 286 97 132 l 97 694 l 196 694 m 261 1038 l 261 1013 q 288 926 261 957 q 365 894 314 894 q 442 926 415 894 q 468 1013 468 957 l 468 1038 l 563 1038 l 563 1008 q 509 863 563 918 q 365 808 456 808 q 222 863 276 808 q 168 1008 168 917 l 168 1038 l 261 1038 z "},"ě":{"ha":694,"x_min":83,"x_max":611,"o":"m 182 315 l 182 301 q 226 132 182 189 q 350 75 271 75 q 466 110 425 75 q 518 211 507 146 l 611 211 q 531 46 597 106 q 349 -14 465 -14 q 156 68 228 -14 q 83 310 83 150 l 83 381 q 101 513 83 453 q 153 617 119 574 q 238 685 188 661 q 351 708 288 708 q 544 625 478 708 q 611 396 611 542 l 611 315 l 182 315 m 353 619 q 224 561 267 619 q 182 400 182 503 l 513 400 l 513 411 q 472 565 513 511 q 353 619 432 619 m 242 1038 l 353 910 l 464 1038 l 564 1038 l 564 1021 l 369 794 l 338 794 l 142 1021 l 142 1038 l 242 1038 z "},"ç":{"ha":679,"x_min":83,"x_max":596,"o":"m 496 440 l 496 463 q 458 576 496 533 q 347 619 419 619 q 225 560 268 619 q 182 389 182 501 l 182 304 q 226 130 182 185 q 344 75 269 75 q 460 118 421 75 q 499 232 499 161 l 499 253 l 596 253 l 596 232 q 530 53 596 119 q 342 -14 464 -14 q 151 64 219 -14 q 83 304 83 142 l 83 388 q 151 622 83 535 q 351 708 219 708 q 455 690 410 708 q 531 640 500 672 q 578 564 563 608 q 594 467 594 519 l 594 440 l 496 440 m 299 -79 q 413 -117 372 -79 q 454 -225 454 -156 q 406 -351 454 -293 q 250 -437 358 -410 l 229 -354 q 332 -301 301 -335 q 363 -226 363 -268 q 294 -161 363 -161 l 254 -161 l 254 -79 l 299 -79 z "},"ŝ":{"ha":656,"x_min":69,"x_max":583,"o":"m 471 493 q 431 588 468 554 q 322 621 393 621 q 226 592 260 621 q 192 510 192 563 q 226 429 192 457 q 339 396 260 401 q 525 335 467 388 q 583 190 583 282 q 515 40 583 94 q 333 -14 447 -14 q 148 41 214 -14 q 69 203 82 96 l 174 203 q 222 107 181 140 q 333 74 263 74 q 446 103 406 74 q 486 188 486 132 q 451 272 486 242 q 321 308 415 301 q 94 510 94 324 q 155 653 94 597 q 322 708 215 708 q 503 649 440 708 q 569 493 565 590 l 471 493 m 353 1068 l 549 842 l 549 825 l 447 825 l 338 953 l 225 825 l 126 825 l 126 842 l 321 1068 l 353 1068 z "},"ş":{"ha":656,"x_min":69,"x_max":583,"o":"m 471 493 q 431 588 468 554 q 322 621 393 621 q 226 592 260 621 q 192 510 192 563 q 226 429 192 457 q 339 396 260 401 q 525 335 467 388 q 583 190 583 282 q 515 40 583 94 q 333 -14 447 -14 q 148 41 214 -14 q 69 203 82 96 l 174 203 q 222 107 181 140 q 333 74 263 74 q 446 103 406 74 q 486 188 486 132 q 451 272 486 242 q 321 308 415 301 q 94 510 94 324 q 155 653 94 597 q 322 708 215 708 q 503 649 440 708 q 569 493 565 590 l 471 493 m 285 -79 q 399 -117 358 -79 q 440 -225 440 -156 q 392 -351 440 -293 q 236 -437 344 -410 l 215 -354 q 318 -301 288 -335 q 349 -226 349 -268 q 281 -161 349 -161 l 240 -161 l 240 -79 l 285 -79 z "},"ș":{"ha":656,"x_min":69,"x_max":583,"o":"m 471 493 q 431 588 468 554 q 322 621 393 621 q 226 592 260 621 q 192 510 192 563 q 226 429 192 457 q 339 396 260 401 q 525 335 467 388 q 583 190 583 282 q 515 40 583 94 q 333 -14 447 -14 q 148 41 214 -14 q 69 203 82 96 l 174 203 q 222 107 181 140 q 333 74 263 74 q 446 103 406 74 q 486 188 486 132 q 451 272 486 242 q 321 308 415 301 q 94 510 94 324 q 155 653 94 597 q 322 708 215 708 q 503 649 440 708 q 569 493 565 590 l 471 493 m 244 -342 q 300 -310 281 -335 q 321 -250 319 -286 q 265 -226 286 -247 q 244 -171 244 -206 q 266 -113 244 -136 q 324 -90 288 -90 q 390 -121 367 -90 q 414 -200 414 -151 q 372 -343 414 -283 q 244 -418 331 -403 l 244 -342 z "},"ë":{"ha":694,"x_min":83,"x_max":611,"o":"m 182 315 l 182 301 q 226 132 182 189 q 350 75 271 75 q 466 110 425 75 q 518 211 507 146 l 611 211 q 531 46 597 106 q 349 -14 465 -14 q 156 68 228 -14 q 83 310 83 150 l 83 381 q 101 513 83 453 q 153 617 119 574 q 238 685 188 661 q 351 708 288 708 q 544 625 478 708 q 611 396 611 542 l 611 315 l 182 315 m 353 619 q 224 561 267 619 q 182 400 182 503 l 513 400 l 513 411 q 472 565 513 511 q 353 619 432 619 m 215 1035 q 270 1013 249 1035 q 292 958 292 992 q 270 902 292 924 q 215 881 249 881 q 159 902 181 881 q 138 958 138 924 q 159 1013 138 992 q 215 1035 181 1035 m 500 1035 q 556 1013 535 1035 q 578 958 578 992 q 556 902 578 924 q 500 881 535 881 q 444 902 467 881 q 422 958 422 924 q 444 1013 422 992 q 500 1035 467 1035 z "},"ő":{"ha":719,"x_min":83,"x_max":636,"o":"m 360 708 q 564 623 492 708 q 636 381 636 538 l 636 313 q 564 73 636 160 q 360 -14 492 -14 q 156 69 228 -14 q 83 313 83 151 l 83 381 q 156 620 83 532 q 360 708 228 708 m 360 619 q 228 558 274 619 q 182 382 182 496 l 182 311 q 228 132 182 189 q 360 75 275 75 q 490 134 443 75 q 538 311 538 193 l 538 382 q 360 619 538 619 m 417 1042 l 319 806 l 226 806 l 315 1042 l 417 1042 m 613 1042 l 497 806 l 404 806 l 511 1042 l 613 1042 z "},"è":{"ha":694,"x_min":83,"x_max":611,"o":"m 182 315 l 182 301 q 226 132 182 189 q 350 75 271 75 q 466 110 425 75 q 518 211 507 146 l 611 211 q 531 46 597 106 q 349 -14 465 -14 q 156 68 228 -14 q 83 310 83 150 l 83 381 q 101 513 83 453 q 153 617 119 574 q 238 685 188 661 q 351 708 288 708 q 544 625 478 708 q 611 396 611 542 l 611 315 l 182 315 m 353 619 q 224 561 267 619 q 182 400 182 503 l 513 400 l 513 411 q 472 565 513 511 q 353 619 432 619 m 300 1042 l 415 806 l 314 806 l 196 1042 l 300 1042 z "},"ȁ":{"ha":718,"x_min":81,"x_max":674,"o":"m 106 479 q 123 572 106 529 q 172 644 140 614 q 249 691 204 674 q 351 708 294 708 q 524 649 465 708 q 583 483 583 589 l 583 163 q 600 97 583 114 q 649 79 617 79 l 674 79 l 674 -1 q 644 -8 660 -6 q 611 -11 628 -11 q 540 18 567 -11 q 510 106 514 47 q 426 17 482 49 q 294 -14 369 -14 q 138 38 194 -14 q 81 182 81 90 q 142 333 81 278 q 325 397 203 388 q 447 428 404 403 q 489 503 489 453 q 456 588 489 556 q 351 619 422 619 q 242 581 281 619 q 203 479 203 543 l 106 479 m 490 376 q 430 335 469 351 q 329 314 390 318 q 213 274 247 307 q 178 186 178 240 q 212 103 178 133 q 308 74 246 74 q 440 124 389 74 q 490 265 490 174 l 490 376 m 413 1042 l 506 806 l 413 806 l 308 1042 l 413 1042 m 213 1042 l 315 806 l 222 806 l 111 1042 l 213 1042 z "},"ō":{"ha":719,"x_min":83,"x_max":636,"o":"m 360 708 q 564 623 492 708 q 636 381 636 538 l 636 313 q 564 73 636 160 q 360 -14 492 -14 q 156 69 228 -14 q 83 313 83 151 l 83 381 q 156 620 83 532 q 360 708 228 708 m 360 619 q 228 558 274 619 q 182 382 182 496 l 182 311 q 228 132 182 189 q 360 75 275 75 q 490 134 443 75 q 538 311 538 193 l 538 382 q 360 619 538 619 m 560 976 l 560 886 l 160 886 l 160 976 l 560 976 z "},"ę":{"ha":694,"x_min":83,"x_max":611,"o":"m 182 315 l 182 301 q 226 132 182 189 q 350 75 271 75 q 466 110 425 75 q 518 211 507 146 l 611 211 q 550 67 599 119 q 520 1 529 35 q 511 -69 511 -33 q 536 -144 511 -117 q 610 -175 561 -172 l 610 -261 q 469 -209 517 -256 q 421 -85 421 -162 q 442 -1 421 -37 q 349 -14 400 -14 q 156 68 228 -14 q 83 310 83 150 l 83 381 q 101 513 83 453 q 153 617 119 574 q 238 685 188 661 q 351 708 288 708 q 544 625 478 708 q 611 396 611 542 l 611 315 l 182 315 m 353 619 q 224 561 267 619 q 182 400 182 503 l 513 400 l 513 411 q 472 565 513 511 q 353 619 432 619 z "},"å":{"ha":718,"x_min":81,"x_max":674,"o":"m 106 479 q 123 572 106 529 q 172 644 140 614 q 249 691 204 674 q 351 708 294 708 q 524 649 465 708 q 583 483 583 589 l 583 163 q 600 97 583 114 q 649 79 617 79 l 674 79 l 674 -1 q 644 -8 660 -6 q 611 -11 628 -11 q 540 18 567 -11 q 510 106 514 47 q 426 17 482 49 q 294 -14 369 -14 q 138 38 194 -14 q 81 182 81 90 q 142 333 81 278 q 325 397 203 388 q 447 428 404 403 q 489 503 489 453 q 456 588 489 556 q 351 619 422 619 q 242 581 281 619 q 203 479 203 543 l 106 479 m 490 376 q 430 335 469 351 q 329 314 390 318 q 213 274 247 307 q 178 186 178 240 q 212 103 178 133 q 308 74 246 74 q 440 124 389 74 q 490 265 490 174 l 490 376 m 358 1133 q 478 1087 433 1133 q 524 972 524 1040 q 512 909 524 939 q 478 858 500 879 q 426 823 456 836 q 358 810 396 810 q 239 856 283 810 q 194 972 194 903 q 206 1035 194 1006 q 240 1085 218 1064 q 291 1120 261 1107 q 358 1133 321 1133 m 358 1056 q 299 1032 321 1056 q 278 972 278 1008 q 299 912 278 936 q 358 888 321 888 q 419 912 397 888 q 440 972 440 936 q 419 1032 440 1008 q 358 1056 397 1056 z "},"ñ":{"ha":743,"x_min":104,"x_max":646,"o":"m 193 694 l 193 574 q 273 673 222 638 q 399 708 324 708 q 581 637 515 708 q 646 424 646 565 l 646 0 l 547 0 l 547 424 q 383 619 547 619 q 306 603 339 619 q 249 556 272 586 q 215 484 226 525 q 203 393 203 443 l 203 0 l 104 0 l 104 694 l 193 694 m 588 1001 l 588 983 q 555 876 588 917 q 457 835 522 835 q 394 849 417 835 q 356 880 372 863 q 326 911 340 897 q 289 925 313 925 q 251 908 265 925 q 238 864 238 892 l 238 850 l 150 850 l 150 867 q 183 974 150 933 q 281 1015 217 1015 q 344 1001 322 1015 q 383 971 367 988 q 413 940 399 954 q 450 926 426 926 q 487 942 474 926 q 500 988 500 958 l 500 1001 l 588 1001 z "},"Ó":{"ha":881,"x_min":94,"x_max":786,"o":"m 440 1060 q 699 947 611 1060 q 786 615 786 835 l 786 426 q 695 93 786 204 q 440 -18 604 -18 q 182 92 269 -18 q 94 426 94 203 l 94 615 q 186 949 94 838 q 440 1060 278 1060 m 440 967 q 260 878 322 967 q 197 625 197 790 l 197 415 q 259 161 197 247 q 440 75 321 75 q 622 163 560 75 q 683 415 683 250 l 683 625 q 622 880 683 793 q 440 967 561 967 m 618 1317 l 276 1193 l 276 1290 l 618 1414 l 618 1317 z "},"Ŏ":{"ha":881,"x_min":94,"x_max":786,"o":"m 440 1060 q 699 947 611 1060 q 786 615 786 835 l 786 426 q 695 93 786 204 q 440 -18 604 -18 q 182 92 269 -18 q 94 426 94 203 l 94 615 q 186 949 94 838 q 440 1060 278 1060 m 440 967 q 260 878 322 967 q 197 625 197 790 l 197 415 q 259 161 197 247 q 440 75 321 75 q 622 163 560 75 q 683 415 683 250 l 683 625 q 622 880 683 793 q 440 967 561 967 m 325 1425 l 325 1399 q 356 1306 325 1340 q 440 1272 388 1272 q 525 1306 493 1272 q 557 1399 557 1340 l 557 1425 l 647 1425 l 647 1399 q 592 1247 647 1303 q 440 1190 536 1190 q 289 1247 344 1190 q 233 1399 233 1304 l 233 1425 l 325 1425 z "},"Š":{"ha":842,"x_min":97,"x_max":744,"o":"m 621 750 l 621 775 q 568 915 621 863 q 418 968 515 968 q 278 916 326 968 q 229 781 229 864 q 273 644 229 696 q 433 579 317 593 q 669 485 593 560 q 744 279 744 410 q 724 159 744 214 q 664 65 704 104 q 565 3 624 25 q 429 -18 506 -18 q 183 65 269 -18 q 97 288 97 149 l 97 310 l 200 310 l 200 283 q 260 132 200 190 q 429 74 319 74 q 588 127 533 74 q 642 276 642 181 q 591 418 642 367 q 413 483 540 469 q 193 576 260 500 q 126 776 126 653 q 147 890 126 838 q 204 979 167 942 q 296 1038 242 1017 q 419 1060 350 1060 q 644 982 564 1060 q 724 771 724 904 l 724 750 l 621 750 m 233 1447 l 429 1293 l 624 1447 l 640 1447 l 640 1349 l 443 1192 l 414 1192 l 218 1349 l 218 1447 l 233 1447 z "},"Ş":{"ha":842,"x_min":97,"x_max":744,"o":"m 621 750 l 621 775 q 568 915 621 863 q 418 968 515 968 q 278 916 326 968 q 229 781 229 864 q 273 644 229 696 q 433 579 317 593 q 669 485 593 560 q 744 279 744 410 q 724 159 744 214 q 664 65 704 104 q 565 3 624 25 q 429 -18 506 -18 q 183 65 269 -18 q 97 288 97 149 l 97 310 l 200 310 l 200 283 q 260 132 200 190 q 429 74 319 74 q 588 127 533 74 q 642 276 642 181 q 591 418 642 367 q 413 483 540 469 q 193 576 260 500 q 126 776 126 653 q 147 890 126 838 q 204 979 167 942 q 296 1038 242 1017 q 419 1060 350 1060 q 644 982 564 1060 q 724 771 724 904 l 724 750 l 621 750 m 376 -100 q 499 -144 453 -100 q 546 -261 546 -189 q 488 -405 546 -344 q 308 -487 431 -465 l 293 -399 q 414 -349 375 -383 q 453 -265 453 -315 q 431 -208 453 -229 q 365 -187 408 -187 l 325 -187 l 325 -100 l 376 -100 z "},"Ŝ":{"ha":842,"x_min":97,"x_max":744,"o":"m 621 750 l 621 775 q 568 915 621 863 q 418 968 515 968 q 278 916 326 968 q 229 781 229 864 q 273 644 229 696 q 433 579 317 593 q 669 485 593 560 q 744 279 744 410 q 724 159 744 214 q 664 65 704 104 q 565 3 624 25 q 429 -18 506 -18 q 183 65 269 -18 q 97 288 97 149 l 97 310 l 200 310 l 200 283 q 260 132 200 190 q 429 74 319 74 q 588 127 533 74 q 642 276 642 181 q 591 418 642 367 q 413 483 540 469 q 193 576 260 500 q 126 776 126 653 q 147 890 126 838 q 204 979 167 942 q 296 1038 242 1017 q 419 1060 350 1060 q 644 982 564 1060 q 724 771 724 904 l 724 750 l 621 750 m 454 1463 l 650 1304 l 650 1206 l 633 1206 l 439 1360 l 243 1206 l 228 1206 l 228 1304 l 424 1463 l 454 1463 z "},"Ș":{"ha":842,"x_min":97,"x_max":744,"o":"m 621 750 l 621 775 q 568 915 621 863 q 418 968 515 968 q 278 916 326 968 q 229 781 229 864 q 273 644 229 696 q 433 579 317 593 q 669 485 593 560 q 744 279 744 410 q 724 159 744 214 q 664 65 704 104 q 565 3 624 25 q 429 -18 506 -18 q 183 65 269 -18 q 97 288 97 149 l 97 310 l 200 310 l 200 283 q 260 132 200 190 q 429 74 319 74 q 588 127 533 74 q 642 276 642 181 q 591 418 642 367 q 413 483 540 469 q 193 576 260 500 q 126 776 126 653 q 147 890 126 838 q 204 979 167 942 q 296 1038 242 1017 q 419 1060 350 1060 q 644 982 564 1060 q 724 771 724 904 l 724 750 l 621 750 m 329 -385 q 387 -353 365 -378 q 411 -289 408 -328 q 356 -267 378 -289 q 335 -211 335 -246 q 356 -154 335 -176 q 414 -132 378 -132 q 476 -160 453 -132 q 500 -237 500 -189 q 458 -381 500 -321 q 329 -456 417 -440 l 329 -385 z "},"Ö":{"ha":881,"x_min":94,"x_max":786,"o":"m 440 1060 q 699 947 611 1060 q 786 615 786 835 l 786 426 q 695 93 786 204 q 440 -18 604 -18 q 182 92 269 -18 q 94 426 94 203 l 94 615 q 186 949 94 838 q 440 1060 278 1060 m 440 967 q 260 878 322 967 q 197 625 197 790 l 197 415 q 259 161 197 247 q 440 75 321 75 q 622 163 560 75 q 683 415 683 250 l 683 625 q 622 880 683 793 q 440 967 561 967 m 278 1404 q 339 1380 315 1404 q 363 1319 363 1356 q 339 1260 363 1283 q 278 1236 315 1236 q 218 1260 242 1236 q 194 1319 194 1283 q 218 1380 194 1356 q 278 1404 242 1404 m 603 1404 q 663 1380 640 1404 q 686 1319 686 1356 q 663 1260 686 1283 q 603 1236 639 1236 q 542 1260 565 1236 q 518 1319 518 1283 q 542 1380 518 1356 q 603 1404 567 1404 z "},"Ë":{"ha":814,"x_min":146,"x_max":717,"o":"m 688 1042 l 688 949 l 249 949 l 249 578 l 649 578 l 649 486 l 249 486 l 249 93 l 717 93 l 717 0 l 146 0 l 146 1042 l 688 1042 m 264 1404 q 325 1380 301 1404 q 349 1319 349 1356 q 325 1260 349 1283 q 264 1236 301 1236 q 204 1260 228 1236 q 181 1319 181 1283 q 204 1380 181 1356 q 264 1404 228 1404 m 589 1404 q 649 1380 626 1404 q 672 1319 672 1356 q 649 1260 672 1283 q 589 1236 625 1236 q 528 1260 551 1236 q 504 1319 504 1283 q 528 1380 504 1356 q 589 1404 553 1404 z "},"İ":{"ha":394,"x_min":113,"x_max":286,"o":"m 249 1042 l 249 0 l 146 0 l 146 1042 l 249 1042 m 199 1407 q 262 1382 238 1407 q 286 1321 286 1357 q 262 1258 286 1283 q 199 1233 238 1233 q 136 1258 160 1233 q 113 1321 113 1283 q 136 1382 113 1357 q 199 1407 160 1407 z "},"Ő":{"ha":881,"x_min":94,"x_max":786,"o":"m 440 1060 q 699 947 611 1060 q 786 615 786 835 l 786 426 q 695 93 786 204 q 440 -18 604 -18 q 182 92 269 -18 q 94 426 94 203 l 94 615 q 186 949 94 838 q 440 1060 278 1060 m 440 967 q 260 878 322 967 q 197 625 197 790 l 197 415 q 259 161 197 247 q 440 75 321 75 q 622 163 560 75 q 683 415 683 250 l 683 625 q 622 880 683 793 q 440 967 561 967 m 483 1458 l 400 1208 l 301 1208 l 385 1458 l 483 1458 m 692 1458 l 607 1208 l 508 1208 l 593 1458 l 692 1458 z "},"Ȑ":{"ha":856,"x_min":146,"x_max":786,"o":"m 668 0 l 468 396 q 401 392 436 392 l 249 392 l 249 0 l 146 0 l 146 1042 l 401 1042 q 664 957 572 1042 q 756 718 756 872 q 706 533 756 610 q 565 421 656 457 l 786 0 l 668 0 m 249 485 l 397 485 q 584 545 515 485 q 653 718 653 606 q 586 889 653 829 q 397 949 519 949 l 249 949 l 249 485 m 493 1458 l 576 1208 l 478 1208 l 394 1458 l 493 1458 m 285 1458 l 368 1208 l 269 1208 l 186 1458 l 285 1458 z "},"Ē":{"ha":814,"x_min":146,"x_max":717,"o":"m 688 1042 l 688 949 l 249 949 l 249 578 l 649 578 l 649 486 l 249 486 l 249 93 l 717 93 l 717 0 l 146 0 l 146 1042 l 688 1042 m 651 1356 l 651 1264 l 192 1264 l 192 1356 l 651 1356 z "},"ą":{"ha":718,"x_min":81,"x_max":681,"o":"m 106 479 q 122 572 106 529 q 170 644 139 614 q 247 691 201 674 q 349 708 292 708 q 525 649 467 708 q 583 485 583 590 l 583 163 q 600 97 583 114 q 649 79 617 79 l 674 79 l 674 -1 q 582 -101 582 -18 q 681 -203 582 -196 l 681 -289 q 540 -236 589 -283 q 492 -110 492 -189 q 507 -40 492 -71 q 550 10 522 -10 q 510 106 514 39 q 426 17 482 49 q 294 -14 369 -14 q 138 38 194 -14 q 81 182 81 90 q 142 333 81 278 q 325 397 203 388 q 447 428 404 403 q 489 503 489 453 q 455 588 489 556 q 349 619 421 619 q 240 581 278 619 q 203 479 203 543 l 106 479 m 490 376 q 430 335 469 351 q 329 314 390 318 q 213 274 247 307 q 179 186 179 240 q 213 103 179 133 q 308 74 246 74 q 440 124 389 74 q 490 265 490 174 l 490 376 z "},"Ę":{"ha":814,"x_min":146,"x_max":735,"o":"m 735 -321 q 567 -263 624 -318 q 511 -118 511 -208 q 554 0 511 -47 l 146 0 l 146 1042 l 688 1042 l 688 949 l 249 949 l 249 578 l 649 578 l 649 486 l 249 486 l 249 92 l 717 92 l 717 0 q 635 -32 664 -3 q 606 -111 606 -61 q 638 -197 606 -165 q 735 -231 669 -228 l 735 -321 z "},"Å":{"ha":879,"x_min":58,"x_max":819,"o":"m 440 1346 q 517 1332 482 1346 q 575 1293 551 1318 q 612 1235 599 1268 q 625 1163 625 1201 q 595 1057 625 1103 q 513 990 565 1011 l 819 0 l 708 0 l 626 275 l 249 275 l 168 0 l 58 0 l 367 990 q 284 1055 314 1010 q 254 1163 254 1100 q 267 1233 254 1200 q 306 1292 281 1267 q 365 1331 331 1317 q 440 1346 399 1346 m 275 367 l 601 367 l 439 922 l 275 367 m 440 1264 q 368 1235 394 1264 q 342 1163 342 1207 q 368 1087 342 1115 q 440 1058 394 1058 q 511 1087 485 1058 q 538 1163 538 1115 q 511 1235 538 1207 q 440 1264 485 1264 z "},"Ñ":{"ha":935,"x_min":146,"x_max":789,"o":"m 789 1042 l 789 0 l 681 0 l 244 849 l 244 0 l 146 0 l 146 1042 l 251 1042 l 690 188 l 690 1042 l 789 1042 m 710 1378 l 710 1364 q 671 1251 710 1293 q 561 1208 632 1208 q 496 1222 519 1208 q 455 1252 472 1236 q 420 1282 438 1268 q 375 1296 403 1296 q 330 1279 344 1296 q 315 1236 315 1263 l 315 1222 l 225 1222 l 225 1236 q 263 1349 225 1307 q 372 1392 301 1392 q 438 1378 414 1392 q 478 1348 461 1364 q 513 1318 496 1332 q 558 1304 531 1304 q 603 1322 589 1304 q 618 1364 618 1339 l 618 1378 l 710 1378 z "},"ĩ":{"ha":307,"x_min":-33,"x_max":346,"o":"m 203 694 l 203 0 l 104 0 l 104 694 l 203 694 m 346 1000 l 346 974 q 319 876 346 914 q 231 838 292 838 q 174 851 193 838 q 142 881 154 864 q 120 910 131 897 q 90 924 110 924 q 49 869 49 924 l 49 851 l -33 851 l -33 878 q -6 976 -33 938 q 81 1014 21 1014 q 138 1001 118 1014 q 169 971 157 988 q 191 941 181 954 q 221 928 201 928 q 263 982 263 928 l 263 1000 l 346 1000 z "},"Á":{"ha":879,"x_min":58,"x_max":819,"o":"m 496 1044 l 819 0 l 708 0 l 626 275 l 249 275 l 168 0 l 58 0 l 385 1044 l 496 1044 m 275 367 l 601 367 l 439 922 l 275 367 m 615 1317 l 274 1193 l 274 1290 l 615 1414 l 615 1317 z "},"Ă":{"ha":879,"x_min":58,"x_max":819,"o":"m 496 1044 l 819 0 l 708 0 l 626 275 l 249 275 l 168 0 l 58 0 l 385 1044 l 496 1044 m 275 367 l 601 367 l 439 922 l 275 367 m 324 1425 l 324 1399 q 355 1306 324 1340 q 439 1272 386 1272 q 524 1306 492 1272 q 556 1399 556 1340 l 556 1425 l 646 1425 l 646 1399 q 590 1247 646 1303 q 439 1190 535 1190 q 288 1247 343 1190 q 232 1399 232 1304 l 232 1425 l 324 1425 z "},"Â":{"ha":879,"x_min":58,"x_max":819,"o":"m 496 1044 l 819 0 l 708 0 l 626 275 l 249 275 l 168 0 l 58 0 l 385 1044 l 496 1044 m 275 367 l 601 367 l 439 922 l 275 367 m 454 1463 l 650 1304 l 650 1206 l 633 1206 l 439 1360 l 243 1206 l 228 1206 l 228 1304 l 424 1463 l 454 1463 z "},"À":{"ha":879,"x_min":58,"x_max":819,"o":"m 496 1044 l 819 0 l 708 0 l 626 275 l 249 275 l 168 0 l 58 0 l 385 1044 l 496 1044 m 275 367 l 601 367 l 439 922 l 275 367 m 268 1414 l 610 1290 l 610 1193 l 268 1317 l 268 1414 z "},"Ä":{"ha":879,"x_min":58,"x_max":819,"o":"m 496 1044 l 819 0 l 708 0 l 626 275 l 249 275 l 168 0 l 58 0 l 385 1044 l 496 1044 m 275 367 l 601 367 l 439 922 l 275 367 m 276 1404 q 338 1380 314 1404 q 361 1319 361 1356 q 338 1260 361 1283 q 276 1236 314 1236 q 217 1260 240 1236 q 193 1319 193 1283 q 217 1380 193 1356 q 276 1404 240 1404 m 601 1404 q 662 1380 639 1404 q 685 1319 685 1356 q 661 1260 685 1283 q 601 1236 638 1236 q 540 1260 564 1236 q 517 1319 517 1283 q 541 1380 517 1356 q 601 1404 565 1404 z "},"Ā":{"ha":879,"x_min":58,"x_max":819,"o":"m 496 1044 l 819 0 l 708 0 l 626 275 l 249 275 l 168 0 l 58 0 l 385 1044 l 496 1044 m 275 367 l 601 367 l 439 922 l 275 367 m 668 1356 l 668 1264 l 208 1264 l 208 1356 l 668 1356 z "},"Ą":{"ha":879,"x_min":58,"x_max":838,"o":"m 838 -321 q 670 -263 726 -318 q 614 -118 614 -208 q 636 -29 614 -68 q 699 33 658 10 l 626 275 l 249 275 l 168 0 l 58 0 l 385 1044 l 496 1044 l 819 0 q 738 -31 767 -1 q 708 -111 708 -61 q 740 -197 708 -165 q 838 -231 772 -228 l 838 -321 m 275 367 l 601 367 l 439 922 l 275 367 z "},"Ã":{"ha":879,"x_min":58,"x_max":819,"o":"m 496 1044 l 819 0 l 708 0 l 626 275 l 249 275 l 168 0 l 58 0 l 385 1044 l 496 1044 m 275 367 l 601 367 l 439 922 l 275 367 m 682 1378 l 682 1364 q 643 1251 682 1293 q 533 1208 604 1208 q 468 1222 492 1208 q 427 1252 444 1236 q 392 1282 410 1268 q 347 1296 375 1296 q 302 1279 317 1296 q 288 1236 288 1263 l 288 1222 l 197 1222 l 197 1236 q 235 1349 197 1307 q 344 1392 274 1392 q 410 1378 386 1392 q 451 1348 433 1364 q 485 1318 468 1332 q 531 1304 503 1304 q 576 1322 561 1304 q 590 1364 590 1339 l 590 1378 l 682 1378 z "},"Ć":{"ha":844,"x_min":93,"x_max":751,"o":"m 647 683 l 647 714 q 593 899 647 831 q 431 967 539 967 q 256 877 317 967 q 196 622 196 788 l 196 418 q 426 75 196 75 q 592 143 533 75 q 650 333 650 211 l 650 364 l 751 364 l 751 333 q 730 190 751 254 q 667 79 708 125 q 567 8 626 33 q 431 -18 507 -18 q 178 90 263 -18 q 93 431 93 197 l 93 607 q 178 942 93 825 q 431 1060 264 1060 q 569 1035 510 1060 q 668 964 628 1010 q 728 855 708 918 q 749 715 749 792 l 749 683 l 647 683 m 608 1317 l 267 1193 l 267 1290 l 608 1414 l 608 1317 z "},"Č":{"ha":844,"x_min":93,"x_max":751,"o":"m 647 683 l 647 714 q 593 899 647 831 q 431 967 539 967 q 256 877 317 967 q 196 622 196 788 l 196 418 q 426 75 196 75 q 592 143 533 75 q 650 333 650 211 l 650 364 l 751 364 l 751 333 q 730 190 751 254 q 667 79 708 125 q 567 8 626 33 q 431 -18 507 -18 q 178 90 263 -18 q 93 431 93 197 l 93 607 q 178 942 93 825 q 431 1060 264 1060 q 569 1035 510 1060 q 668 964 628 1010 q 728 855 708 918 q 749 715 749 792 l 749 683 l 647 683 m 243 1447 l 439 1293 l 633 1447 l 650 1447 l 650 1349 l 453 1192 l 424 1192 l 228 1349 l 228 1447 l 243 1447 z "},"Ç":{"ha":844,"x_min":93,"x_max":751,"o":"m 647 683 l 647 714 q 593 899 647 831 q 431 967 539 967 q 256 877 317 967 q 196 622 196 788 l 196 418 q 426 75 196 75 q 592 143 533 75 q 650 333 650 211 l 650 364 l 751 364 l 751 333 q 730 190 751 254 q 667 79 708 125 q 567 8 626 33 q 431 -18 507 -18 q 178 90 263 -18 q 93 431 93 197 l 93 607 q 178 942 93 825 q 431 1060 264 1060 q 569 1035 510 1060 q 668 964 628 1010 q 728 855 708 918 q 749 715 749 792 l 749 683 l 647 683 m 375 -100 q 498 -144 451 -100 q 544 -261 544 -189 q 487 -405 544 -344 q 307 -487 429 -465 l 292 -399 q 413 -349 374 -383 q 451 -265 451 -315 q 429 -208 451 -229 q 364 -187 407 -187 l 324 -187 l 324 -100 l 375 -100 z "},"Ĉ":{"ha":844,"x_min":93,"x_max":751,"o":"m 647 683 l 647 714 q 593 899 647 831 q 431 967 539 967 q 256 877 317 967 q 196 622 196 788 l 196 418 q 426 75 196 75 q 592 143 533 75 q 650 333 650 211 l 650 364 l 751 364 l 751 333 q 730 190 751 254 q 667 79 708 125 q 567 8 626 33 q 431 -18 507 -18 q 178 90 263 -18 q 93 431 93 197 l 93 607 q 178 942 93 825 q 431 1060 264 1060 q 569 1035 510 1060 q 668 964 628 1010 q 728 855 708 918 q 749 715 749 792 l 749 683 l 647 683 m 458 1463 l 654 1304 l 654 1206 l 638 1206 l 443 1360 l 247 1206 l 232 1206 l 232 1304 l 428 1463 l 458 1463 z "},"Ċ":{"ha":844,"x_min":93,"x_max":751,"o":"m 647 683 l 647 714 q 593 899 647 831 q 431 967 539 967 q 256 877 317 967 q 196 622 196 788 l 196 418 q 426 75 196 75 q 592 143 533 75 q 650 333 650 211 l 650 364 l 751 364 l 751 333 q 730 190 751 254 q 667 79 708 125 q 567 8 626 33 q 431 -18 507 -18 q 178 90 263 -18 q 93 431 93 197 l 93 607 q 178 942 93 825 q 431 1060 264 1060 q 569 1035 510 1060 q 668 964 628 1010 q 728 855 708 918 q 749 715 749 792 l 749 683 l 647 683 m 443 1407 q 506 1382 482 1407 q 531 1321 531 1357 q 506 1258 531 1283 q 443 1233 482 1233 q 381 1258 404 1233 q 357 1321 357 1283 q 381 1382 357 1357 q 443 1407 404 1407 z "},"Ď":{"ha":875,"x_min":146,"x_max":781,"o":"m 399 1042 q 679 940 578 1042 q 781 619 781 839 l 781 422 q 680 103 781 206 q 399 0 579 0 l 146 0 l 146 1042 l 399 1042 m 393 93 q 601 169 525 93 q 678 414 678 246 l 678 628 q 601 872 678 796 q 393 949 525 949 l 249 949 l 249 93 l 393 93 m 236 1447 l 432 1293 l 626 1447 l 643 1447 l 643 1349 l 446 1192 l 417 1192 l 221 1349 l 221 1447 l 236 1447 z "},"É":{"ha":814,"x_min":146,"x_max":717,"o":"m 688 1042 l 688 949 l 249 949 l 249 578 l 649 578 l 649 486 l 249 486 l 249 93 l 717 93 l 717 0 l 146 0 l 146 1042 l 688 1042 m 590 1317 l 249 1193 l 249 1290 l 590 1414 l 590 1317 z "},"Ĕ":{"ha":814,"x_min":146,"x_max":717,"o":"m 688 1042 l 688 949 l 249 949 l 249 578 l 649 578 l 649 486 l 249 486 l 249 93 l 717 93 l 717 0 l 146 0 l 146 1042 l 688 1042 m 308 1425 l 308 1399 q 340 1306 308 1340 q 424 1272 371 1272 q 508 1306 476 1272 q 540 1399 540 1340 l 540 1425 l 631 1425 l 631 1399 q 575 1247 631 1303 q 424 1190 519 1190 q 272 1247 328 1190 q 217 1399 217 1304 l 217 1425 l 308 1425 z "},"Ě":{"ha":814,"x_min":146,"x_max":717,"o":"m 688 1042 l 688 949 l 249 949 l 249 578 l 649 578 l 649 486 l 249 486 l 249 93 l 717 93 l 717 0 l 146 0 l 146 1042 l 688 1042 m 233 1447 l 429 1293 l 624 1447 l 640 1447 l 640 1349 l 443 1192 l 414 1192 l 218 1349 l 218 1447 l 233 1447 z "},"Ê":{"ha":814,"x_min":146,"x_max":717,"o":"m 688 1042 l 688 949 l 249 949 l 249 578 l 649 578 l 649 486 l 249 486 l 249 93 l 717 93 l 717 0 l 146 0 l 146 1042 l 688 1042 m 438 1463 l 633 1304 l 633 1206 l 617 1206 l 422 1360 l 226 1206 l 211 1206 l 211 1304 l 407 1463 l 438 1463 z "},"Ė":{"ha":814,"x_min":146,"x_max":717,"o":"m 688 1042 l 688 949 l 249 949 l 249 578 l 649 578 l 649 486 l 249 486 l 249 93 l 717 93 l 717 0 l 146 0 l 146 1042 l 688 1042 m 426 1407 q 490 1382 465 1407 q 514 1321 514 1357 q 490 1258 514 1283 q 426 1233 465 1233 q 364 1258 388 1233 q 340 1321 340 1283 q 364 1382 340 1357 q 426 1407 388 1407 z "},"È":{"ha":814,"x_min":146,"x_max":717,"o":"m 688 1042 l 688 949 l 249 949 l 249 578 l 649 578 l 649 486 l 249 486 l 249 93 l 717 93 l 717 0 l 146 0 l 146 1042 l 688 1042 m 249 1414 l 590 1290 l 590 1193 l 249 1317 l 249 1414 z "},"Ğ":{"ha":867,"x_min":93,"x_max":749,"o":"m 749 522 l 749 0 l 661 0 l 661 118 q 567 17 628 53 q 422 -18 507 -18 q 176 91 258 -18 q 93 429 93 200 l 93 606 q 180 943 93 826 q 435 1060 267 1060 q 566 1037 508 1060 q 663 972 624 1014 q 724 872 703 931 q 744 743 744 814 l 744 713 l 643 713 l 643 736 q 589 904 643 842 q 431 967 535 967 q 256 878 315 967 q 196 621 196 790 l 196 419 q 429 75 196 75 q 590 142 533 75 q 647 332 647 210 l 647 431 l 451 431 l 451 522 l 749 522 m 328 1425 l 328 1399 q 359 1306 328 1340 q 443 1272 390 1272 q 528 1306 496 1272 q 560 1399 560 1340 l 560 1425 l 650 1425 l 650 1399 q 594 1247 650 1303 q 443 1190 539 1190 q 292 1247 347 1190 q 236 1399 236 1304 l 236 1425 l 328 1425 z "},"Ĝ":{"ha":867,"x_min":93,"x_max":749,"o":"m 749 522 l 749 0 l 661 0 l 661 118 q 567 17 628 53 q 422 -18 507 -18 q 176 91 258 -18 q 93 429 93 200 l 93 606 q 180 943 93 826 q 435 1060 267 1060 q 566 1037 508 1060 q 663 972 624 1014 q 724 872 703 931 q 744 743 744 814 l 744 713 l 643 713 l 643 736 q 589 904 643 842 q 431 967 535 967 q 256 878 315 967 q 196 621 196 790 l 196 419 q 429 75 196 75 q 590 142 533 75 q 647 332 647 210 l 647 431 l 451 431 l 451 522 l 749 522 m 460 1463 l 656 1304 l 656 1206 l 639 1206 l 444 1360 l 249 1206 l 233 1206 l 233 1304 l 429 1463 l 460 1463 z "},"Ģ":{"ha":867,"x_min":93,"x_max":749,"o":"m 749 522 l 749 0 l 661 0 l 661 118 q 567 17 628 53 q 422 -18 507 -18 q 176 91 258 -18 q 93 429 93 200 l 93 606 q 180 943 93 826 q 435 1060 267 1060 q 566 1037 508 1060 q 663 972 624 1014 q 724 872 703 931 q 744 743 744 814 l 744 713 l 643 713 l 643 736 q 589 904 643 842 q 431 967 535 967 q 256 878 315 967 q 196 621 196 790 l 196 419 q 429 75 196 75 q 590 142 533 75 q 647 332 647 210 l 647 431 l 451 431 l 451 522 l 749 522 m 338 -385 q 395 -353 374 -378 q 419 -289 417 -328 q 365 -267 386 -289 q 343 -211 343 -246 q 365 -154 343 -176 q 422 -132 386 -132 q 485 -160 461 -132 q 508 -237 508 -189 q 467 -381 508 -321 q 338 -456 425 -440 l 338 -385 z "},"Ġ":{"ha":867,"x_min":93,"x_max":749,"o":"m 749 522 l 749 0 l 661 0 l 661 118 q 567 17 628 53 q 422 -18 507 -18 q 176 91 258 -18 q 93 429 93 200 l 93 606 q 180 943 93 826 q 435 1060 267 1060 q 566 1037 508 1060 q 663 972 624 1014 q 724 872 703 931 q 744 743 744 814 l 744 713 l 643 713 l 643 736 q 589 904 643 842 q 431 967 535 967 q 256 878 315 967 q 196 621 196 790 l 196 419 q 429 75 196 75 q 590 142 533 75 q 647 332 647 210 l 647 431 l 451 431 l 451 522 l 749 522 m 443 1407 q 506 1382 482 1407 q 531 1321 531 1357 q 506 1258 531 1283 q 443 1233 482 1233 q 381 1258 404 1233 q 357 1321 357 1283 q 381 1382 357 1357 q 443 1407 404 1407 z "},"Ĥ":{"ha":938,"x_min":146,"x_max":792,"o":"m 249 1042 l 249 571 l 689 571 l 689 1042 l 792 1042 l 792 0 l 689 0 l 689 478 l 249 478 l 249 0 l 146 0 l 146 1042 l 249 1042 m 483 1463 l 679 1304 l 679 1206 l 663 1206 l 468 1360 l 272 1206 l 257 1206 l 257 1304 l 453 1463 l 483 1463 z "},"Í":{"ha":394,"x_min":26,"x_max":368,"o":"m 249 1042 l 249 0 l 146 0 l 146 1042 l 249 1042 m 368 1317 l 26 1193 l 26 1290 l 368 1414 l 368 1317 z "},"Ĭ":{"ha":394,"x_min":-8,"x_max":406,"o":"m 249 1042 l 249 0 l 146 0 l 146 1042 l 249 1042 m 83 1425 l 83 1399 q 115 1306 83 1340 q 199 1272 146 1272 q 283 1306 251 1272 q 315 1399 315 1340 l 315 1425 l 406 1425 l 406 1399 q 350 1247 406 1303 q 199 1190 294 1190 q 47 1247 103 1190 q -8 1399 -8 1304 l -8 1425 l 83 1425 z "},"Î":{"ha":394,"x_min":-12,"x_max":410,"o":"m 249 1042 l 249 0 l 146 0 l 146 1042 l 249 1042 m 214 1463 l 410 1304 l 410 1206 l 393 1206 l 199 1360 l 3 1206 l -12 1206 l -12 1304 l 183 1463 l 214 1463 z "},"Ï":{"ha":394,"x_min":-22,"x_max":421,"o":"m 249 1042 l 249 0 l 146 0 l 146 1042 l 249 1042 m 63 1404 q 123 1380 100 1404 q 146 1319 146 1356 q 122 1260 146 1283 q 63 1236 99 1236 q 1 1260 25 1236 q -22 1319 -22 1283 q 2 1380 -22 1356 q 63 1404 26 1404 m 336 1404 q 397 1380 374 1404 q 421 1319 421 1356 q 397 1260 421 1283 q 336 1236 374 1236 q 276 1260 300 1236 q 253 1319 253 1283 q 276 1380 253 1356 q 336 1404 300 1404 z "},"Ì":{"ha":394,"x_min":26,"x_max":368,"o":"m 249 1042 l 249 0 l 146 0 l 146 1042 l 249 1042 m 26 1414 l 368 1290 l 368 1193 l 26 1317 l 26 1414 z "},"Ī":{"ha":394,"x_min":18,"x_max":381,"o":"m 249 1042 l 249 0 l 146 0 l 146 1042 l 249 1042 m 381 1356 l 381 1264 l 18 1264 l 18 1356 l 381 1356 z "},"Į":{"ha":394,"x_min":44,"x_max":269,"o":"m 269 -321 q 101 -262 158 -318 q 44 -118 44 -207 q 72 -21 44 -62 q 146 43 100 21 l 146 1042 l 249 1042 l 249 0 q 169 -32 199 -3 q 140 -111 140 -61 q 173 -196 140 -164 q 269 -231 206 -228 l 269 -321 z "},"Ĩ":{"ha":394,"x_min":-10,"x_max":408,"o":"m 249 1042 l 249 0 l 146 0 l 146 1042 l 249 1042 m 408 1376 l 408 1353 q 378 1248 408 1286 q 282 1210 347 1210 q 222 1224 242 1210 q 190 1253 203 1238 q 165 1283 178 1269 q 125 1297 151 1297 q 76 1240 76 1297 l 76 1224 l -10 1224 l -10 1247 q 21 1352 -10 1314 q 117 1390 51 1390 q 176 1376 156 1390 q 208 1347 196 1363 q 234 1317 221 1331 q 274 1303 247 1303 q 322 1360 322 1303 l 322 1376 l 408 1376 z "},"Ĵ":{"ha":557,"x_min":72,"x_max":575,"o":"m 419 1042 l 419 299 q 350 58 419 135 q 154 -18 281 -18 q 112 -17 132 -18 q 72 -12 92 -15 l 72 81 q 144 76 111 76 q 270 128 222 76 q 318 304 318 181 l 318 1042 l 419 1042 m 379 1463 l 575 1304 l 575 1206 l 558 1206 l 364 1360 l 168 1206 l 153 1206 l 153 1304 l 349 1463 l 379 1463 z "},"Ķ":{"ha":886,"x_min":146,"x_max":824,"o":"m 699 0 l 403 515 l 249 301 l 249 0 l 146 0 l 146 1042 l 249 1042 l 249 451 l 660 1042 l 781 1042 l 471 599 l 824 0 l 699 0 m 385 -350 q 442 -318 421 -343 q 467 -254 464 -293 q 412 -233 433 -254 q 390 -176 390 -211 q 412 -119 390 -142 q 469 -97 433 -97 q 532 -126 508 -97 q 556 -203 556 -154 q 514 -346 556 -286 q 385 -421 472 -406 l 385 -350 z "},"Ĺ":{"ha":776,"x_min":146,"x_max":700,"o":"m 249 1042 l 249 93 l 700 93 l 700 0 l 146 0 l 146 1042 l 249 1042 m 488 1317 l 146 1193 l 146 1290 l 488 1414 l 488 1317 z "},"Ľ":{"ha":776,"x_min":146,"x_max":726,"o":"m 249 1042 l 249 93 l 700 93 l 700 0 l 146 0 l 146 1042 l 249 1042 m 556 806 q 613 838 592 813 q 638 901 635 863 q 583 923 604 901 q 561 979 561 944 q 583 1036 561 1014 q 640 1058 604 1058 q 703 1030 679 1058 q 726 953 726 1001 q 685 810 726 869 q 556 735 643 750 l 556 806 z "},"Ļ":{"ha":776,"x_min":146,"x_max":700,"o":"m 249 1042 l 249 93 l 700 93 l 700 0 l 146 0 l 146 1042 l 249 1042 m 339 -385 q 397 -353 375 -378 q 421 -289 418 -328 q 366 -267 388 -289 q 344 -211 344 -246 q 366 -154 344 -176 q 424 -132 388 -132 q 486 -160 463 -132 q 510 -237 510 -189 q 468 -381 510 -321 q 339 -456 426 -440 l 339 -385 z "},"Ŀ":{"ha":776,"x_min":146,"x_max":700,"o":"m 249 1042 l 249 93 l 700 93 l 700 0 l 146 0 l 146 1042 l 249 1042 m 563 649 q 626 624 601 649 q 650 563 650 599 q 626 500 650 525 q 563 475 601 475 q 500 500 524 475 q 476 563 476 525 q 500 624 476 599 q 563 649 524 649 z "},"Ń":{"ha":935,"x_min":146,"x_max":789,"o":"m 789 1042 l 789 0 l 681 0 l 244 849 l 244 0 l 146 0 l 146 1042 l 251 1042 l 690 188 l 690 1042 l 789 1042 m 638 1317 l 296 1193 l 296 1290 l 638 1414 l 638 1317 z "},"Ň":{"ha":935,"x_min":146,"x_max":789,"o":"m 789 1042 l 789 0 l 681 0 l 244 849 l 244 0 l 146 0 l 146 1042 l 251 1042 l 690 188 l 690 1042 l 789 1042 m 271 1447 l 467 1293 l 661 1447 l 678 1447 l 678 1349 l 481 1192 l 451 1192 l 256 1349 l 256 1447 l 271 1447 z "},"Ņ":{"ha":935,"x_min":146,"x_max":789,"o":"m 789 1042 l 789 0 l 681 0 l 244 849 l 244 0 l 146 0 l 146 1042 l 251 1042 l 690 188 l 690 1042 l 789 1042 m 382 -350 q 440 -318 418 -343 q 464 -254 461 -293 q 409 -233 431 -254 q 388 -176 388 -211 q 409 -119 388 -142 q 467 -97 431 -97 q 529 -126 506 -97 q 553 -203 553 -154 q 511 -346 553 -286 q 382 -421 469 -406 l 382 -350 z "},"Ô":{"ha":881,"x_min":94,"x_max":786,"o":"m 440 1060 q 699 947 611 1060 q 786 615 786 835 l 786 426 q 695 93 786 204 q 440 -18 604 -18 q 182 92 269 -18 q 94 426 94 203 l 94 615 q 186 949 94 838 q 440 1060 278 1060 m 440 967 q 260 878 322 967 q 197 625 197 790 l 197 415 q 259 161 197 247 q 440 75 321 75 q 622 163 560 75 q 683 415 683 250 l 683 625 q 622 880 683 793 q 440 967 561 967 m 456 1463 l 651 1304 l 651 1206 l 635 1206 l 440 1360 l 244 1206 l 229 1206 l 229 1304 l 425 1463 l 456 1463 z "},"Ò":{"ha":881,"x_min":94,"x_max":786,"o":"m 440 1060 q 699 947 611 1060 q 786 615 786 835 l 786 426 q 695 93 786 204 q 440 -18 604 -18 q 182 92 269 -18 q 94 426 94 203 l 94 615 q 186 949 94 838 q 440 1060 278 1060 m 440 967 q 260 878 322 967 q 197 625 197 790 l 197 415 q 259 161 197 247 q 440 75 321 75 q 622 163 560 75 q 683 415 683 250 l 683 625 q 622 880 683 793 q 440 967 561 967 m 271 1414 l 613 1290 l 613 1193 l 271 1317 l 271 1414 z "},"Ō":{"ha":881,"x_min":94,"x_max":786,"o":"m 440 1060 q 699 947 611 1060 q 786 615 786 835 l 786 426 q 695 93 786 204 q 440 -18 604 -18 q 182 92 269 -18 q 94 426 94 203 l 94 615 q 186 949 94 838 q 440 1060 278 1060 m 440 967 q 260 878 322 967 q 197 625 197 790 l 197 415 q 259 161 197 247 q 440 75 321 75 q 622 163 560 75 q 683 415 683 250 l 683 625 q 622 880 683 793 q 440 967 561 967 m 669 1356 l 669 1264 l 210 1264 l 210 1356 l 669 1356 z "},"Õ":{"ha":881,"x_min":94,"x_max":786,"o":"m 440 1060 q 699 947 611 1060 q 786 615 786 835 l 786 426 q 695 93 786 204 q 440 -18 604 -18 q 182 92 269 -18 q 94 426 94 203 l 94 615 q 186 949 94 838 q 440 1060 278 1060 m 440 967 q 260 878 322 967 q 197 625 197 790 l 197 415 q 259 161 197 247 q 440 75 321 75 q 622 163 560 75 q 683 415 683 250 l 683 625 q 622 880 683 793 q 440 967 561 967 m 683 1378 l 683 1364 q 644 1251 683 1293 q 535 1208 606 1208 q 469 1222 493 1208 q 428 1252 446 1236 q 394 1282 411 1268 q 349 1296 376 1296 q 303 1279 318 1296 q 289 1236 289 1263 l 289 1222 l 199 1222 l 199 1236 q 237 1349 199 1307 q 346 1392 275 1392 q 411 1378 388 1392 q 452 1348 435 1364 q 487 1318 469 1332 q 532 1304 504 1304 q 577 1322 563 1304 q 592 1364 592 1339 l 592 1378 l 683 1378 z "},"Ŕ":{"ha":856,"x_min":146,"x_max":786,"o":"m 668 0 l 468 396 q 401 392 436 392 l 249 392 l 249 0 l 146 0 l 146 1042 l 401 1042 q 664 957 572 1042 q 756 718 756 872 q 706 533 756 610 q 565 421 656 457 l 786 0 l 668 0 m 249 485 l 397 485 q 584 545 515 485 q 653 718 653 606 q 586 889 653 829 q 397 949 519 949 l 249 949 l 249 485 m 596 1317 l 254 1193 l 254 1290 l 596 1414 l 596 1317 z "},"Ř":{"ha":856,"x_min":146,"x_max":786,"o":"m 668 0 l 468 396 q 401 392 436 392 l 249 392 l 249 0 l 146 0 l 146 1042 l 401 1042 q 664 957 572 1042 q 756 718 756 872 q 706 533 756 610 q 565 421 656 457 l 786 0 l 668 0 m 249 485 l 397 485 q 584 545 515 485 q 653 718 653 606 q 586 889 653 829 q 397 949 519 949 l 249 949 l 249 485 m 224 1447 l 419 1293 l 614 1447 l 631 1447 l 631 1349 l 433 1192 l 404 1192 l 208 1349 l 208 1447 l 224 1447 z "},"Ŗ":{"ha":856,"x_min":146,"x_max":786,"o":"m 668 0 l 468 396 q 401 392 436 392 l 249 392 l 249 0 l 146 0 l 146 1042 l 401 1042 q 664 957 572 1042 q 756 718 756 872 q 706 533 756 610 q 565 421 656 457 l 786 0 l 668 0 m 249 485 l 397 485 q 584 545 515 485 q 653 718 653 606 q 586 889 653 829 q 397 949 519 949 l 249 949 l 249 485 m 367 -350 q 424 -318 403 -343 q 449 -254 446 -293 q 394 -233 415 -254 q 372 -176 372 -211 q 394 -119 372 -142 q 451 -97 415 -97 q 514 -126 490 -97 q 538 -203 538 -154 q 496 -346 538 -286 q 367 -421 454 -406 l 367 -350 z "},"Ś":{"ha":842,"x_min":97,"x_max":744,"o":"m 621 750 l 621 775 q 568 915 621 863 q 418 968 515 968 q 278 916 326 968 q 229 781 229 864 q 273 644 229 696 q 433 579 317 593 q 669 485 593 560 q 744 279 744 410 q 724 159 744 214 q 664 65 704 104 q 565 3 624 25 q 429 -18 506 -18 q 183 65 269 -18 q 97 288 97 149 l 97 310 l 200 310 l 200 283 q 260 132 200 190 q 429 74 319 74 q 588 127 533 74 q 642 276 642 181 q 591 418 642 367 q 413 483 540 469 q 193 576 260 500 q 126 776 126 653 q 147 890 126 838 q 204 979 167 942 q 296 1038 242 1017 q 419 1060 350 1060 q 644 982 564 1060 q 724 771 724 904 l 724 750 l 621 750 m 600 1317 l 258 1193 l 258 1290 l 600 1414 l 600 1317 z "},"Ť":{"ha":769,"x_min":65,"x_max":703,"o":"m 703 1042 l 703 949 l 436 949 l 436 0 l 333 0 l 333 949 l 65 949 l 65 1042 l 703 1042 m 189 1447 l 385 1293 l 579 1447 l 596 1447 l 596 1349 l 399 1192 l 369 1192 l 174 1349 l 174 1447 l 189 1447 z "},"Ţ":{"ha":769,"x_min":65,"x_max":703,"o":"m 703 1042 l 703 949 l 436 949 l 436 0 l 333 0 l 333 949 l 65 949 l 65 1042 l 703 1042 m 300 -385 q 358 -353 336 -378 q 382 -289 379 -328 q 327 -267 349 -289 q 306 -211 306 -246 q 327 -154 306 -176 q 385 -132 349 -132 q 447 -160 424 -132 q 471 -237 471 -189 q 429 -381 471 -321 q 300 -456 388 -440 l 300 -385 z "},"Ú":{"ha":921,"x_min":135,"x_max":786,"o":"m 238 1042 l 238 379 q 293 151 238 228 q 460 75 349 75 q 683 379 683 75 l 683 1042 l 786 1042 l 786 376 q 706 87 786 192 q 460 -18 626 -18 q 214 85 293 -18 q 135 376 135 189 l 135 1042 l 238 1042 m 631 1317 l 289 1193 l 289 1290 l 631 1414 l 631 1317 z "},"Ŭ":{"ha":921,"x_min":135,"x_max":786,"o":"m 238 1042 l 238 379 q 293 151 238 228 q 460 75 349 75 q 683 379 683 75 l 683 1042 l 786 1042 l 786 376 q 706 87 786 192 q 460 -18 626 -18 q 214 85 293 -18 q 135 376 135 189 l 135 1042 l 238 1042 m 344 1425 l 344 1399 q 376 1306 344 1340 q 460 1272 407 1272 q 544 1306 513 1272 q 576 1399 576 1340 l 576 1425 l 667 1425 l 667 1399 q 611 1247 667 1303 q 460 1190 556 1190 q 308 1247 364 1190 q 253 1399 253 1304 l 253 1425 l 344 1425 z "},"Û":{"ha":921,"x_min":135,"x_max":786,"o":"m 238 1042 l 238 379 q 293 151 238 228 q 460 75 349 75 q 683 379 683 75 l 683 1042 l 786 1042 l 786 376 q 706 87 786 192 q 460 -18 626 -18 q 214 85 293 -18 q 135 376 135 189 l 135 1042 l 238 1042 m 475 1463 l 671 1304 l 671 1206 l 654 1206 l 460 1360 l 264 1206 l 249 1206 l 249 1304 l 444 1463 l 475 1463 z "},"Ü":{"ha":921,"x_min":135,"x_max":786,"o":"m 238 1042 l 238 379 q 293 151 238 228 q 460 75 349 75 q 683 379 683 75 l 683 1042 l 786 1042 l 786 376 q 706 87 786 192 q 460 -18 626 -18 q 214 85 293 -18 q 135 376 135 189 l 135 1042 l 238 1042 m 297 1404 q 358 1380 335 1404 q 382 1319 382 1356 q 358 1260 382 1283 q 297 1236 335 1236 q 238 1260 261 1236 q 214 1319 214 1283 q 238 1380 214 1356 q 297 1404 261 1404 m 622 1404 q 683 1380 660 1404 q 706 1319 706 1356 q 682 1260 706 1283 q 622 1236 658 1236 q 561 1260 585 1236 q 538 1319 538 1283 q 562 1380 538 1356 q 622 1404 586 1404 z "},"Ù":{"ha":921,"x_min":135,"x_max":786,"o":"m 238 1042 l 238 379 q 293 151 238 228 q 460 75 349 75 q 683 379 683 75 l 683 1042 l 786 1042 l 786 376 q 706 87 786 192 q 460 -18 626 -18 q 214 85 293 -18 q 135 376 135 189 l 135 1042 l 238 1042 m 289 1414 l 631 1290 l 631 1193 l 289 1317 l 289 1414 z "},"Ű":{"ha":921,"x_min":135,"x_max":786,"o":"m 238 1042 l 238 379 q 293 151 238 228 q 460 75 349 75 q 683 379 683 75 l 683 1042 l 786 1042 l 786 376 q 706 87 786 192 q 460 -18 626 -18 q 214 85 293 -18 q 135 376 135 189 l 135 1042 l 238 1042 m 481 1458 l 397 1208 l 299 1208 l 382 1458 l 481 1458 m 689 1458 l 604 1208 l 506 1208 l 590 1458 l 689 1458 z "},"Ū":{"ha":921,"x_min":135,"x_max":786,"o":"m 238 1042 l 238 379 q 293 151 238 228 q 460 75 349 75 q 683 379 683 75 l 683 1042 l 786 1042 l 786 376 q 706 87 786 192 q 460 -18 626 -18 q 214 85 293 -18 q 135 376 135 189 l 135 1042 l 238 1042 m 689 1356 l 689 1264 l 229 1264 l 229 1356 l 689 1356 z "},"Ų":{"ha":921,"x_min":135,"x_max":786,"o":"m 604 -322 q 435 -264 490 -319 q 379 -119 379 -208 q 411 -15 379 -60 q 201 101 268 0 q 135 376 135 201 l 135 1042 l 238 1042 l 238 379 q 293 151 238 228 q 460 75 349 75 q 683 379 683 75 l 683 1042 l 786 1042 l 786 376 q 728 118 786 218 q 550 -8 671 18 q 494 -46 515 -19 q 474 -112 474 -72 q 506 -198 474 -167 q 604 -232 539 -229 l 604 -322 z "},"Ů":{"ha":921,"x_min":135,"x_max":786,"o":"m 238 1042 l 238 379 q 293 151 238 228 q 460 75 349 75 q 683 379 683 75 l 683 1042 l 786 1042 l 786 376 q 706 87 786 192 q 460 -18 626 -18 q 214 85 293 -18 q 135 376 135 189 l 135 1042 l 238 1042 m 461 1510 q 538 1496 503 1510 q 596 1457 572 1482 q 633 1398 619 1432 q 646 1325 646 1364 q 633 1253 646 1286 q 595 1194 619 1219 q 537 1156 571 1169 q 461 1142 503 1142 q 325 1194 375 1142 q 275 1325 275 1246 q 288 1397 275 1363 q 326 1456 301 1431 q 385 1495 351 1481 q 461 1510 419 1510 m 461 1428 q 389 1399 415 1428 q 363 1325 363 1369 q 389 1251 363 1279 q 461 1222 415 1222 q 532 1251 506 1222 q 558 1325 558 1279 q 532 1399 558 1369 q 461 1428 506 1428 z "},"Ũ":{"ha":921,"x_min":135,"x_max":786,"o":"m 238 1042 l 238 379 q 293 151 238 228 q 460 75 349 75 q 683 379 683 75 l 683 1042 l 786 1042 l 786 376 q 706 87 786 192 q 460 -18 626 -18 q 214 85 293 -18 q 135 376 135 189 l 135 1042 l 238 1042 m 703 1378 l 703 1364 q 664 1251 703 1293 q 554 1208 625 1208 q 489 1222 513 1208 q 448 1252 465 1236 q 413 1282 431 1268 q 368 1296 396 1296 q 323 1279 338 1296 q 308 1236 308 1263 l 308 1222 l 218 1222 l 218 1236 q 256 1349 218 1307 q 365 1392 294 1392 q 431 1378 407 1392 q 472 1348 454 1364 q 506 1318 489 1332 q 551 1304 524 1304 q 597 1322 582 1304 q 611 1364 611 1339 l 611 1378 l 703 1378 z "},"Ŵ":{"ha":1169,"x_min":56,"x_max":1113,"o":"m 168 1042 l 349 167 l 539 1042 l 633 1042 l 824 167 l 1003 1042 l 1113 1042 l 876 -3 l 763 -3 l 583 829 l 404 -3 l 290 -3 l 56 1042 l 168 1042 m 600 1463 l 796 1304 l 796 1206 l 779 1206 l 585 1360 l 389 1206 l 374 1206 l 374 1304 l 569 1463 l 600 1463 z "},"Ý":{"ha":826,"x_min":56,"x_max":771,"o":"m 175 1042 l 414 471 l 654 1042 l 771 1042 l 464 356 l 464 0 l 361 0 l 361 356 l 56 1042 l 175 1042 m 590 1317 l 249 1193 l 249 1290 l 590 1414 l 590 1317 z "},"Ŷ":{"ha":826,"x_min":56,"x_max":771,"o":"m 175 1042 l 414 471 l 654 1042 l 771 1042 l 464 356 l 464 0 l 361 0 l 361 356 l 56 1042 l 175 1042 m 428 1463 l 624 1304 l 624 1206 l 607 1206 l 413 1360 l 217 1206 l 201 1206 l 201 1304 l 397 1463 l 428 1463 z "},"Ÿ":{"ha":826,"x_min":56,"x_max":771,"o":"m 175 1042 l 414 471 l 654 1042 l 771 1042 l 464 356 l 464 0 l 361 0 l 361 356 l 56 1042 l 175 1042 m 250 1404 q 311 1380 288 1404 q 335 1319 335 1356 q 311 1260 335 1283 q 250 1236 288 1236 q 190 1260 214 1236 q 167 1319 167 1283 q 190 1380 167 1356 q 250 1404 214 1404 m 575 1404 q 635 1380 613 1404 q 658 1319 658 1356 q 635 1260 658 1283 q 575 1236 611 1236 q 514 1260 538 1236 q 490 1319 490 1283 q 515 1380 490 1356 q 575 1404 539 1404 z "},"Ź":{"ha":810,"x_min":93,"x_max":717,"o":"m 699 1042 l 699 964 l 214 93 l 717 93 l 717 0 l 93 0 l 93 76 l 579 949 l 111 949 l 111 1042 l 699 1042 m 579 1317 l 238 1193 l 238 1290 l 579 1414 l 579 1317 z "},"Ž":{"ha":810,"x_min":93,"x_max":717,"o":"m 699 1042 l 699 964 l 214 93 l 717 93 l 717 0 l 93 0 l 93 76 l 579 949 l 111 949 l 111 1042 l 699 1042 m 214 1447 l 410 1293 l 604 1447 l 621 1447 l 621 1349 l 424 1192 l 394 1192 l 199 1349 l 199 1447 l 214 1447 z "},"Ż":{"ha":810,"x_min":93,"x_max":717,"o":"m 699 1042 l 699 964 l 214 93 l 717 93 l 717 0 l 93 0 l 93 76 l 579 949 l 111 949 l 111 1042 l 699 1042 m 413 1407 q 476 1382 451 1407 q 500 1321 500 1357 q 476 1258 500 1283 q 413 1233 451 1233 q 350 1258 374 1233 q 326 1321 326 1283 q 350 1382 326 1357 q 413 1407 374 1407 z "},"ă":{"ha":718,"x_min":81,"x_max":674,"o":"m 106 479 q 123 572 106 529 q 172 644 140 614 q 249 691 204 674 q 351 708 294 708 q 524 649 465 708 q 583 483 583 589 l 583 163 q 600 97 583 114 q 649 79 617 79 l 674 79 l 674 -1 q 644 -8 660 -6 q 611 -11 628 -11 q 540 18 567 -11 q 510 106 514 47 q 426 17 482 49 q 294 -14 369 -14 q 138 38 194 -14 q 81 182 81 90 q 142 333 81 278 q 325 397 203 388 q 447 428 404 403 q 489 503 489 453 q 456 588 489 556 q 351 619 422 619 q 242 581 281 619 q 203 479 203 543 l 106 479 m 490 376 q 430 335 469 351 q 329 314 390 318 q 213 274 247 307 q 178 186 178 240 q 212 103 178 133 q 308 74 246 74 q 440 124 389 74 q 490 265 490 174 l 490 376 m 251 1038 l 251 1013 q 278 926 251 957 q 356 894 304 894 q 432 926 406 894 q 458 1013 458 957 l 458 1038 l 553 1038 l 553 1008 q 499 863 553 918 q 356 808 446 808 q 213 863 267 808 q 158 1008 158 917 l 158 1038 l 251 1038 z "},"â":{"ha":718,"x_min":81,"x_max":674,"o":"m 106 479 q 123 572 106 529 q 172 644 140 614 q 249 691 204 674 q 351 708 294 708 q 524 649 465 708 q 583 483 583 589 l 583 163 q 600 97 583 114 q 649 79 617 79 l 674 79 l 674 -1 q 644 -8 660 -6 q 611 -11 628 -11 q 540 18 567 -11 q 510 106 514 47 q 426 17 482 49 q 294 -14 369 -14 q 138 38 194 -14 q 81 182 81 90 q 142 333 81 278 q 325 397 203 388 q 447 428 404 403 q 489 503 489 453 q 456 588 489 556 q 351 619 422 619 q 242 581 281 619 q 203 479 203 543 l 106 479 m 490 376 q 430 335 469 351 q 329 314 390 318 q 213 274 247 307 q 178 186 178 240 q 212 103 178 133 q 308 74 246 74 q 440 124 389 74 q 490 265 490 174 l 490 376 m 375 1068 l 571 842 l 571 825 l 469 825 l 360 953 l 247 825 l 149 825 l 149 842 l 343 1068 l 375 1068 z "},"ä":{"ha":718,"x_min":81,"x_max":674,"o":"m 106 479 q 123 572 106 529 q 172 644 140 614 q 249 691 204 674 q 351 708 294 708 q 524 649 465 708 q 583 483 583 589 l 583 163 q 600 97 583 114 q 649 79 617 79 l 674 79 l 674 -1 q 644 -8 660 -6 q 611 -11 628 -11 q 540 18 567 -11 q 510 106 514 47 q 426 17 482 49 q 294 -14 369 -14 q 138 38 194 -14 q 81 182 81 90 q 142 333 81 278 q 325 397 203 388 q 447 428 404 403 q 489 503 489 453 q 456 588 489 556 q 351 619 422 619 q 242 581 281 619 q 203 479 203 543 l 106 479 m 490 376 q 430 335 469 351 q 329 314 390 318 q 213 274 247 307 q 178 186 178 240 q 212 103 178 133 q 308 74 246 74 q 440 124 389 74 q 490 265 490 174 l 490 376 m 215 1035 q 270 1013 249 1035 q 292 958 292 992 q 270 902 292 924 q 215 881 249 881 q 159 902 181 881 q 138 958 138 924 q 159 1013 138 992 q 215 1035 181 1035 m 500 1035 q 556 1013 535 1035 q 578 958 578 992 q 556 902 578 924 q 500 881 535 881 q 444 902 467 881 q 422 958 422 924 q 444 1013 422 992 q 500 1035 467 1035 z "},"à":{"ha":718,"x_min":81,"x_max":674,"o":"m 106 479 q 123 572 106 529 q 172 644 140 614 q 249 691 204 674 q 351 708 294 708 q 524 649 465 708 q 583 483 583 589 l 583 163 q 600 97 583 114 q 649 79 617 79 l 674 79 l 674 -1 q 644 -8 660 -6 q 611 -11 628 -11 q 540 18 567 -11 q 510 106 514 47 q 426 17 482 49 q 294 -14 369 -14 q 138 38 194 -14 q 81 182 81 90 q 142 333 81 278 q 325 397 203 388 q 447 428 404 403 q 489 503 489 453 q 456 588 489 556 q 351 619 422 619 q 242 581 281 619 q 203 479 203 543 l 106 479 m 490 376 q 430 335 469 351 q 329 314 390 318 q 213 274 247 307 q 178 186 178 240 q 212 103 178 133 q 308 74 246 74 q 440 124 389 74 q 490 265 490 174 l 490 376 m 304 1042 l 419 806 l 318 806 l 200 1042 l 304 1042 z "},"ā":{"ha":718,"x_min":81,"x_max":674,"o":"m 106 479 q 123 572 106 529 q 172 644 140 614 q 249 691 204 674 q 351 708 294 708 q 524 649 465 708 q 583 483 583 589 l 583 163 q 600 97 583 114 q 649 79 617 79 l 674 79 l 674 -1 q 644 -8 660 -6 q 611 -11 628 -11 q 540 18 567 -11 q 510 106 514 47 q 426 17 482 49 q 294 -14 369 -14 q 138 38 194 -14 q 81 182 81 90 q 142 333 81 278 q 325 397 203 388 q 447 428 404 403 q 489 503 489 453 q 456 588 489 556 q 351 619 422 619 q 242 581 281 619 q 203 479 203 543 l 106 479 m 490 376 q 430 335 469 351 q 329 314 390 318 q 213 274 247 307 q 178 186 178 240 q 212 103 178 133 q 308 74 246 74 q 440 124 389 74 q 490 265 490 174 l 490 376 m 557 976 l 557 886 l 157 886 l 157 976 l 557 976 z "},"ã":{"ha":718,"x_min":81,"x_max":674,"o":"m 106 479 q 123 572 106 529 q 172 644 140 614 q 249 691 204 674 q 351 708 294 708 q 524 649 465 708 q 583 483 583 589 l 583 163 q 600 97 583 114 q 649 79 617 79 l 674 79 l 674 -1 q 644 -8 660 -6 q 611 -11 628 -11 q 540 18 567 -11 q 510 106 514 47 q 426 17 482 49 q 294 -14 369 -14 q 138 38 194 -14 q 81 182 81 90 q 142 333 81 278 q 325 397 203 388 q 447 428 404 403 q 489 503 489 453 q 456 588 489 556 q 351 619 422 619 q 242 581 281 619 q 203 479 203 543 l 106 479 m 490 376 q 430 335 469 351 q 329 314 390 318 q 213 274 247 307 q 178 186 178 240 q 212 103 178 133 q 308 74 246 74 q 440 124 389 74 q 490 265 490 174 l 490 376 m 578 1001 l 578 983 q 545 876 578 917 q 447 835 513 835 q 385 849 407 835 q 347 880 363 863 q 317 911 331 897 q 279 925 303 925 q 242 908 256 925 q 228 864 228 892 l 228 850 l 140 850 l 140 867 q 174 974 140 933 q 271 1015 207 1015 q 335 1001 313 1015 q 373 971 357 988 q 403 940 389 954 q 440 926 417 926 q 477 942 464 926 q 490 988 490 958 l 490 1001 l 578 1001 z "},"ć":{"ha":679,"x_min":83,"x_max":596,"o":"m 496 440 l 496 463 q 458 576 496 533 q 347 619 419 619 q 225 560 268 619 q 182 389 182 501 l 182 304 q 226 130 182 185 q 344 75 269 75 q 460 118 421 75 q 499 232 499 161 l 499 253 l 596 253 l 596 232 q 530 53 596 119 q 342 -14 464 -14 q 151 64 219 -14 q 83 304 83 142 l 83 388 q 151 622 83 535 q 351 708 219 708 q 455 690 410 708 q 531 640 500 672 q 578 564 563 608 q 594 467 594 519 l 594 440 l 496 440 m 522 1042 l 404 806 l 303 806 l 418 1042 l 522 1042 z "},"č":{"ha":679,"x_min":83,"x_max":596,"o":"m 496 440 l 496 463 q 458 576 496 533 q 347 619 419 619 q 225 560 268 619 q 182 389 182 501 l 182 304 q 226 130 182 185 q 344 75 269 75 q 460 118 421 75 q 499 232 499 161 l 499 253 l 596 253 l 596 232 q 530 53 596 119 q 342 -14 464 -14 q 151 64 219 -14 q 83 304 83 142 l 83 388 q 151 622 83 535 q 351 708 219 708 q 455 690 410 708 q 531 640 500 672 q 578 564 563 608 q 594 467 594 519 l 594 440 l 496 440 m 244 1038 l 356 910 l 467 1038 l 567 1038 l 567 1021 l 372 794 l 340 794 l 144 1021 l 144 1038 l 244 1038 z "},"ĉ":{"ha":679,"x_min":83,"x_max":596,"o":"m 496 440 l 496 463 q 458 576 496 533 q 347 619 419 619 q 225 560 268 619 q 182 389 182 501 l 182 304 q 226 130 182 185 q 344 75 269 75 q 460 118 421 75 q 499 232 499 161 l 499 253 l 596 253 l 596 232 q 530 53 596 119 q 342 -14 464 -14 q 151 64 219 -14 q 83 304 83 142 l 83 388 q 151 622 83 535 q 351 708 219 708 q 455 690 410 708 q 531 640 500 672 q 578 564 563 608 q 594 467 594 519 l 594 440 l 496 440 m 369 1068 l 565 842 l 565 825 l 464 825 l 354 953 l 242 825 l 143 825 l 143 842 l 338 1068 l 369 1068 z "},"ċ":{"ha":679,"x_min":83,"x_max":596,"o":"m 496 440 l 496 463 q 458 576 496 533 q 347 619 419 619 q 225 560 268 619 q 182 389 182 501 l 182 304 q 226 130 182 185 q 344 75 269 75 q 460 118 421 75 q 499 232 499 161 l 499 253 l 596 253 l 596 232 q 530 53 596 119 q 342 -14 464 -14 q 151 64 219 -14 q 83 304 83 142 l 83 388 q 151 622 83 535 q 351 708 219 708 q 455 690 410 708 q 531 640 500 672 q 578 564 563 608 q 594 467 594 519 l 594 440 l 496 440 m 356 1053 q 415 1030 392 1053 q 438 971 438 1007 q 415 912 438 935 q 356 889 392 889 q 297 912 319 889 q 274 971 274 935 q 297 1030 274 1007 q 356 1053 319 1053 z "},"ď":{"ha":907,"x_min":83,"x_max":914,"o":"m 535 0 l 535 99 q 455 15 504 44 q 335 -14 406 -14 q 148 64 213 -14 q 83 301 83 142 l 83 392 q 151 628 83 547 q 346 708 219 708 q 456 683 411 708 q 524 617 501 657 l 524 1042 l 622 1042 l 622 0 l 535 0 m 525 386 q 356 619 525 619 q 227 564 272 619 q 182 390 182 508 l 182 303 q 225 128 182 182 q 350 75 268 75 q 476 134 428 75 q 525 307 525 193 l 525 386 m 744 808 q 800 840 781 815 q 821 900 819 864 q 765 924 786 903 q 744 979 744 944 q 766 1037 744 1014 q 824 1060 788 1060 q 890 1029 867 1060 q 914 950 914 999 q 872 807 914 867 q 744 732 831 747 l 744 808 z "},"é":{"ha":694,"x_min":83,"x_max":611,"o":"m 182 315 l 182 301 q 226 132 182 189 q 350 75 271 75 q 466 110 425 75 q 518 211 507 146 l 611 211 q 531 46 597 106 q 349 -14 465 -14 q 156 68 228 -14 q 83 310 83 150 l 83 381 q 101 513 83 453 q 153 617 119 574 q 238 685 188 661 q 351 708 288 708 q 544 625 478 708 q 611 396 611 542 l 611 315 l 182 315 m 353 619 q 224 561 267 619 q 182 400 182 503 l 513 400 l 513 411 q 472 565 513 511 q 353 619 432 619 m 521 1042 l 403 806 l 301 806 l 417 1042 l 521 1042 z "},"ĕ":{"ha":694,"x_min":83,"x_max":611,"o":"m 182 315 l 182 301 q 226 132 182 189 q 350 75 271 75 q 466 110 425 75 q 518 211 507 146 l 611 211 q 531 46 597 106 q 349 -14 465 -14 q 156 68 228 -14 q 83 310 83 150 l 83 381 q 101 513 83 453 q 153 617 119 574 q 238 685 188 661 q 351 708 288 708 q 544 625 478 708 q 611 396 611 542 l 611 315 l 182 315 m 353 619 q 224 561 267 619 q 182 400 182 503 l 513 400 l 513 411 q 472 565 513 511 q 353 619 432 619 m 250 1038 l 250 1013 q 276 926 250 957 q 354 894 303 894 q 431 926 404 894 q 457 1013 457 957 l 457 1038 l 551 1038 l 551 1008 q 498 863 551 918 q 354 808 444 808 q 211 863 265 808 q 157 1008 157 917 l 157 1038 l 250 1038 z "},"ê":{"ha":694,"x_min":83,"x_max":611,"o":"m 182 315 l 182 301 q 226 132 182 189 q 350 75 271 75 q 466 110 425 75 q 518 211 507 146 l 611 211 q 531 46 597 106 q 349 -14 465 -14 q 156 68 228 -14 q 83 310 83 150 l 83 381 q 101 513 83 453 q 153 617 119 574 q 238 685 188 661 q 351 708 288 708 q 544 625 478 708 q 611 396 611 542 l 611 315 l 182 315 m 353 619 q 224 561 267 619 q 182 400 182 503 l 513 400 l 513 411 q 472 565 513 511 q 353 619 432 619 m 372 1068 l 568 842 l 568 825 l 467 825 l 357 953 l 244 825 l 146 825 l 146 842 l 340 1068 l 372 1068 z "},"ė":{"ha":694,"x_min":83,"x_max":611,"o":"m 182 315 l 182 301 q 226 132 182 189 q 350 75 271 75 q 466 110 425 75 q 518 211 507 146 l 611 211 q 531 46 597 106 q 349 -14 465 -14 q 156 68 228 -14 q 83 310 83 150 l 83 381 q 101 513 83 453 q 153 617 119 574 q 238 685 188 661 q 351 708 288 708 q 544 625 478 708 q 611 396 611 542 l 611 315 l 182 315 m 353 619 q 224 561 267 619 q 182 400 182 503 l 513 400 l 513 411 q 472 565 513 511 q 353 619 432 619 m 358 1053 q 417 1030 394 1053 q 440 971 440 1007 q 417 912 440 935 q 358 889 394 889 q 299 912 322 889 q 276 971 276 935 q 299 1030 276 1007 q 358 1053 322 1053 z "},"ē":{"ha":694,"x_min":83,"x_max":611,"o":"m 182 315 l 182 301 q 226 132 182 189 q 350 75 271 75 q 466 110 425 75 q 518 211 507 146 l 611 211 q 531 46 597 106 q 349 -14 465 -14 q 156 68 228 -14 q 83 310 83 150 l 83 381 q 101 513 83 453 q 153 617 119 574 q 238 685 188 661 q 351 708 288 708 q 544 625 478 708 q 611 396 611 542 l 611 315 l 182 315 m 353 619 q 224 561 267 619 q 182 400 182 503 l 513 400 l 513 411 q 472 565 513 511 q 353 619 432 619 m 557 976 l 557 886 l 157 886 l 157 976 l 557 976 z "},"ğ":{"ha":715,"x_min":58,"x_max":650,"o":"m 650 622 l 514 622 q 563 553 546 594 q 579 461 579 511 l 579 449 q 562 349 579 394 q 513 272 544 304 q 438 222 482 239 q 339 204 393 204 q 303 206 319 204 q 269 211 286 208 q 244 181 253 200 q 236 138 236 161 q 257 79 236 101 q 315 57 278 57 l 390 57 q 569 1 508 57 q 629 -150 629 -54 q 608 -250 629 -204 q 547 -329 586 -296 q 450 -381 507 -362 q 322 -400 393 -400 q 125 -339 192 -400 q 58 -178 58 -278 q 97 -49 58 -103 q 197 22 135 4 q 143 135 143 51 q 156 197 143 168 q 192 246 168 226 q 97 449 97 310 l 97 461 q 114 559 97 514 q 162 638 131 604 q 238 690 193 671 q 339 708 283 708 l 650 708 l 650 622 m 311 -33 q 192 -72 229 -33 q 154 -172 154 -110 q 198 -274 154 -237 q 325 -311 242 -311 q 479 -267 425 -311 q 533 -150 533 -224 q 496 -65 533 -96 q 388 -33 458 -33 l 311 -33 m 339 621 q 233 578 272 621 q 193 461 193 535 l 193 449 q 231 330 193 369 q 339 290 269 290 q 442 332 401 290 q 483 449 483 374 l 483 461 q 447 578 483 536 q 339 621 410 621 m 246 1042 l 246 1017 q 272 930 246 961 q 350 899 299 899 q 426 930 400 899 q 453 1017 453 961 l 453 1042 l 547 1042 l 547 1013 q 494 867 547 922 q 350 813 440 813 q 207 867 261 813 q 153 1013 153 921 l 153 1042 l 246 1042 z "},"ĝ":{"ha":715,"x_min":58,"x_max":650,"o":"m 650 622 l 514 622 q 563 553 546 594 q 579 461 579 511 l 579 449 q 562 349 579 394 q 513 272 544 304 q 438 222 482 239 q 339 204 393 204 q 303 206 319 204 q 269 211 286 208 q 244 181 253 200 q 236 138 236 161 q 257 79 236 101 q 315 57 278 57 l 390 57 q 569 1 508 57 q 629 -150 629 -54 q 608 -250 629 -204 q 547 -329 586 -296 q 450 -381 507 -362 q 322 -400 393 -400 q 125 -339 192 -400 q 58 -178 58 -278 q 97 -49 58 -103 q 197 22 135 4 q 143 135 143 51 q 156 197 143 168 q 192 246 168 226 q 97 449 97 310 l 97 461 q 114 559 97 514 q 162 638 131 604 q 238 690 193 671 q 339 708 283 708 l 650 708 l 650 622 m 311 -33 q 192 -72 229 -33 q 154 -172 154 -110 q 198 -274 154 -237 q 325 -311 242 -311 q 479 -267 425 -311 q 533 -150 533 -224 q 496 -65 533 -96 q 388 -33 458 -33 l 311 -33 m 339 621 q 233 578 272 621 q 193 461 193 535 l 193 449 q 231 330 193 369 q 339 290 269 290 q 442 332 401 290 q 483 449 483 374 l 483 461 q 447 578 483 536 q 339 621 410 621 m 376 1068 l 572 842 l 572 825 l 471 825 l 361 953 l 249 825 l 150 825 l 150 842 l 344 1068 l 376 1068 z "},"ģ":{"ha":715,"x_min":58,"x_max":650,"o":"m 650 622 l 514 622 q 563 553 546 594 q 579 461 579 511 l 579 449 q 562 349 579 394 q 513 272 544 304 q 438 222 482 239 q 339 204 393 204 q 303 206 319 204 q 269 211 286 208 q 244 181 253 200 q 236 138 236 161 q 257 79 236 101 q 315 57 278 57 l 390 57 q 569 1 508 57 q 629 -150 629 -54 q 608 -250 629 -204 q 547 -329 586 -296 q 450 -381 507 -362 q 322 -400 393 -400 q 125 -339 192 -400 q 58 -178 58 -278 q 97 -49 58 -103 q 197 22 135 4 q 143 135 143 51 q 156 197 143 168 q 192 246 168 226 q 97 449 97 310 l 97 461 q 114 559 97 514 q 162 638 131 604 q 238 690 193 671 q 339 708 283 708 l 650 708 l 650 622 m 311 -33 q 192 -72 229 -33 q 154 -172 154 -110 q 198 -274 154 -237 q 325 -311 242 -311 q 479 -267 425 -311 q 533 -150 533 -224 q 496 -65 533 -96 q 388 -33 458 -33 l 311 -33 m 339 621 q 233 578 272 621 q 193 461 193 535 l 193 449 q 231 330 193 369 q 339 290 269 290 q 442 332 401 290 q 483 449 483 374 l 483 461 q 447 578 483 536 q 339 621 410 621 m 438 1050 q 382 1019 401 1043 q 361 958 363 994 q 417 935 396 956 q 438 879 438 914 q 416 822 438 844 q 358 799 394 799 q 292 829 315 799 q 268 908 268 860 q 310 1051 268 992 q 438 1126 351 1111 l 438 1050 z "},"ġ":{"ha":715,"x_min":58,"x_max":650,"o":"m 650 622 l 514 622 q 563 553 546 594 q 579 461 579 511 l 579 449 q 562 349 579 394 q 513 272 544 304 q 438 222 482 239 q 339 204 393 204 q 303 206 319 204 q 269 211 286 208 q 244 181 253 200 q 236 138 236 161 q 257 79 236 101 q 315 57 278 57 l 390 57 q 569 1 508 57 q 629 -150 629 -54 q 608 -250 629 -204 q 547 -329 586 -296 q 450 -381 507 -362 q 322 -400 393 -400 q 125 -339 192 -400 q 58 -178 58 -278 q 97 -49 58 -103 q 197 22 135 4 q 143 135 143 51 q 156 197 143 168 q 192 246 168 226 q 97 449 97 310 l 97 461 q 114 559 97 514 q 162 638 131 604 q 238 690 193 671 q 339 708 283 708 l 650 708 l 650 622 m 311 -33 q 192 -72 229 -33 q 154 -172 154 -110 q 198 -274 154 -237 q 325 -311 242 -311 q 479 -267 425 -311 q 533 -150 533 -224 q 496 -65 533 -96 q 388 -33 458 -33 l 311 -33 m 339 621 q 233 578 272 621 q 193 461 193 535 l 193 449 q 231 330 193 369 q 339 290 269 290 q 442 332 401 290 q 483 449 483 374 l 483 461 q 447 578 483 536 q 339 621 410 621 m 353 1053 q 412 1030 389 1053 q 435 971 435 1007 q 412 912 435 935 q 353 889 389 889 q 294 912 317 889 q 271 971 271 935 q 294 1030 271 1007 q 353 1053 317 1053 z "},"ĥ":{"ha":743,"x_min":-50,"x_max":646,"o":"m 203 1042 l 203 594 q 283 678 233 649 q 400 708 333 708 q 583 635 521 708 q 646 418 646 561 l 646 0 l 547 0 l 547 415 q 507 569 547 519 q 386 619 467 619 q 252 558 301 619 q 203 397 203 496 l 203 0 l 104 0 l 104 1042 l 203 1042 m 176 1379 l 372 1153 l 372 1136 l 271 1136 l 161 1264 l 49 1136 l -50 1136 l -50 1153 l 144 1379 l 176 1379 z "},"í":{"ha":307,"x_min":103,"x_max":322,"o":"m 203 694 l 203 0 l 104 0 l 104 694 l 203 694 m 322 1042 l 204 806 l 103 806 l 218 1042 l 322 1042 z "},"ĭ":{"ha":307,"x_min":-42,"x_max":353,"o":"m 203 694 l 203 0 l 104 0 l 104 694 l 203 694 m 51 1038 l 51 1013 q 78 926 51 957 q 156 894 104 894 q 232 926 206 894 q 258 1013 258 957 l 258 1038 l 353 1038 l 353 1008 q 299 863 353 918 q 156 808 246 808 q 13 863 67 808 q -42 1008 -42 917 l -42 1038 l 51 1038 z "},"î":{"ha":307,"x_min":-56,"x_max":367,"o":"m 203 694 l 203 0 l 104 0 l 104 694 l 203 694 m 171 1068 l 367 842 l 367 825 l 265 825 l 156 953 l 43 825 l -56 825 l -56 842 l 139 1068 l 171 1068 z "},"ï":{"ha":307,"x_min":-39,"x_max":350,"o":"m 203 694 l 203 0 l 104 0 l 104 694 l 203 694 m 39 1035 q 94 1013 72 1035 q 115 958 115 992 q 94 902 115 924 q 39 881 72 881 q -17 902 4 881 q -39 958 -39 924 q -17 1013 -39 992 q 39 1035 4 1035 m 272 1035 q 328 1013 307 1035 q 350 958 350 992 q 328 902 350 924 q 272 881 307 881 q 217 902 239 881 q 196 958 196 924 q 217 1013 196 992 q 272 1035 239 1035 z "},"ì":{"ha":307,"x_min":-14,"x_max":206,"o":"m 203 694 l 203 0 l 104 0 l 104 694 l 203 694 m 90 1042 l 206 806 l 104 806 l -14 1042 l 90 1042 z "},"ī":{"ha":307,"x_min":0,"x_max":310,"o":"m 203 694 l 203 0 l 104 0 l 104 694 l 203 694 m 310 976 l 310 886 l 0 886 l 0 976 l 310 976 z "},"į":{"ha":307,"x_min":26,"x_max":235,"o":"m 203 694 l 203 0 q 140 -33 163 -7 q 117 -100 117 -60 q 141 -173 117 -146 q 214 -203 165 -200 l 214 -289 q 74 -235 122 -283 q 26 -108 26 -187 q 47 -28 26 -62 q 104 25 68 6 l 104 694 l 203 694 m 153 1053 q 212 1030 189 1053 q 235 971 235 1007 q 212 912 235 935 q 153 889 189 889 q 94 912 118 889 q 71 971 71 935 q 94 1030 71 1007 q 153 1053 118 1053 z "},"ĵ":{"ha":307,"x_min":-56,"x_max":367,"o":"m 203 694 l 203 -112 q 149 -288 203 -222 q -10 -354 94 -354 l -46 -354 l -46 -262 l -14 -262 q 73 -224 42 -262 q 104 -114 104 -186 l 104 694 l 203 694 m 171 1068 l 367 842 l 367 825 l 265 825 l 156 953 l 43 825 l -56 825 l -56 842 l 139 1068 l 171 1068 z "},"ķ":{"ha":686,"x_min":104,"x_max":644,"o":"m 526 0 l 317 326 l 203 179 l 203 0 l 104 0 l 104 1042 l 203 1042 l 203 310 l 494 694 l 614 694 l 381 396 l 644 0 l 526 0 m 279 -342 q 335 -310 315 -335 q 356 -250 354 -286 q 300 -226 321 -247 q 279 -171 279 -206 q 301 -113 279 -136 q 358 -90 322 -90 q 425 -121 401 -90 q 449 -200 449 -151 q 407 -343 449 -283 q 279 -418 365 -403 l 279 -342 z "},"ĺ":{"ha":307,"x_min":103,"x_max":322,"o":"m 203 1042 l 203 0 l 104 0 l 104 1042 l 203 1042 m 322 1381 l 204 1144 l 103 1144 l 218 1381 l 322 1381 z "},"ľ":{"ha":485,"x_min":104,"x_max":492,"o":"m 203 1042 l 203 0 l 104 0 l 104 1042 l 203 1042 m 322 808 q 378 840 358 815 q 399 900 397 864 q 343 924 364 903 q 322 979 322 944 q 344 1037 322 1014 q 401 1060 365 1060 q 468 1029 444 1060 q 492 950 492 999 q 450 807 492 867 q 322 732 408 747 l 322 808 z "},"ļ":{"ha":307,"x_min":69,"x_max":239,"o":"m 203 1042 l 203 0 l 104 0 l 104 1042 l 203 1042 m 69 -342 q 125 -310 106 -335 q 146 -250 144 -286 q 90 -226 111 -247 q 69 -171 69 -206 q 91 -113 69 -136 q 149 -90 113 -90 q 215 -121 192 -90 q 239 -200 239 -151 q 197 -343 239 -283 q 69 -418 156 -403 l 69 -342 z "},"ŀ":{"ha":476,"x_min":104,"x_max":469,"o":"m 203 1042 l 203 0 l 104 0 l 104 1042 l 203 1042 m 388 607 q 447 584 424 607 q 469 525 469 561 q 447 466 469 489 q 388 443 424 443 q 328 466 351 443 q 306 525 306 489 q 328 584 306 561 q 388 607 351 607 z "},"ń":{"ha":743,"x_min":104,"x_max":646,"o":"m 193 694 l 193 574 q 273 673 222 638 q 399 708 324 708 q 581 637 515 708 q 646 424 646 565 l 646 0 l 547 0 l 547 424 q 383 619 547 619 q 306 603 339 619 q 249 556 272 586 q 215 484 226 525 q 203 393 203 443 l 203 0 l 104 0 l 104 694 l 193 694 m 549 1042 l 431 806 l 329 806 l 444 1042 l 549 1042 z "},"ŉ":{"ha":853,"x_min":3,"x_max":756,"o":"m 303 694 l 303 574 q 383 673 332 638 q 508 708 433 708 q 690 637 625 708 q 756 424 756 565 l 756 0 l 657 0 l 657 424 q 493 619 657 619 q 415 603 449 619 q 359 556 382 586 q 324 484 336 525 q 313 393 313 443 l 313 0 l 214 0 l 214 694 l 303 694 m 3 808 q 58 840 39 815 q 79 900 78 864 q 24 924 44 903 q 3 979 3 944 q 24 1037 3 1014 q 82 1060 46 1060 q 149 1029 125 1060 q 172 950 172 999 q 131 807 172 867 q 3 732 89 747 l 3 808 z "},"ň":{"ha":743,"x_min":104,"x_max":646,"o":"m 193 694 l 193 574 q 273 673 222 638 q 399 708 324 708 q 581 637 515 708 q 646 424 646 565 l 646 0 l 547 0 l 547 424 q 383 619 547 619 q 306 603 339 619 q 249 556 272 586 q 215 484 226 525 q 203 393 203 443 l 203 0 l 104 0 l 104 694 l 193 694 m 272 1038 l 383 910 l 494 1038 l 594 1038 l 594 1021 l 400 794 l 368 794 l 172 1021 l 172 1038 l 272 1038 z "},"ņ":{"ha":743,"x_min":104,"x_max":646,"o":"m 193 694 l 193 574 q 273 673 222 638 q 399 708 324 708 q 581 637 515 708 q 646 424 646 565 l 646 0 l 547 0 l 547 424 q 383 619 547 619 q 306 603 339 619 q 249 556 272 586 q 215 484 226 525 q 203 393 203 443 l 203 0 l 104 0 l 104 694 l 193 694 m 297 -329 q 353 -298 333 -322 q 374 -237 372 -274 q 318 -214 339 -235 q 297 -158 297 -193 q 319 -101 297 -124 q 376 -78 340 -78 q 443 -108 419 -78 q 467 -187 467 -139 q 425 -331 467 -271 q 297 -406 383 -390 l 297 -329 z "},"ó":{"ha":719,"x_min":83,"x_max":636,"o":"m 360 708 q 564 623 492 708 q 636 381 636 538 l 636 313 q 564 73 636 160 q 360 -14 492 -14 q 156 69 228 -14 q 83 313 83 151 l 83 381 q 156 620 83 532 q 360 708 228 708 m 360 619 q 228 558 274 619 q 182 382 182 496 l 182 311 q 228 132 182 189 q 360 75 275 75 q 490 134 443 75 q 538 311 538 193 l 538 382 q 360 619 538 619 m 528 1042 l 410 806 l 308 806 l 424 1042 l 528 1042 z "},"ŏ":{"ha":719,"x_min":83,"x_max":636,"o":"m 360 708 q 564 623 492 708 q 636 381 636 538 l 636 313 q 564 73 636 160 q 360 -14 492 -14 q 156 69 228 -14 q 83 313 83 151 l 83 381 q 156 620 83 532 q 360 708 228 708 m 360 619 q 228 558 274 619 q 182 382 182 496 l 182 311 q 228 132 182 189 q 360 75 275 75 q 490 134 443 75 q 538 311 538 193 l 538 382 q 360 619 538 619 m 256 1038 l 256 1013 q 282 926 256 957 q 360 894 308 894 q 436 926 410 894 q 463 1013 463 957 l 463 1038 l 557 1038 l 557 1008 q 503 863 557 918 q 360 808 450 808 q 217 863 271 808 q 163 1008 163 917 l 163 1038 l 256 1038 z "},"ô":{"ha":719,"x_min":83,"x_max":636,"o":"m 360 708 q 564 623 492 708 q 636 381 636 538 l 636 313 q 564 73 636 160 q 360 -14 492 -14 q 156 69 228 -14 q 83 313 83 151 l 83 381 q 156 620 83 532 q 360 708 228 708 m 360 619 q 228 558 274 619 q 182 382 182 496 l 182 311 q 228 132 182 189 q 360 75 275 75 q 490 134 443 75 q 538 311 538 193 l 538 382 q 360 619 538 619 m 375 1068 l 571 842 l 571 825 l 469 825 l 360 953 l 247 825 l 149 825 l 149 842 l 343 1068 l 375 1068 z "},"ö":{"ha":719,"x_min":83,"x_max":636,"o":"m 360 708 q 564 623 492 708 q 636 381 636 538 l 636 313 q 564 73 636 160 q 360 -14 492 -14 q 156 69 228 -14 q 83 313 83 151 l 83 381 q 156 620 83 532 q 360 708 228 708 m 360 619 q 228 558 274 619 q 182 382 182 496 l 182 311 q 228 132 182 189 q 360 75 275 75 q 490 134 443 75 q 538 311 538 193 l 538 382 q 360 619 538 619 m 218 1035 q 273 1013 251 1035 q 294 958 294 992 q 273 902 294 924 q 218 881 251 881 q 162 902 183 881 q 140 958 140 924 q 162 1013 140 992 q 218 1035 183 1035 m 503 1035 q 559 1013 538 1035 q 581 958 581 992 q 559 902 581 924 q 503 881 538 881 q 447 902 469 881 q 425 958 425 924 q 447 1013 425 992 q 503 1035 469 1035 z "},"ò":{"ha":719,"x_min":83,"x_max":636,"o":"m 360 708 q 564 623 492 708 q 636 381 636 538 l 636 313 q 564 73 636 160 q 360 -14 492 -14 q 156 69 228 -14 q 83 313 83 151 l 83 381 q 156 620 83 532 q 360 708 228 708 m 360 619 q 228 558 274 619 q 182 382 182 496 l 182 311 q 228 132 182 189 q 360 75 275 75 q 490 134 443 75 q 538 311 538 193 l 538 382 q 360 619 538 619 m 308 1042 l 424 806 l 322 806 l 204 1042 l 308 1042 z "},"õ":{"ha":719,"x_min":83,"x_max":636,"o":"m 360 708 q 564 623 492 708 q 636 381 636 538 l 636 313 q 564 73 636 160 q 360 -14 492 -14 q 156 69 228 -14 q 83 313 83 151 l 83 381 q 156 620 83 532 q 360 708 228 708 m 360 619 q 228 558 274 619 q 182 382 182 496 l 182 311 q 228 132 182 189 q 360 75 275 75 q 490 134 443 75 q 538 311 538 193 l 538 382 q 360 619 538 619 m 578 1001 l 578 983 q 545 876 578 917 q 447 835 513 835 q 385 849 407 835 q 347 880 363 863 q 317 911 331 897 q 279 925 303 925 q 242 908 256 925 q 228 864 228 892 l 228 850 l 140 850 l 140 867 q 174 974 140 933 q 271 1015 207 1015 q 335 1001 313 1015 q 373 971 357 988 q 403 940 389 954 q 440 926 417 926 q 477 942 464 926 q 490 988 490 958 l 490 1001 l 578 1001 z "},"ŕ":{"ha":482,"x_min":104,"x_max":428,"o":"m 193 694 l 193 578 q 271 671 221 638 q 390 704 321 704 l 419 704 l 419 611 l 389 611 q 252 549 301 611 q 203 386 203 486 l 203 0 l 104 0 l 104 694 l 193 694 m 428 1042 l 310 806 l 208 806 l 324 1042 l 428 1042 z "},"ř":{"ha":482,"x_min":58,"x_max":481,"o":"m 193 694 l 193 578 q 271 671 221 638 q 390 704 321 704 l 419 704 l 419 611 l 389 611 q 252 549 301 611 q 203 386 203 486 l 203 0 l 104 0 l 104 694 l 193 694 m 158 1038 l 269 910 l 381 1038 l 481 1038 l 481 1021 l 286 794 l 254 794 l 58 1021 l 58 1038 l 158 1038 z "},"ŗ":{"ha":482,"x_min":69,"x_max":419,"o":"m 193 694 l 193 578 q 271 671 221 638 q 390 704 321 704 l 419 704 l 419 611 l 389 611 q 252 549 301 611 q 203 386 203 486 l 203 0 l 104 0 l 104 694 l 193 694 m 69 -342 q 125 -310 106 -335 q 146 -250 144 -286 q 90 -226 111 -247 q 69 -171 69 -206 q 91 -113 69 -136 q 149 -90 113 -90 q 215 -121 192 -90 q 239 -200 239 -151 q 197 -343 239 -283 q 69 -418 156 -403 l 69 -342 z "},"ś":{"ha":656,"x_min":69,"x_max":583,"o":"m 471 493 q 431 588 468 554 q 322 621 393 621 q 226 592 260 621 q 192 510 192 563 q 226 429 192 457 q 339 396 260 401 q 525 335 467 388 q 583 190 583 282 q 515 40 583 94 q 333 -14 447 -14 q 148 41 214 -14 q 69 203 82 96 l 174 203 q 222 107 181 140 q 333 74 263 74 q 446 103 406 74 q 486 188 486 132 q 451 272 486 242 q 321 308 415 301 q 94 510 94 324 q 155 653 94 597 q 322 708 215 708 q 503 649 440 708 q 569 493 565 590 l 471 493 m 497 1042 l 379 806 l 278 806 l 393 1042 l 497 1042 z "},"š":{"ha":656,"x_min":69,"x_max":583,"o":"m 471 493 q 431 588 468 554 q 322 621 393 621 q 226 592 260 621 q 192 510 192 563 q 226 429 192 457 q 339 396 260 401 q 525 335 467 388 q 583 190 583 282 q 515 40 583 94 q 333 -14 447 -14 q 148 41 214 -14 q 69 203 82 96 l 174 203 q 222 107 181 140 q 333 74 263 74 q 446 103 406 74 q 486 188 486 132 q 451 272 486 242 q 321 308 415 301 q 94 510 94 324 q 155 653 94 597 q 322 708 215 708 q 503 649 440 708 q 569 493 565 590 l 471 493 m 222 1038 l 333 910 l 444 1038 l 544 1038 l 544 1021 l 350 794 l 318 794 l 122 1021 l 122 1038 l 222 1038 z "},"ť":{"ha":650,"x_min":63,"x_max":657,"o":"m 97 694 q 160 719 139 694 q 182 799 182 743 l 182 878 l 274 878 l 274 694 l 433 694 l 433 604 l 274 604 l 274 211 q 301 109 274 140 q 376 78 328 78 q 410 79 393 78 q 443 83 426 81 l 443 -1 q 360 -14 406 -14 q 221 38 267 -14 q 175 208 175 90 l 175 604 l 63 604 l 63 694 l 97 694 m 488 808 q 543 840 524 815 q 564 900 563 864 q 508 924 529 903 q 488 979 488 944 q 509 1037 488 1014 q 567 1060 531 1060 q 633 1029 610 1060 q 657 950 657 999 q 615 807 657 867 q 488 732 574 747 l 488 808 z "},"ţ":{"ha":514,"x_min":63,"x_max":443,"o":"m 97 694 q 160 719 139 694 q 182 799 182 743 l 182 878 l 274 878 l 274 694 l 433 694 l 433 604 l 274 604 l 274 211 q 301 109 274 140 q 376 78 328 78 q 410 79 393 78 q 443 83 426 81 l 443 -1 q 360 -14 406 -14 q 221 38 267 -14 q 175 208 175 90 l 175 604 l 63 604 l 63 694 l 97 694 m 221 -342 q 276 -310 257 -335 q 297 -250 296 -286 q 242 -226 263 -247 q 221 -171 221 -206 q 242 -113 221 -136 q 300 -90 264 -90 q 367 -121 343 -90 q 390 -200 390 -151 q 349 -343 390 -283 q 221 -418 307 -403 l 221 -342 z "},"ú":{"ha":732,"x_min":97,"x_max":628,"o":"m 196 694 l 196 286 q 236 127 196 179 q 353 75 276 75 q 481 135 432 75 q 529 299 529 194 l 529 694 l 628 694 l 628 0 l 539 0 l 539 117 q 460 20 513 54 q 336 -14 407 -14 q 158 59 219 -14 q 97 286 97 132 l 97 694 l 196 694 m 521 1042 l 403 806 l 301 806 l 417 1042 l 521 1042 z "},"û":{"ha":732,"x_min":97,"x_max":628,"o":"m 196 694 l 196 286 q 236 127 196 179 q 353 75 276 75 q 481 135 432 75 q 529 299 529 194 l 529 694 l 628 694 l 628 0 l 539 0 l 539 117 q 460 20 513 54 q 336 -14 407 -14 q 158 59 219 -14 q 97 286 97 132 l 97 694 l 196 694 m 381 1068 l 576 842 l 576 825 l 475 825 l 365 953 l 253 825 l 154 825 l 154 842 l 349 1068 l 381 1068 z "},"ü":{"ha":732,"x_min":97,"x_max":628,"o":"m 196 694 l 196 286 q 236 127 196 179 q 353 75 276 75 q 481 135 432 75 q 529 299 529 194 l 529 694 l 628 694 l 628 0 l 539 0 l 539 117 q 460 20 513 54 q 336 -14 407 -14 q 158 59 219 -14 q 97 286 97 132 l 97 694 l 196 694 m 224 1035 q 278 1013 257 1035 q 300 958 300 992 q 278 902 300 924 q 224 881 257 881 q 167 902 189 881 q 146 958 146 924 q 167 1013 146 992 q 224 1035 189 1035 m 508 1035 q 565 1013 543 1035 q 586 958 586 992 q 565 902 586 924 q 508 881 543 881 q 453 902 475 881 q 431 958 431 924 q 453 1013 431 992 q 508 1035 475 1035 z "},"ű":{"ha":732,"x_min":97,"x_max":628,"o":"m 196 694 l 196 286 q 236 127 196 179 q 353 75 276 75 q 481 135 432 75 q 529 299 529 194 l 529 694 l 628 694 l 628 0 l 539 0 l 539 117 q 460 20 513 54 q 336 -14 407 -14 q 158 59 219 -14 q 97 286 97 132 l 97 694 l 196 694 m 408 1042 l 311 806 l 218 806 l 307 1042 l 408 1042 m 604 1042 l 489 806 l 396 806 l 503 1042 l 604 1042 z "},"ù":{"ha":732,"x_min":97,"x_max":628,"o":"m 196 694 l 196 286 q 236 127 196 179 q 353 75 276 75 q 481 135 432 75 q 529 299 529 194 l 529 694 l 628 694 l 628 0 l 539 0 l 539 117 q 460 20 513 54 q 336 -14 407 -14 q 158 59 219 -14 q 97 286 97 132 l 97 694 l 196 694 m 311 1042 l 426 806 l 325 806 l 207 1042 l 311 1042 z "},"ū":{"ha":732,"x_min":97,"x_max":628,"o":"m 196 694 l 196 286 q 236 127 196 179 q 353 75 276 75 q 481 135 432 75 q 529 299 529 194 l 529 694 l 628 694 l 628 0 l 539 0 l 539 117 q 460 20 513 54 q 336 -14 407 -14 q 158 59 219 -14 q 97 286 97 132 l 97 694 l 196 694 m 565 976 l 565 886 l 165 886 l 165 976 l 565 976 z "},"ų":{"ha":732,"x_min":97,"x_max":642,"o":"m 196 694 l 196 286 q 236 127 196 179 q 353 75 276 75 q 481 135 432 75 q 529 299 529 194 l 529 694 l 628 694 l 628 0 q 566 -34 588 -7 q 544 -101 544 -61 q 642 -203 544 -196 l 642 -289 q 502 -236 550 -283 q 454 -111 454 -189 q 477 -28 454 -64 q 539 28 500 8 l 539 117 q 460 20 513 54 q 336 -14 407 -14 q 158 59 219 -14 q 97 286 97 132 l 97 694 l 196 694 z "},"ů":{"ha":732,"x_min":97,"x_max":628,"o":"m 196 694 l 196 286 q 236 127 196 179 q 353 75 276 75 q 481 135 432 75 q 529 299 529 194 l 529 694 l 628 694 l 628 0 l 539 0 l 539 117 q 460 20 513 54 q 336 -14 407 -14 q 158 59 219 -14 q 97 286 97 132 l 97 694 l 196 694 m 365 1133 q 485 1087 440 1133 q 531 972 531 1040 q 519 909 531 939 q 485 858 507 879 q 433 823 463 836 q 365 810 403 810 q 246 856 290 810 q 201 972 201 903 q 213 1035 201 1006 q 247 1085 225 1064 q 298 1120 268 1107 q 365 1133 328 1133 m 365 1056 q 306 1032 328 1056 q 285 972 285 1008 q 306 912 285 936 q 365 888 328 888 q 426 912 404 888 q 447 972 447 936 q 426 1032 447 1008 q 365 1056 404 1056 z "},"ũ":{"ha":732,"x_min":97,"x_max":628,"o":"m 196 694 l 196 286 q 236 127 196 179 q 353 75 276 75 q 481 135 432 75 q 529 299 529 194 l 529 694 l 628 694 l 628 0 l 539 0 l 539 117 q 460 20 513 54 q 336 -14 407 -14 q 158 59 219 -14 q 97 286 97 132 l 97 694 l 196 694 m 583 1001 l 583 983 q 551 876 583 917 q 453 835 518 835 q 390 849 413 835 q 352 880 368 863 q 322 911 336 897 q 285 925 308 925 q 247 908 261 925 q 233 864 233 892 l 233 850 l 146 850 l 146 867 q 179 974 146 933 q 276 1015 213 1015 q 340 1001 318 1015 q 378 971 363 988 q 408 940 394 954 q 446 926 422 926 q 483 942 469 926 q 496 988 496 958 l 496 1001 l 583 1001 z "},"ŵ":{"ha":932,"x_min":56,"x_max":876,"o":"m 160 694 l 290 121 l 424 694 l 508 694 l 646 121 l 775 694 l 876 694 l 699 -1 l 590 -1 l 465 518 l 343 -1 l 235 -1 l 56 694 l 160 694 m 482 1068 l 678 842 l 678 825 l 576 825 l 467 953 l 354 825 l 256 825 l 256 842 l 450 1068 l 482 1068 z "},"ý":{"ha":697,"x_min":56,"x_max":642,"o":"m 164 694 l 367 104 l 535 694 l 642 694 l 397 -85 q 306 -269 356 -217 q 183 -321 256 -321 q 124 -317 150 -321 l 124 -222 q 149 -224 136 -224 q 174 -224 163 -224 q 245 -192 215 -224 q 300 -74 275 -160 l 317 -19 l 56 694 l 164 694 m 518 1042 l 400 806 l 299 806 l 414 1042 l 518 1042 z "},"ŷ":{"ha":697,"x_min":56,"x_max":642,"o":"m 164 694 l 367 104 l 535 694 l 642 694 l 397 -85 q 306 -269 356 -217 q 183 -321 256 -321 q 124 -317 150 -321 l 124 -222 q 149 -224 136 -224 q 174 -224 163 -224 q 245 -192 215 -224 q 300 -74 275 -160 l 317 -19 l 56 694 l 164 694 m 374 1068 l 569 842 l 569 825 l 468 825 l 358 953 l 246 825 l 147 825 l 147 842 l 342 1068 l 374 1068 z "},"ÿ":{"ha":697,"x_min":56,"x_max":642,"o":"m 164 694 l 367 104 l 535 694 l 642 694 l 397 -85 q 306 -269 356 -217 q 183 -321 256 -321 q 124 -317 150 -321 l 124 -222 q 149 -224 136 -224 q 174 -224 163 -224 q 245 -192 215 -224 q 300 -74 275 -160 l 317 -19 l 56 694 l 164 694 m 210 1035 q 265 1013 243 1035 q 286 958 286 992 q 265 902 286 924 q 210 881 243 881 q 153 902 175 881 q 132 958 132 924 q 153 1013 132 992 q 210 1035 175 1035 m 494 1035 q 551 1013 529 1035 q 572 958 572 992 q 551 902 572 924 q 494 881 529 881 q 439 902 461 881 q 417 958 417 924 q 439 1013 417 992 q 494 1035 461 1035 z "},"ź":{"ha":664,"x_min":86,"x_max":578,"o":"m 572 694 l 572 621 l 208 89 l 578 89 l 578 0 l 86 0 l 86 74 l 450 606 l 106 606 l 106 694 l 572 694 m 499 1042 l 381 806 l 279 806 l 394 1042 l 499 1042 z "},"ž":{"ha":664,"x_min":86,"x_max":578,"o":"m 572 694 l 572 621 l 208 89 l 578 89 l 578 0 l 86 0 l 86 74 l 450 606 l 106 606 l 106 694 l 572 694 m 231 1038 l 342 910 l 453 1038 l 553 1038 l 553 1021 l 358 794 l 326 794 l 131 1021 l 131 1038 l 231 1038 z "},"ż":{"ha":664,"x_min":86,"x_max":578,"o":"m 572 694 l 572 621 l 208 89 l 578 89 l 578 0 l 86 0 l 86 74 l 450 606 l 106 606 l 106 694 l 572 694 m 342 1053 q 401 1030 378 1053 q 424 971 424 1007 q 401 912 424 935 q 342 889 378 889 q 283 912 306 889 q 260 971 260 935 q 283 1030 260 1007 q 342 1053 306 1053 z "},"Ȁ":{"ha":879,"x_min":58,"x_max":819,"o":"m 496 1044 l 819 0 l 708 0 l 626 275 l 249 275 l 168 0 l 58 0 l 385 1044 l 496 1044 m 275 367 l 601 367 l 439 922 l 275 367 m 508 1458 l 592 1208 l 493 1208 l 410 1458 l 508 1458 m 300 1458 l 383 1208 l 285 1208 l 201 1458 l 300 1458 z "},"Ȅ":{"ha":814,"x_min":146,"x_max":717,"o":"m 688 1042 l 688 949 l 249 949 l 249 578 l 649 578 l 649 486 l 249 486 l 249 93 l 717 93 l 717 0 l 146 0 l 146 1042 l 688 1042 m 496 1458 l 579 1208 l 481 1208 l 397 1458 l 496 1458 m 288 1458 l 371 1208 l 272 1208 l 189 1458 l 288 1458 z "},"ȅ":{"ha":694,"x_min":83,"x_max":611,"o":"m 182 315 l 182 301 q 226 132 182 189 q 350 75 271 75 q 466 110 425 75 q 518 211 507 146 l 611 211 q 531 46 597 106 q 349 -14 465 -14 q 156 68 228 -14 q 83 310 83 150 l 83 381 q 101 513 83 453 q 153 617 119 574 q 238 685 188 661 q 351 708 288 708 q 544 625 478 708 q 611 396 611 542 l 611 315 l 182 315 m 353 619 q 224 561 267 619 q 182 400 182 503 l 513 400 l 513 411 q 472 565 513 511 q 353 619 432 619 m 404 1042 l 497 806 l 404 806 l 300 1042 l 404 1042 m 204 1042 l 307 806 l 214 806 l 103 1042 l 204 1042 z "},"Ȉ":{"ha":394,"x_min":-35,"x_max":356,"o":"m 249 1042 l 249 0 l 146 0 l 146 1042 l 249 1042 m 272 1458 l 356 1208 l 257 1208 l 174 1458 l 272 1458 m 64 1458 l 147 1208 l 49 1208 l -35 1458 l 64 1458 z "},"ȉ":{"ha":307,"x_min":-96,"x_max":299,"o":"m 203 694 l 203 0 l 104 0 l 104 694 l 203 694 m 206 1042 l 299 806 l 206 806 l 101 1042 l 206 1042 m 6 1042 l 108 806 l 15 806 l -96 1042 l 6 1042 z "},"Ȍ":{"ha":881,"x_min":94,"x_max":786,"o":"m 440 1060 q 699 947 611 1060 q 786 615 786 835 l 786 426 q 695 93 786 204 q 440 -18 604 -18 q 182 92 269 -18 q 94 426 94 203 l 94 615 q 186 949 94 838 q 440 1060 278 1060 m 440 967 q 260 878 322 967 q 197 625 197 790 l 197 415 q 259 161 197 247 q 440 75 321 75 q 622 163 560 75 q 683 415 683 250 l 683 625 q 622 880 683 793 q 440 967 561 967 m 521 1458 l 604 1208 l 506 1208 l 422 1458 l 521 1458 m 313 1458 l 396 1208 l 297 1208 l 214 1458 l 313 1458 z "},"ȍ":{"ha":719,"x_min":83,"x_max":636,"o":"m 360 708 q 564 623 492 708 q 636 381 636 538 l 636 313 q 564 73 636 160 q 360 -14 492 -14 q 156 69 228 -14 q 83 313 83 151 l 83 381 q 156 620 83 532 q 360 708 228 708 m 360 619 q 228 558 274 619 q 182 382 182 496 l 182 311 q 228 132 182 189 q 360 75 275 75 q 490 134 443 75 q 538 311 538 193 l 538 382 q 360 619 538 619 m 417 1042 l 510 806 l 417 806 l 313 1042 l 417 1042 m 217 1042 l 319 806 l 226 806 l 115 1042 l 217 1042 z "},"ȑ":{"ha":482,"x_min":19,"x_max":419,"o":"m 193 694 l 193 578 q 271 671 221 638 q 390 704 321 704 l 419 704 l 419 611 l 389 611 q 252 549 301 611 q 203 386 203 486 l 203 0 l 104 0 l 104 694 l 193 694 m 321 1042 l 414 806 l 321 806 l 217 1042 l 321 1042 m 121 1042 l 224 806 l 131 806 l 19 1042 l 121 1042 z "},"Ȕ":{"ha":921,"x_min":135,"x_max":786,"o":"m 238 1042 l 238 379 q 293 151 238 228 q 460 75 349 75 q 683 379 683 75 l 683 1042 l 786 1042 l 786 376 q 706 87 786 192 q 460 -18 626 -18 q 214 85 293 -18 q 135 376 135 189 l 135 1042 l 238 1042 m 539 1458 l 622 1208 l 524 1208 l 440 1458 l 539 1458 m 331 1458 l 414 1208 l 315 1208 l 232 1458 l 331 1458 z "},"ȕ":{"ha":732,"x_min":97,"x_max":628,"o":"m 196 694 l 196 286 q 236 127 196 179 q 353 75 276 75 q 481 135 432 75 q 529 299 529 194 l 529 694 l 628 694 l 628 0 l 539 0 l 539 117 q 460 20 513 54 q 336 -14 407 -14 q 158 59 219 -14 q 97 286 97 132 l 97 694 l 196 694 m 411 1042 l 504 806 l 411 806 l 307 1042 l 411 1042 m 211 1042 l 314 806 l 221 806 l 110 1042 l 211 1042 z "},"Ȃ":{"ha":879,"x_min":58,"x_max":819,"o":"m 496 1044 l 819 0 l 708 0 l 626 275 l 249 275 l 168 0 l 58 0 l 385 1044 l 496 1044 m 275 367 l 601 367 l 439 922 l 275 367 m 556 1197 l 556 1224 q 524 1317 556 1282 q 439 1351 492 1351 q 355 1317 386 1351 q 324 1224 324 1282 l 324 1197 l 232 1197 l 232 1224 q 288 1376 232 1319 q 439 1433 344 1433 q 591 1376 536 1433 q 646 1224 646 1318 l 646 1197 l 556 1197 z "},"ȃ":{"ha":718,"x_min":81,"x_max":674,"o":"m 106 479 q 123 572 106 529 q 172 644 140 614 q 249 691 204 674 q 351 708 294 708 q 524 649 465 708 q 583 483 583 589 l 583 163 q 600 97 583 114 q 649 79 617 79 l 674 79 l 674 -1 q 644 -8 660 -6 q 611 -11 628 -11 q 540 18 567 -11 q 510 106 514 47 q 426 17 482 49 q 294 -14 369 -14 q 138 38 194 -14 q 81 182 81 90 q 142 333 81 278 q 325 397 203 388 q 447 428 404 403 q 489 503 489 453 q 456 588 489 556 q 351 619 422 619 q 242 581 281 619 q 203 479 203 543 l 106 479 m 490 376 q 430 335 469 351 q 329 314 390 318 q 213 274 247 307 q 178 186 178 240 q 212 103 178 133 q 308 74 246 74 q 440 124 389 74 q 490 265 490 174 l 490 376 m 463 804 l 463 829 q 436 917 463 886 q 360 949 410 949 q 282 917 308 949 q 256 829 256 885 l 256 804 l 163 804 l 163 833 q 215 979 163 924 q 360 1035 268 1035 q 440 1020 403 1035 q 502 979 476 1006 q 542 916 528 953 q 557 833 557 879 l 557 804 l 463 804 z "},"Ȇ":{"ha":814,"x_min":146,"x_max":717,"o":"m 688 1042 l 688 949 l 249 949 l 249 578 l 649 578 l 649 486 l 249 486 l 249 93 l 717 93 l 717 0 l 146 0 l 146 1042 l 688 1042 m 542 1197 l 542 1224 q 510 1317 542 1282 q 425 1351 478 1351 q 341 1317 372 1351 q 310 1224 310 1282 l 310 1197 l 218 1197 l 218 1224 q 274 1376 218 1319 q 425 1433 331 1433 q 577 1376 522 1433 q 632 1224 632 1318 l 632 1197 l 542 1197 z "},"ȇ":{"ha":694,"x_min":83,"x_max":611,"o":"m 182 315 l 182 301 q 226 132 182 189 q 350 75 271 75 q 466 110 425 75 q 518 211 507 146 l 611 211 q 531 46 597 106 q 349 -14 465 -14 q 156 68 228 -14 q 83 310 83 150 l 83 381 q 101 513 83 453 q 153 617 119 574 q 238 685 188 661 q 351 708 288 708 q 544 625 478 708 q 611 396 611 542 l 611 315 l 182 315 m 353 619 q 224 561 267 619 q 182 400 182 503 l 513 400 l 513 411 q 472 565 513 511 q 353 619 432 619 m 458 804 l 458 829 q 432 917 458 886 q 356 949 406 949 q 278 917 304 949 q 251 829 251 885 l 251 804 l 158 804 l 158 833 q 211 979 158 924 q 356 1035 264 1035 q 435 1020 399 1035 q 498 979 472 1006 q 538 916 524 953 q 553 833 553 879 l 553 804 l 458 804 z "},"Ȋ":{"ha":394,"x_min":-8,"x_max":406,"o":"m 249 1042 l 249 0 l 146 0 l 146 1042 l 249 1042 m 315 1197 l 315 1224 q 283 1317 315 1282 q 199 1351 251 1351 q 115 1317 146 1351 q 83 1224 83 1282 l 83 1197 l -8 1197 l -8 1224 q 48 1376 -8 1319 q 199 1433 104 1433 q 351 1376 296 1433 q 406 1224 406 1318 l 406 1197 l 315 1197 z "},"ȋ":{"ha":307,"x_min":-42,"x_max":353,"o":"m 203 694 l 203 0 l 104 0 l 104 694 l 203 694 m 258 804 l 258 829 q 232 917 258 886 q 156 949 206 949 q 78 917 104 949 q 51 829 51 885 l 51 804 l -42 804 l -42 833 q 11 979 -42 924 q 156 1035 64 1035 q 235 1020 199 1035 q 298 979 272 1006 q 338 916 324 953 q 353 833 353 879 l 353 804 l 258 804 z "},"Ȏ":{"ha":881,"x_min":94,"x_max":786,"o":"m 440 1060 q 699 947 611 1060 q 786 615 786 835 l 786 426 q 695 93 786 204 q 440 -18 604 -18 q 182 92 269 -18 q 94 426 94 203 l 94 615 q 186 949 94 838 q 440 1060 278 1060 m 440 967 q 260 878 322 967 q 197 625 197 790 l 197 415 q 259 161 197 247 q 440 75 321 75 q 622 163 560 75 q 683 415 683 250 l 683 625 q 622 880 683 793 q 440 967 561 967 m 557 1197 l 557 1224 q 525 1317 557 1282 q 440 1351 493 1351 q 356 1317 388 1351 q 325 1224 325 1282 l 325 1197 l 233 1197 l 233 1224 q 290 1376 233 1319 q 440 1433 346 1433 q 592 1376 538 1433 q 647 1224 647 1318 l 647 1197 l 557 1197 z "},"ȏ":{"ha":719,"x_min":83,"x_max":636,"o":"m 360 708 q 564 623 492 708 q 636 381 636 538 l 636 313 q 564 73 636 160 q 360 -14 492 -14 q 156 69 228 -14 q 83 313 83 151 l 83 381 q 156 620 83 532 q 360 708 228 708 m 360 619 q 228 558 274 619 q 182 382 182 496 l 182 311 q 228 132 182 189 q 360 75 275 75 q 490 134 443 75 q 538 311 538 193 l 538 382 q 360 619 538 619 m 463 804 l 463 829 q 436 917 463 886 q 360 949 410 949 q 282 917 308 949 q 256 829 256 885 l 256 804 l 163 804 l 163 833 q 215 979 163 924 q 360 1035 268 1035 q 440 1020 403 1035 q 502 979 476 1006 q 542 916 528 953 q 557 833 557 879 l 557 804 l 463 804 z "},"Ȓ":{"ha":856,"x_min":146,"x_max":786,"o":"m 668 0 l 468 396 q 401 392 436 392 l 249 392 l 249 0 l 146 0 l 146 1042 l 401 1042 q 664 957 572 1042 q 756 718 756 872 q 706 533 756 610 q 565 421 656 457 l 786 0 l 668 0 m 249 485 l 397 485 q 584 545 515 485 q 653 718 653 606 q 586 889 653 829 q 397 949 519 949 l 249 949 l 249 485 m 543 1197 l 543 1224 q 511 1317 543 1282 q 426 1351 479 1351 q 342 1317 374 1351 q 311 1224 311 1282 l 311 1197 l 219 1197 l 219 1224 q 276 1376 219 1319 q 426 1433 332 1433 q 578 1376 524 1433 q 633 1224 633 1318 l 633 1197 l 543 1197 z "},"ȓ":{"ha":482,"x_min":69,"x_max":464,"o":"m 193 694 l 193 578 q 271 671 221 638 q 390 704 321 704 l 419 704 l 419 611 l 389 611 q 252 549 301 611 q 203 386 203 486 l 203 0 l 104 0 l 104 694 l 193 694 m 369 804 l 369 829 q 343 917 369 886 q 267 949 317 949 q 189 917 215 949 q 163 829 163 885 l 163 804 l 69 804 l 69 833 q 122 979 69 924 q 267 1035 175 1035 q 347 1020 310 1035 q 409 979 383 1006 q 449 916 435 953 q 464 833 464 879 l 464 804 l 369 804 z "},"Ȗ":{"ha":921,"x_min":135,"x_max":786,"o":"m 238 1042 l 238 379 q 293 151 238 228 q 460 75 349 75 q 683 379 683 75 l 683 1042 l 786 1042 l 786 376 q 706 87 786 192 q 460 -18 626 -18 q 214 85 293 -18 q 135 376 135 189 l 135 1042 l 238 1042 m 576 1197 l 576 1224 q 544 1317 576 1282 q 460 1351 513 1351 q 376 1317 407 1351 q 344 1224 344 1282 l 344 1197 l 253 1197 l 253 1224 q 309 1376 253 1319 q 460 1433 365 1433 q 612 1376 557 1433 q 667 1224 667 1318 l 667 1197 l 576 1197 z "},"ȗ":{"ha":732,"x_min":97,"x_max":628,"o":"m 196 694 l 196 286 q 236 127 196 179 q 353 75 276 75 q 481 135 432 75 q 529 299 529 194 l 529 694 l 628 694 l 628 0 l 539 0 l 539 117 q 460 20 513 54 q 336 -14 407 -14 q 158 59 219 -14 q 97 286 97 132 l 97 694 l 196 694 m 467 804 l 467 829 q 440 917 467 886 q 364 949 414 949 q 286 917 313 949 q 260 829 260 885 l 260 804 l 167 804 l 167 833 q 219 979 167 924 q 364 1035 272 1035 q 444 1020 407 1035 q 506 979 481 1006 q 547 916 532 953 q 561 833 561 879 l 561 804 l 467 804 z "},"Ț":{"ha":769,"x_min":65,"x_max":703,"o":"m 703 1042 l 703 949 l 436 949 l 436 0 l 333 0 l 333 949 l 65 949 l 65 1042 l 703 1042 m 338 -100 q 460 -144 414 -100 q 507 -261 507 -189 q 449 -405 507 -344 q 269 -487 392 -465 l 254 -399 q 375 -349 336 -383 q 414 -265 414 -315 q 392 -208 414 -229 q 326 -187 369 -187 l 286 -187 l 286 -100 l 338 -100 z "},"ț":{"ha":514,"x_min":63,"x_max":443,"o":"m 97 694 q 160 719 139 694 q 182 799 182 743 l 182 878 l 274 878 l 274 694 l 433 694 l 433 604 l 274 604 l 274 211 q 301 109 274 140 q 376 78 328 78 q 410 79 393 78 q 443 83 426 81 l 443 -1 q 360 -14 406 -14 q 221 38 267 -14 q 175 208 175 90 l 175 604 l 63 604 l 63 694 l 97 694 m 254 -79 q 369 -117 328 -79 q 410 -225 410 -156 q 362 -351 410 -293 q 206 -437 314 -410 l 185 -354 q 288 -301 257 -335 q 318 -226 318 -268 q 250 -161 318 -161 l 210 -161 l 210 -79 l 254 -79 z "},"µ":{"ha":732,"x_min":97,"x_max":628,"o":"m 196 694 l 196 279 q 238 121 196 167 q 356 75 281 75 q 479 133 429 75 q 529 299 529 190 l 529 694 l 628 694 l 628 0 l 539 0 l 539 117 q 463 20 511 54 q 347 -14 414 -14 q 262 0 300 -14 q 196 43 224 14 l 196 -339 l 97 -339 l 97 694 l 196 694 z "},"¼":{"ha":1075,"x_min":57,"x_max":1022,"o":"m 272 1043 l 272 515 l 183 515 l 183 821 l 57 821 l 57 896 l 78 896 q 196 1022 196 896 l 196 1043 l 272 1043 m 943 529 l 943 190 l 1022 190 l 1022 110 l 943 110 l 943 1 l 856 1 l 856 110 l 585 110 l 585 181 l 858 529 l 943 529 m 856 190 l 856 407 l 690 190 l 856 190 m 876 1014 l 206 -69 l 132 -22 l 801 1061 l 876 1014 z "},"½":{"ha":1124,"x_min":57,"x_max":1058,"o":"m 272 1043 l 272 515 l 183 515 l 183 821 l 57 821 l 57 896 l 78 896 q 196 1022 196 896 l 196 1043 l 272 1043 m 1058 1 l 681 1 l 681 65 l 888 224 q 944 286 924 251 q 964 363 964 321 q 938 434 964 408 q 867 460 913 460 q 790 430 815 460 q 764 356 764 400 l 764 342 l 675 342 l 675 356 q 688 428 675 394 q 726 488 701 463 q 786 526 750 513 q 868 540 822 540 q 1005 491 957 540 q 1053 365 1053 442 q 1026 256 1053 303 q 951 174 1000 210 l 826 81 l 1058 81 l 1058 1 m 876 1014 l 206 -69 l 132 -22 l 801 1061 l 876 1014 z "},"¾":{"ha":1171,"x_min":64,"x_max":1118,"o":"m 1039 529 l 1039 190 l 1118 190 l 1118 110 l 1039 110 l 1039 1 l 951 1 l 951 110 l 681 110 l 681 181 l 954 529 l 1039 529 m 951 190 l 951 407 l 786 190 l 951 190 m 972 1014 l 301 -69 l 228 -22 l 897 1061 l 972 1014 m 153 676 q 182 609 154 636 q 263 582 210 582 q 338 609 311 582 q 364 685 364 636 q 341 758 364 732 q 269 785 318 785 q 190 769 225 785 l 167 828 l 318 965 l 97 965 l 97 1043 l 443 1043 l 443 976 l 301 853 q 412 806 371 850 q 453 682 453 761 q 403 555 453 606 q 261 504 353 504 q 117 553 168 504 q 64 676 67 603 l 153 676 z "},"‰":{"ha":1590,"x_min":65,"x_max":1524,"o":"m 956 997 l 208 0 l 92 0 l 839 997 l 956 997 m 283 1060 q 442 995 383 1060 q 501 814 501 931 q 485 715 501 760 q 441 637 469 669 q 372 587 413 604 q 283 569 332 569 q 124 634 183 569 q 65 814 65 699 q 81 915 65 869 q 126 992 97 960 q 194 1042 154 1024 q 283 1060 235 1060 m 283 975 q 192 934 225 975 q 158 814 158 893 q 192 694 158 735 q 283 654 226 654 q 375 694 342 654 q 408 814 408 735 q 374 934 408 893 q 283 975 340 975 m 792 472 q 951 408 892 472 q 1010 226 1010 343 q 994 127 1010 172 q 949 49 978 82 q 881 -1 921 17 q 792 -18 840 -18 q 633 47 692 -18 q 574 226 574 111 q 590 327 574 282 q 634 404 606 372 q 703 454 663 436 q 792 472 743 472 m 792 388 q 700 347 733 388 q 667 226 667 306 q 701 107 667 147 q 792 67 735 67 q 883 107 850 67 q 917 226 917 147 q 883 347 917 306 q 792 388 849 388 m 1306 472 q 1465 408 1406 472 q 1524 226 1524 343 q 1508 127 1524 172 q 1463 49 1492 82 q 1394 -1 1435 17 q 1306 -18 1354 -18 q 1147 47 1206 -18 q 1088 226 1088 111 q 1103 327 1088 282 q 1148 404 1119 372 q 1217 454 1176 436 q 1306 472 1257 472 m 1306 388 q 1214 347 1247 388 q 1181 226 1181 306 q 1215 107 1181 147 q 1306 67 1249 67 q 1397 107 1364 67 q 1431 226 1431 147 q 1397 347 1431 306 q 1306 388 1363 388 z "},"Ẃ":{"ha":1169,"x_min":56,"x_max":1113,"o":"m 168 1042 l 349 167 l 539 1042 l 633 1042 l 824 167 l 1003 1042 l 1113 1042 l 876 -3 l 763 -3 l 583 829 l 404 -3 l 290 -3 l 56 1042 l 168 1042 m 756 1317 l 414 1193 l 414 1290 l 756 1414 l 756 1317 z "},"Ǿ":{"ha":881,"x_min":94,"x_max":786,"o":"m 440 1060 q 621 1014 546 1060 l 676 1129 l 786 1129 l 699 946 q 786 615 786 833 l 786 426 q 695 93 786 204 q 440 -18 604 -18 q 260 25 335 -18 l 206 -87 l 94 -87 l 181 94 q 94 426 94 206 l 94 615 q 186 949 94 838 q 440 1060 278 1060 m 440 967 q 260 878 322 967 q 197 625 197 790 l 197 415 q 235 206 197 286 l 578 924 q 440 967 522 967 m 683 625 q 646 835 683 753 l 303 117 q 440 75 358 75 q 622 163 560 75 q 683 415 683 250 l 683 625 m 613 1317 l 271 1193 l 271 1290 l 613 1414 l 613 1317 z "},"Ǽ":{"ha":1271,"x_min":44,"x_max":1185,"o":"m 1156 1042 l 1156 949 l 728 949 l 728 578 l 1117 578 l 1117 486 l 728 486 l 728 93 l 1185 93 l 1185 0 l 625 0 l 625 268 l 297 268 l 165 0 l 44 0 l 576 1042 l 1156 1042 m 342 360 l 625 360 l 625 936 l 342 360 m 926 1317 l 585 1193 l 585 1290 l 926 1414 l 926 1317 z "},"Ŧ":{"ha":769,"x_min":65,"x_max":703,"o":"m 333 574 l 333 949 l 65 949 l 65 1042 l 703 1042 l 703 949 l 436 949 l 436 574 l 610 574 l 610 482 l 436 482 l 436 0 l 333 0 l 333 482 l 160 482 l 160 574 l 333 574 z "},"Ẅ":{"ha":1169,"x_min":56,"x_max":1113,"o":"m 168 1042 l 349 167 l 539 1042 l 633 1042 l 824 167 l 1003 1042 l 1113 1042 l 876 -3 l 763 -3 l 583 829 l 404 -3 l 290 -3 l 56 1042 l 168 1042 m 422 1404 q 483 1380 460 1404 q 507 1319 507 1356 q 483 1260 507 1283 q 422 1236 460 1236 q 363 1260 386 1236 q 339 1319 339 1283 q 363 1380 339 1356 q 422 1404 386 1404 m 747 1404 q 808 1380 785 1404 q 831 1319 831 1356 q 807 1260 831 1283 q 747 1236 783 1236 q 686 1260 710 1236 q 663 1319 663 1283 q 687 1380 663 1356 q 747 1404 711 1404 z "},"Ẁ":{"ha":1169,"x_min":56,"x_max":1113,"o":"m 168 1042 l 349 167 l 539 1042 l 633 1042 l 824 167 l 1003 1042 l 1113 1042 l 876 -3 l 763 -3 l 583 829 l 404 -3 l 290 -3 l 56 1042 l 168 1042 m 414 1414 l 756 1290 l 756 1193 l 414 1317 l 414 1414 z "},"Ỳ":{"ha":826,"x_min":56,"x_max":771,"o":"m 175 1042 l 414 471 l 654 1042 l 771 1042 l 464 356 l 464 0 l 361 0 l 361 356 l 56 1042 l 175 1042 m 242 1414 l 583 1290 l 583 1193 l 242 1317 l 242 1414 z "},"ẞ":{"ha":925,"x_min":135,"x_max":842,"o":"m 135 692 q 220 963 135 865 q 471 1060 306 1060 q 647 1026 567 1060 q 778 938 726 992 l 778 876 l 561 619 q 570 621 565 621 q 579 621 575 621 q 769 542 696 621 q 842 307 842 464 q 821 167 842 228 q 762 65 800 106 q 669 3 724 24 q 550 -18 615 -18 q 417 10 474 -18 q 319 90 360 38 l 388 153 q 549 75 446 75 q 687 132 635 75 q 739 307 739 189 q 692 477 739 422 q 557 532 644 532 q 497 526 525 532 q 443 510 469 519 l 419 586 l 672 899 q 587 948 639 929 q 471 967 535 967 q 296 896 354 967 q 238 692 238 825 l 238 0 l 135 0 l 135 692 z "},"ǽ":{"ha":1074,"x_min":81,"x_max":990,"o":"m 579 315 l 579 301 q 620 132 579 189 q 740 75 661 75 q 849 110 811 75 q 899 211 886 146 l 990 211 q 915 47 979 107 q 738 -14 850 -14 q 608 19 663 -14 q 528 113 554 51 q 437 19 494 53 q 292 -14 379 -14 q 136 39 192 -14 q 81 182 81 92 q 140 333 81 278 q 322 397 200 388 q 443 428 401 403 q 485 506 485 453 q 451 588 485 556 q 347 619 418 619 q 240 581 276 619 q 203 479 203 542 l 106 479 q 122 571 106 529 q 168 643 138 613 q 243 691 199 674 q 344 708 288 708 q 469 681 419 708 q 544 604 518 653 q 624 681 574 653 q 740 708 674 708 q 926 626 863 708 q 990 400 990 543 l 990 315 l 579 315 m 486 376 q 426 335 464 350 q 326 314 389 319 q 211 274 243 307 q 179 186 179 240 q 211 103 179 133 q 306 74 243 74 q 438 125 389 74 q 486 265 486 176 l 486 376 m 739 619 q 618 562 657 619 q 579 400 579 504 l 892 400 l 892 413 q 853 565 892 511 q 739 619 815 619 m 725 1042 l 607 806 l 506 806 l 621 1042 l 725 1042 z "},"ǿ":{"ha":719,"x_min":83,"x_max":636,"o":"m 165 58 q 83 313 83 143 l 83 381 q 102 516 83 456 q 156 619 121 576 q 243 685 192 663 q 360 708 294 708 q 425 701 394 708 q 482 683 456 694 l 526 769 l 622 769 l 553 633 q 636 381 636 547 l 636 313 q 564 73 636 160 q 360 -14 492 -14 q 294 -8 324 -14 q 236 8 264 -3 l 194 -75 l 97 -75 l 165 58 m 360 619 q 228 558 274 619 q 182 382 182 496 l 182 311 q 214 154 182 214 l 442 601 q 360 619 403 619 m 538 382 q 506 539 538 479 l 279 92 q 360 75 313 75 q 490 134 443 75 q 538 311 538 193 l 538 382 m 518 1042 l 400 806 l 299 806 l 414 1042 l 518 1042 z "},"ŧ":{"ha":514,"x_min":63,"x_max":443,"o":"m 97 694 q 160 719 139 694 q 182 799 182 743 l 182 878 l 274 878 l 274 694 l 433 694 l 433 604 l 274 604 l 274 400 l 406 400 l 406 310 l 274 310 l 274 211 q 301 109 274 140 q 376 78 328 78 q 410 79 393 78 q 443 83 426 81 l 443 -1 q 360 -14 406 -14 q 221 38 267 -14 q 175 208 175 90 l 175 310 l 86 310 l 86 400 l 175 400 l 175 604 l 63 604 l 63 694 l 97 694 z "},"ẃ":{"ha":932,"x_min":56,"x_max":876,"o":"m 160 694 l 290 121 l 424 694 l 508 694 l 646 121 l 775 694 l 876 694 l 699 -1 l 590 -1 l 465 518 l 343 -1 l 235 -1 l 56 694 l 160 694 m 644 1042 l 526 806 l 425 806 l 540 1042 l 644 1042 z "},"ẅ":{"ha":932,"x_min":56,"x_max":876,"o":"m 160 694 l 290 121 l 424 694 l 508 694 l 646 121 l 775 694 l 876 694 l 699 -1 l 590 -1 l 465 518 l 343 -1 l 235 -1 l 56 694 l 160 694 m 324 1035 q 378 1013 357 1035 q 400 958 400 992 q 378 902 400 924 q 324 881 357 881 q 267 902 289 881 q 246 958 246 924 q 267 1013 246 992 q 324 1035 289 1035 m 608 1035 q 665 1013 643 1035 q 686 958 686 992 q 665 902 686 924 q 608 881 643 881 q 553 902 575 881 q 531 958 531 924 q 553 1013 531 992 q 608 1035 575 1035 z "},"ẁ":{"ha":932,"x_min":56,"x_max":876,"o":"m 160 694 l 290 121 l 424 694 l 508 694 l 646 121 l 775 694 l 876 694 l 699 -1 l 590 -1 l 465 518 l 343 -1 l 235 -1 l 56 694 l 160 694 m 404 1042 l 519 806 l 418 806 l 300 1042 l 404 1042 z "},"ỳ":{"ha":697,"x_min":56,"x_max":642,"o":"m 164 694 l 367 104 l 535 694 l 642 694 l 397 -85 q 306 -269 356 -217 q 183 -321 256 -321 q 124 -317 150 -321 l 124 -222 q 149 -224 136 -224 q 174 -224 163 -224 q 245 -192 215 -224 q 300 -74 275 -160 l 317 -19 l 56 694 l 164 694 m 301 1042 l 417 806 l 315 806 l 197 1042 l 301 1042 z "},"₽":{"ha":860,"x_min":71,"x_max":779,"o":"m 186 274 l 186 408 l 71 408 l 71 500 l 186 500 l 186 1042 l 435 1042 q 688 958 597 1042 q 779 725 779 874 q 755 592 779 650 q 685 492 731 533 q 576 430 640 451 q 435 408 513 408 l 289 408 l 289 274 l 550 274 l 550 182 l 289 182 l 289 0 l 186 0 l 186 182 l 71 182 l 71 274 l 186 274 m 289 500 l 431 500 q 614 558 550 500 q 678 725 678 617 q 613 893 678 838 q 431 949 549 949 l 289 949 l 289 500 z "},"←":{"ha":1299,"x_min":111,"x_max":1160,"o":"m 1160 300 l 451 300 l 451 142 l 426 128 l 111 333 l 111 361 l 426 567 l 451 553 l 451 394 l 1160 394 l 1160 300 z "},"↑":{"ha":619,"x_min":90,"x_max":529,"o":"m 263 -178 l 263 531 l 104 531 l 90 556 l 296 871 l 324 871 l 529 556 l 515 531 l 357 531 l 357 -178 l 263 -178 z "},"→":{"ha":1299,"x_min":139,"x_max":1188,"o":"m 139 394 l 847 394 l 847 553 l 872 567 l 1188 361 l 1188 333 l 872 128 l 847 142 l 847 300 l 139 300 l 139 394 z "},"↓":{"ha":619,"x_min":90,"x_max":529,"o":"m 357 861 l 357 153 l 515 153 l 529 128 l 324 -187 l 296 -187 l 90 128 l 104 153 l 263 153 l 263 861 l 357 861 z "},"↖":{"ha":951,"x_min":83,"x_max":868,"o":"m 801 -58 l 300 442 l 188 331 l 161 338 l 83 707 l 103 726 l 471 649 l 479 621 l 367 508 l 868 8 l 801 -58 z "},"↗":{"ha":951,"x_min":83,"x_max":868,"o":"m 83 8 l 583 508 l 472 621 l 479 649 l 849 726 l 868 707 l 790 338 l 763 331 l 650 442 l 150 -58 l 83 8 z "},"↘":{"ha":951,"x_min":83,"x_max":868,"o":"m 150 713 l 650 211 l 763 324 l 790 315 l 868 -53 l 849 -72 l 479 6 l 472 32 l 583 144 l 83 646 l 150 713 z "},"↙":{"ha":951,"x_min":83,"x_max":868,"o":"m 868 646 l 367 144 l 479 32 l 471 6 l 103 -72 l 83 -53 l 161 315 l 188 324 l 300 211 l 801 713 l 868 646 z "},"":{"ha":799,"x_min":57,"x_max":742,"o":"m 449 863 l 742 0 l 633 0 l 563 219 l 233 219 l 163 0 l 57 0 l 354 863 l 449 863 m 263 310 l 535 310 l 400 736 l 263 310 z "},"":{"ha":799,"x_min":57,"x_max":742,"o":"m 449 863 l 742 0 l 633 0 l 563 219 l 233 219 l 163 0 l 57 0 l 354 863 l 449 863 m 263 310 l 535 310 l 400 736 l 263 310 m 569 1108 l 228 985 l 228 1082 l 569 1206 l 569 1108 z "},"":{"ha":799,"x_min":57,"x_max":742,"o":"m 449 863 l 742 0 l 633 0 l 563 219 l 233 219 l 163 0 l 57 0 l 354 863 l 449 863 m 263 310 l 535 310 l 400 736 l 263 310 m 414 1254 l 610 1096 l 610 997 l 593 997 l 399 1151 l 203 997 l 188 997 l 188 1096 l 383 1254 l 414 1254 z "},"":{"ha":799,"x_min":57,"x_max":742,"o":"m 449 863 l 742 0 l 633 0 l 563 219 l 233 219 l 163 0 l 57 0 l 354 863 l 449 863 m 263 310 l 535 310 l 400 736 l 263 310 m 236 1196 q 297 1172 274 1196 q 321 1111 321 1147 q 297 1051 321 1075 q 236 1028 274 1028 q 176 1051 200 1028 q 153 1111 153 1075 q 176 1172 153 1147 q 236 1196 200 1196 m 561 1196 q 622 1172 599 1196 q 644 1111 644 1147 q 621 1051 644 1075 q 561 1028 597 1028 q 500 1051 524 1028 q 476 1111 476 1075 q 501 1172 476 1147 q 561 1196 525 1196 z "},"":{"ha":799,"x_min":57,"x_max":742,"o":"m 449 863 l 742 0 l 633 0 l 563 219 l 233 219 l 163 0 l 57 0 l 354 863 l 449 863 m 263 310 l 535 310 l 400 736 l 263 310 m 229 1206 l 571 1082 l 571 985 l 229 1108 l 229 1206 z "},"":{"ha":799,"x_min":57,"x_max":742,"o":"m 401 1163 q 478 1149 443 1163 q 536 1110 513 1135 q 573 1051 560 1085 q 586 978 586 1017 q 554 871 586 917 q 468 806 522 825 l 742 0 l 633 0 l 563 219 l 233 219 l 163 0 l 57 0 l 333 804 q 247 869 278 824 q 215 978 215 915 q 228 1049 215 1015 q 267 1108 242 1083 q 326 1148 292 1133 q 401 1163 360 1163 m 263 310 l 535 310 l 400 736 l 263 310 m 401 1081 q 329 1051 356 1081 q 303 978 303 1022 q 329 903 303 932 q 401 875 356 875 q 472 903 446 875 q 499 978 499 932 q 472 1051 499 1022 q 401 1081 446 1081 z "},"":{"ha":799,"x_min":57,"x_max":742,"o":"m 449 863 l 742 0 l 633 0 l 563 219 l 233 219 l 163 0 l 57 0 l 354 863 l 449 863 m 263 310 l 535 310 l 400 736 l 263 310 m 642 1169 l 642 1156 q 603 1042 642 1085 q 493 1000 564 1000 q 428 1014 451 1000 q 387 1044 404 1028 q 352 1074 369 1060 q 307 1088 335 1088 q 262 1071 276 1088 q 247 1028 247 1054 l 247 1014 l 157 1014 l 157 1028 q 195 1141 157 1099 q 304 1183 233 1183 q 369 1169 346 1183 q 410 1140 393 1156 q 445 1110 428 1124 q 490 1096 463 1096 q 535 1113 521 1096 q 550 1156 550 1131 l 550 1169 l 642 1169 z "},"":{"ha":1124,"x_min":35,"x_max":1019,"o":"m 1007 861 l 1007 769 l 640 769 l 640 482 l 969 482 l 969 392 l 640 392 l 640 92 l 1019 92 l 1019 0 l 542 0 l 542 204 l 254 204 l 149 0 l 35 0 l 501 861 l 1007 861 m 301 296 l 542 296 l 542 757 l 301 296 z "},"":{"ha":763,"x_min":135,"x_max":679,"o":"m 406 861 q 592 800 528 861 q 656 632 656 739 q 630 518 656 565 q 560 446 604 471 q 647 369 615 421 q 679 242 679 317 q 613 67 679 135 q 413 0 546 0 l 135 0 l 135 861 l 406 861 m 235 90 l 411 90 q 538 132 497 90 q 579 244 579 174 q 540 354 579 315 q 424 393 500 393 l 235 393 l 235 90 m 235 482 l 419 482 q 521 519 485 482 q 557 624 557 557 q 517 734 557 697 q 404 771 478 771 l 235 771 l 235 482 z "},"":{"ha":758,"x_min":89,"x_max":669,"o":"m 568 564 l 568 583 q 525 729 568 672 q 386 786 482 786 q 238 713 286 786 q 190 510 190 640 l 190 349 q 239 145 190 215 q 383 75 288 75 q 520 131 471 75 q 569 281 569 186 l 569 300 l 669 300 l 669 274 q 650 156 669 210 q 593 65 631 103 q 503 5 556 26 q 383 -17 450 -17 q 165 78 240 -17 q 89 358 89 174 l 89 501 q 166 778 89 678 q 389 878 243 878 q 509 856 457 878 q 596 797 561 835 q 649 706 631 758 q 667 590 667 653 l 667 564 l 568 564 z "},"":{"ha":758,"x_min":89,"x_max":669,"o":"m 568 564 l 568 583 q 525 729 568 672 q 386 786 482 786 q 238 713 286 786 q 190 510 190 640 l 190 349 q 239 145 190 215 q 383 75 288 75 q 520 131 471 75 q 569 281 569 186 l 569 300 l 669 300 l 669 274 q 650 156 669 210 q 593 65 631 103 q 503 5 556 26 q 383 -17 450 -17 q 165 78 240 -17 q 89 358 89 174 l 89 501 q 166 778 89 678 q 389 878 243 878 q 509 856 457 878 q 596 797 561 835 q 649 706 631 758 q 667 590 667 653 l 667 564 l 568 564 m 340 -100 q 463 -144 417 -100 q 510 -261 510 -189 q 452 -405 510 -344 q 272 -487 394 -465 l 257 -399 q 378 -349 339 -383 q 417 -265 417 -315 q 394 -208 417 -229 q 329 -187 372 -187 l 289 -187 l 289 -100 l 340 -100 z "},"":{"ha":789,"x_min":135,"x_max":700,"o":"m 372 861 q 617 768 533 861 q 700 488 700 675 l 700 372 q 372 0 700 0 l 135 0 l 135 861 l 372 861 m 236 92 l 368 92 q 540 159 481 92 q 599 364 599 226 l 599 499 q 540 703 599 638 q 368 769 481 769 l 236 769 l 236 92 z "},"":{"ha":738,"x_min":135,"x_max":633,"o":"m 618 861 l 618 769 l 236 769 l 236 482 l 581 482 l 581 392 l 236 392 l 236 92 l 633 92 l 633 0 l 135 0 l 135 861 l 618 861 z "},"":{"ha":738,"x_min":135,"x_max":633,"o":"m 618 861 l 618 769 l 236 769 l 236 482 l 581 482 l 581 392 l 236 392 l 236 92 l 633 92 l 633 0 l 135 0 l 135 861 l 618 861 m 554 1108 l 213 985 l 213 1082 l 554 1206 l 554 1108 z "},"":{"ha":738,"x_min":135,"x_max":633,"o":"m 618 861 l 618 769 l 236 769 l 236 482 l 581 482 l 581 392 l 236 392 l 236 92 l 633 92 l 633 0 l 135 0 l 135 861 l 618 861 m 397 1271 l 593 1113 l 593 1014 l 576 1014 l 382 1168 l 186 1014 l 171 1014 l 171 1113 l 367 1271 l 397 1271 z "},"":{"ha":738,"x_min":135,"x_max":633,"o":"m 618 861 l 618 769 l 236 769 l 236 482 l 581 482 l 581 392 l 236 392 l 236 92 l 633 92 l 633 0 l 135 0 l 135 861 l 618 861 m 219 1196 q 281 1172 257 1196 q 304 1111 304 1147 q 281 1051 304 1075 q 219 1028 257 1028 q 160 1051 183 1028 q 136 1111 136 1075 q 160 1172 136 1147 q 219 1196 183 1196 m 544 1196 q 605 1172 582 1196 q 628 1111 628 1147 q 604 1051 628 1075 q 544 1028 581 1028 q 483 1051 507 1028 q 460 1111 460 1075 q 484 1172 460 1147 q 544 1196 508 1196 z "},"":{"ha":738,"x_min":135,"x_max":633,"o":"m 618 861 l 618 769 l 236 769 l 236 482 l 581 482 l 581 392 l 236 392 l 236 92 l 633 92 l 633 0 l 135 0 l 135 861 l 618 861 m 207 1206 l 549 1082 l 549 985 l 207 1108 l 207 1206 z "},"":{"ha":710,"x_min":135,"x_max":615,"o":"m 615 861 l 615 769 l 236 769 l 236 465 l 575 465 l 575 375 l 236 375 l 236 0 l 135 0 l 135 861 l 615 861 z "},"":{"ha":782,"x_min":89,"x_max":675,"o":"m 569 588 l 569 600 q 524 735 569 683 q 389 786 478 786 q 240 713 289 786 q 190 508 190 640 l 190 349 q 239 147 190 218 q 383 75 288 75 q 526 130 474 75 q 578 276 578 185 l 578 351 l 411 351 l 411 439 l 675 439 l 675 0 l 588 0 l 588 99 q 506 14 560 44 q 375 -17 451 -17 q 163 80 236 -17 q 89 357 89 176 l 89 504 q 167 781 89 683 q 392 878 246 878 q 508 858 457 878 q 595 801 560 838 q 649 714 631 764 q 668 604 668 664 l 668 588 l 569 588 z "},"":{"ha":839,"x_min":135,"x_max":704,"o":"m 236 861 l 236 478 l 603 478 l 603 861 l 704 861 l 704 0 l 603 0 l 603 386 l 236 386 l 236 0 l 135 0 l 135 861 l 236 861 z "},"":{"ha":371,"x_min":135,"x_max":236,"o":"m 236 861 l 236 0 l 135 0 l 135 861 l 236 861 z "},"":{"ha":371,"x_min":14,"x_max":356,"o":"m 236 861 l 236 0 l 135 0 l 135 861 l 236 861 m 356 1108 l 14 985 l 14 1082 l 356 1206 l 356 1108 z "},"":{"ha":371,"x_min":-24,"x_max":399,"o":"m 236 861 l 236 0 l 135 0 l 135 861 l 236 861 m 203 1254 l 399 1096 l 399 997 l 382 997 l 188 1151 l -8 997 l -24 997 l -24 1096 l 172 1254 l 203 1254 z "},"":{"ha":371,"x_min":-33,"x_max":410,"o":"m 236 861 l 236 0 l 135 0 l 135 861 l 236 861 m 51 1196 q 112 1172 89 1196 q 135 1111 135 1147 q 111 1051 135 1075 q 51 1028 88 1028 q -10 1051 14 1028 q -33 1111 -33 1075 q -9 1172 -33 1147 q 51 1196 15 1196 m 325 1196 q 386 1172 363 1196 q 410 1111 410 1147 q 386 1051 410 1075 q 325 1028 363 1028 q 265 1051 289 1028 q 242 1111 242 1075 q 265 1172 242 1147 q 325 1196 289 1196 z "},"":{"ha":371,"x_min":14,"x_max":356,"o":"m 236 861 l 236 0 l 135 0 l 135 861 l 236 861 m 14 1206 l 356 1082 l 356 985 l 14 1108 l 14 1206 z "},"":{"ha":514,"x_min":72,"x_max":385,"o":"m 385 861 l 385 257 q 156 -17 385 -17 q 113 -15 133 -17 q 72 -10 92 -14 l 72 78 q 150 74 110 74 q 247 117 211 74 q 283 257 283 160 l 283 861 l 385 861 z "},"":{"ha":796,"x_min":135,"x_max":733,"o":"m 615 0 l 372 411 l 236 219 l 236 0 l 135 0 l 135 861 l 236 861 l 236 361 l 581 861 l 700 861 l 438 486 l 733 0 l 615 0 z "},"":{"ha":697,"x_min":135,"x_max":625,"o":"m 236 861 l 236 92 l 625 92 l 625 0 l 135 0 l 135 861 l 236 861 z "},"":{"ha":714,"x_min":43,"x_max":640,"o":"m 150 408 l 150 861 l 251 861 l 251 447 l 426 515 l 426 418 l 251 350 l 251 92 l 640 92 l 640 0 l 150 0 l 150 311 l 43 269 l 43 367 l 150 408 z "},"":{"ha":994,"x_min":135,"x_max":860,"o":"m 260 861 l 499 154 l 735 861 l 860 861 l 860 0 l 760 0 l 760 665 l 539 0 l 456 0 l 233 665 l 233 0 l 135 0 l 135 861 l 260 861 z "},"":{"ha":842,"x_min":135,"x_max":707,"o":"m 707 861 l 707 0 l 607 0 l 233 681 l 233 0 l 135 0 l 135 861 l 235 861 l 608 185 l 608 861 l 707 861 z "},"":{"ha":842,"x_min":135,"x_max":707,"o":"m 707 861 l 707 0 l 607 0 l 233 681 l 233 0 l 135 0 l 135 861 l 235 861 l 608 185 l 608 861 l 707 861 m 663 1169 l 663 1156 q 624 1042 663 1085 q 514 1000 585 1000 q 449 1014 472 1000 q 408 1044 425 1028 q 373 1074 390 1060 q 328 1088 356 1088 q 283 1071 297 1088 q 268 1028 268 1054 l 268 1014 l 178 1014 l 178 1028 q 216 1141 178 1099 q 325 1183 254 1183 q 390 1169 367 1183 q 431 1140 414 1156 q 466 1110 449 1124 q 511 1096 483 1096 q 556 1113 542 1096 q 571 1156 571 1131 l 571 1169 l 663 1169 z "},"":{"ha":789,"x_min":89,"x_max":700,"o":"m 394 878 q 621 780 542 878 q 700 500 700 682 l 700 358 q 679 201 700 271 q 619 83 658 132 q 522 9 579 35 q 394 -17 465 -17 q 168 79 247 -17 q 89 360 89 175 l 89 501 q 170 778 89 679 q 394 878 251 878 m 394 786 q 242 712 293 786 q 190 507 190 638 l 190 351 q 242 146 190 217 q 394 75 294 75 q 547 149 494 75 q 599 353 599 224 l 599 510 q 547 715 599 644 q 394 786 494 786 z "}}}
